<svg xmlns="http://www.w3.org/2000/svg" viewBox="0 0 153 120">
	<style>
		path { fill: #4f1eb6; }
		@media ( prefers-color-scheme: dark ) {
			path { fill: #ffe7a8; }
		}
		@media ( prefers-contrast: more ) {
			path { fill: Highlight; }
		}
	</style>
  <path d="m56 13 3 1v3l3 4 1 17c1 8 1 13-1 18l-2 2c-4 10-9 19-16 26l-5 4-1 4 32-3 2 25c-8 2-14 2-22 2l-10 2H25l-20 2C3 98 7 84 18 75l4-3c3-2 5-6 7-9 3-2 6-3 8-6l5-10v-4l-2-6c-1-2-2-1-3-2l-3-2c-6-2-14 6-17 9l-3 6h-1l-8-7c-4-3-6-5-4-10C7 20 19 8 32 5c12-2 18 2 24 8Zm96 56c-10 1-16-1-24 3l1 20v16c-7 0-14 1-20 3l-2-16-2-19-31 2c-1-6-3-16-2-22 1-4 7-12 9-15l5-12 3-4 1-5 4-5 4-9 1-1c3-2 7-1 10-1l5-3 12-1a433 433 0 0 1 4 47c6 1 15 0 21-1 1 8 2 16 1 23zm-36-34-2-12-3 1c-5 3-6 8-8 14-5 15 7 9 15 6v-4l-2-5z"/>
</svg>
