<?xml version="1.0" standalone="no"?>
<!DOCTYPE svg PUBLIC "-//W3C//DTD SVG 20010904//EN"
 "http://www.w3.org/TR/2001/REC-SVG-20010904/DTD/svg10.dtd">
<svg version="1.0" xmlns="http://www.w3.org/2000/svg"
 width="1224.000000pt" height="1224.000000pt" viewBox="0 0 1224.000000 1224.000000"
 preserveAspectRatio="xMidYMid meet">
<metadata>
Created by potrace 1.14, written by Peter Selinger 2001-2017
</metadata>
<g transform="translate(0.000000,1224.000000) scale(0.100000,-0.100000)"
fill="#000000" stroke="none">
<path d="M9987 10914 c-2 -1 -80 -9 -207 -19 -131 -11 -198 -17 -240 -21 -49
-4 -176 -14 -365 -28 -56 -5 -53 -3 -255 -126 -8 -5 -57 -34 -108 -64 l-93
-55 -87 4 c-227 12 -421 13 -467 4 -27 -6 -59 -12 -70 -13 -22 -4 -106 -37
-147 -58 -34 -18 -118 -107 -118 -125 0 -7 -5 -13 -11 -13 -5 0 -8 -4 -4 -9 3
-5 1 -12 -5 -16 -5 -3 -10 -12 -10 -19 0 -8 -20 -56 -44 -107 -24 -52 -58
-128 -76 -169 -18 -41 -48 -109 -67 -150 -19 -41 -41 -90 -49 -107 -8 -18 -21
-50 -31 -70 -13 -30 -106 -158 -133 -183 -14 -13 -130 -160 -130 -165 0 -3 -8
-13 -17 -23 -34 -36 -61 -70 -58 -74 2 -2 -9 -66 -25 -143 -16 -77 -32 -153
-35 -170 -2 -16 -7 -40 -9 -52 -3 -12 -26 -50 -53 -85 -27 -35 -56 -74 -65
-88 -9 -14 -25 -35 -37 -47 -12 -12 -21 -25 -21 -28 0 -4 -15 -25 -33 -48 -19
-23 -41 -60 -51 -82 -10 -22 -21 -49 -26 -60 -47 -107 -100 -240 -100 -251 0
-8 -4 -14 -10 -14 -5 0 -10 -6 -10 -13 0 -7 -15 -48 -33 -92 -19 -44 -37 -89
-42 -100 -4 -11 -7 -23 -7 -27 1 -5 -2 -8 -6 -8 -5 0 -9 -6 -9 -12 -1 -21
-149 -363 -165 -382 -24 -28 -188 -269 -188 -276 0 -5 -4 -10 -8 -12 -9 -3
-206 -297 -258 -382 -16 -28 -39 -66 -51 -85 -12 -20 -45 -81 -74 -136 -28
-55 -55 -104 -59 -110 -15 -21 -60 -157 -54 -166 3 -5 2 -9 -3 -9 -9 0 -15
-52 -17 -147 0 -35 -3 -63 -6 -63 -3 0 -4 -37 -3 -82 1 -46 2 -83 3 -83 0 0 3
-54 6 -120 4 -66 7 -132 8 -147 0 -16 3 -28 6 -28 3 0 6 -21 6 -48 2 -58 14
-174 30 -272 3 -19 7 -55 10 -79 2 -24 7 -48 10 -53 3 -5 8 -30 10 -56 2 -26
6 -58 9 -72 2 -14 7 -41 10 -60 3 -19 7 -42 9 -50 4 -20 16 -99 20 -130 2 -14
6 -32 9 -40 5 -15 14 -68 24 -150 3 -25 9 -50 14 -56 5 -6 5 -15 1 -19 -4 -5
-1 -4 7 0 8 5 37 9 65 11 92 5 230 13 331 20 55 3 116 7 135 8 19 1 41 5 48 9
7 5 12 3 12 -3 0 -6 4 -8 10 -5 5 3 47 8 93 10 87 5 196 11 312 20 78 5 196
13 295 20 36 2 108 6 160 10 52 3 122 8 155 10 33 3 112 7 175 10 63 3 133 8
154 10 22 2 83 7 135 10 105 6 213 13 306 20 81 6 92 1 92 -38 1 -40 10 -133
28 -292 3 -22 6 -58 9 -80 2 -22 6 -67 10 -100 14 -129 17 -162 21 -206 2 -26
6 -60 9 -75 3 -16 7 -60 11 -99 3 -38 8 -88 10 -110 12 -115 16 -153 21 -180
2 -16 6 -55 9 -85 2 -30 7 -84 11 -120 4 -36 8 -78 9 -95 2 -16 4 -30 5 -30 1
0 3 -16 5 -35 1 -19 5 -57 9 -85 14 -103 18 -141 19 -167 0 -16 3 -28 6 -28 3
0 6 -15 7 -32 0 -18 4 -60 8 -93 4 -33 9 -73 11 -90 2 -16 6 -49 10 -73 3 -24
8 -58 10 -75 7 -68 16 -143 20 -167 2 -14 6 -47 10 -75 3 -27 8 -68 11 -90 3
-22 7 -53 9 -70 2 -16 6 -55 10 -85 4 -30 8 -68 10 -83 1 -15 4 -30 6 -32 2
-2 37 7 77 20 39 12 72 21 72 19 0 -1 16 4 35 12 19 8 37 14 40 14 3 0 6 0 8
1 1 0 9 2 17 4 8 2 56 13 105 25 86 21 100 24 163 35 196 36 317 56 362 61 30
3 71 7 90 9 161 18 262 25 388 29 59 2 112 5 117 6 6 1 12 2 15 1 17 -7 78 -7
75 0 -3 4 5 5 17 1 18 -4 20 -2 16 16 -4 12 -2 22 4 22 5 0 6 5 3 11 -4 5 -6
51 -5 102 1 51 1 99 1 107 -1 8 -1 33 0 55 0 22 0 47 0 55 0 8 0 56 0 105 1
50 0 97 0 105 -1 8 -1 33 0 55 0 22 0 47 0 55 0 8 0 56 0 105 1 50 0 97 0 105
-1 8 -1 33 0 55 0 22 0 47 0 55 0 8 0 56 0 105 1 50 1 95 1 100 0 17 -12 274
-17 363 -2 46 -7 139 -10 205 -3 67 -8 156 -10 197 -3 41 -7 131 -10 200 -3
69 -8 159 -10 200 -5 73 -11 203 -20 403 l-4 97 57 26 c31 14 69 32 85 40 15
8 27 12 27 8 0 -3 6 -2 13 4 6 6 59 24 116 41 118 35 147 42 235 55 22 4 53 9
70 12 89 17 274 25 671 29 209 2 414 7 455 10 120 8 183 15 188 20 6 6 15 89
27 245 8 118 4 660 -5 660 -3 0 -6 24 -7 53 -2 55 -10 152 -12 152 -1 0 -4 25
-5 55 -3 49 -8 98 -22 220 -2 19 -6 53 -8 75 -5 46 -14 124 -21 175 -3 19 -7
60 -10 90 -3 30 -8 67 -11 82 -6 29 -10 30 -104 13 -26 -5 -68 -11 -130 -20
-19 -2 -46 -7 -60 -9 -14 -3 -47 -7 -75 -10 -46 -4 -102 -11 -195 -22 -19 -2
-66 -7 -105 -10 -38 -3 -86 -8 -105 -10 -228 -25 -702 -19 -869 11 -47 8 -53
13 -41 34 5 10 6 21 2 25 -3 4 -7 48 -8 99 -2 51 -5 153 -8 227 -3 74 -9 194
-12 265 -8 192 -10 220 -18 233 -4 7 -2 12 4 12 6 0 9 4 5 9 -3 6 -8 54 -11
108 -3 54 -7 125 -9 158 -13 193 -17 264 -21 300 -1 22 -5 72 -8 110 -3 39 -7
99 -10 135 -3 36 -8 97 -11 135 -3 39 -8 93 -11 120 -3 28 -7 72 -9 99 -3 27
-7 72 -10 100 -11 115 -18 203 -19 233 -1 18 -3 33 -6 33 -3 0 -6 15 -6 33 -2
38 -12 152 -14 152 0 0 -3 25 -6 55 -2 30 -6 73 -9 95 -2 22 -7 67 -10 100 -3
33 -8 71 -11 85 -3 14 -8 50 -10 80 -2 30 -6 71 -9 91 -3 20 -8 54 -10 75 -3
22 -12 91 -21 154 -8 63 -17 131 -19 150 -12 90 -15 117 -21 150 -3 19 -7 49
-9 65 -1 17 -3 33 -4 36 -1 5 -88 8 -94 3z m-850 -1926 c12 -77 18 -112 27
-178 2 -14 8 -52 14 -85 6 -33 14 -76 17 -95 3 -19 8 -48 11 -65 3 -16 10 -57
15 -90 13 -78 16 -94 22 -130 9 -49 20 -119 23 -142 6 -51 19 -94 61 -198 25
-60 46 -114 47 -120 2 -5 8 -21 13 -35 32 -75 52 -130 48 -130 -2 0 0 -11 5
-25 6 -15 6 -27 0 -30 -5 -3 -7 -12 -3 -20 7 -19 10 -155 3 -155 -3 0 -4 -20
-2 -45 3 -31 0 -46 -9 -50 -8 -2 -27 -10 -44 -16 -16 -7 -32 -13 -35 -13 -3
-1 -66 -26 -140 -55 -74 -29 -139 -54 -145 -55 -5 -2 -21 -7 -35 -13 -33 -13
-221 -76 -289 -97 -30 -9 -56 -14 -59 -11 -3 3 -11 0 -19 -7 -7 -6 -16 -8 -19
-5 -3 3 -18 1 -32 -4 -14 -5 -54 -11 -88 -14 -35 -2 -68 -6 -74 -10 -5 -3 -10
-3 -10 2 0 4 -18 8 -39 7 -51 -1 -133 33 -173 71 -32 30 -68 100 -75 145 -5
33 -5 190 1 215 2 11 7 44 11 73 4 28 10 52 14 52 3 0 7 10 7 23 2 31 10 64
34 132 11 33 22 67 24 75 3 13 44 140 106 330 10 30 24 69 30 85 7 17 15 38
17 49 4 21 14 46 84 194 26 56 55 109 63 118 9 8 16 22 16 30 0 8 4 14 10 14
5 0 16 13 24 28 21 40 205 222 225 222 5 0 17 7 25 15 14 14 146 68 146 60 0
-2 12 2 27 10 15 8 30 12 35 9 4 -3 8 0 8 6 0 6 3 9 8 7 4 -3 16 -1 27 3 11 4
22 6 24 4 2 -2 10 -41 18 -86z"/>
<path d="M2924 10561 c-2 -2 -32 -5 -66 -7 -35 -1 -83 -5 -108 -8 -25 -3 -63
-8 -85 -10 -58 -7 -102 -15 -170 -32 -76 -20 -291 -91 -319 -106 -12 -7 -25
-13 -31 -13 -28 -3 -327 -153 -337 -169 -4 -6 -8 -7 -8 -3 0 5 -13 -1 -29 -12
-16 -12 -34 -21 -40 -21 -6 0 -11 -4 -11 -10 0 -5 -5 -10 -12 -10 -6 0 -26
-11 -44 -25 -18 -14 -35 -25 -39 -25 -9 0 -230 -154 -245 -170 -3 -4 -23 -19
-45 -35 -67 -50 -147 -116 -269 -225 -59 -53 -281 -274 -347 -346 -25 -28 -89
-104 -143 -170 -53 -65 -107 -132 -121 -149 -45 -55 -215 -302 -215 -314 0 -6
-4 -11 -9 -11 -5 0 -16 -15 -25 -32 -10 -18 -35 -62 -57 -98 -44 -72 -88 -159
-94 -187 -2 -10 -11 -41 -19 -70 -7 -28 -12 -54 -9 -57 3 -2 1 -11 -3 -18 -18
-29 10 -228 35 -248 3 -3 14 -18 23 -35 33 -59 111 -141 210 -220 7 -6 36 -28
63 -50 28 -22 89 -73 136 -115 47 -41 114 -100 150 -130 35 -30 76 -66 91 -80
14 -14 37 -34 50 -44 13 -10 57 -49 98 -86 41 -36 88 -77 104 -91 16 -13 35
-30 42 -37 8 -7 14 -10 14 -6 0 3 6 2 13 -4 8 -7 18 -7 27 -2 8 5 19 5 25 0 7
-6 50 70 130 232 l120 242 92 90 c112 111 204 194 303 274 41 34 82 67 91 74
9 7 22 18 31 23 215 145 317 202 433 242 74 26 80 27 141 38 49 9 166 13 179
6 5 -3 22 -6 38 -7 32 -3 87 -26 87 -36 0 -5 4 -8 10 -8 11 0 103 -62 108 -72
2 -5 10 -8 18 -8 8 0 14 -4 14 -10 0 -5 7 -10 15 -10 8 0 15 -4 15 -10 0 -5 5
-10 10 -10 6 0 20 -9 31 -19 12 -11 50 -27 87 -37 84 -23 141 -79 155 -151 2
-10 7 -25 10 -33 17 -41 127 -380 131 -403 2 -15 7 -31 11 -37 3 -5 1 -19 -5
-30 -8 -14 -8 -20 0 -20 8 0 8 -6 0 -20 -8 -14 -8 -20 0 -20 7 0 8 -6 0 -19
-7 -14 -7 -22 0 -26 8 -5 7 -11 -1 -21 -9 -11 -9 -17 0 -28 8 -10 9 -16 1 -21
-7 -4 -7 -12 0 -25 6 -12 7 -21 0 -25 -5 -3 -7 -12 -4 -19 7 -17 -388 -807
-430 -861 -45 -58 -168 -175 -184 -175 -5 0 -17 -8 -28 -18 -18 -17 -92 -63
-194 -120 -161 -90 -194 -117 -252 -203 -31 -46 -57 -90 -57 -96 -1 -7 -5 -13
-11 -13 -5 0 -10 -7 -10 -15 0 -8 -4 -15 -10 -15 -5 0 -12 -11 -16 -25 -3 -14
-10 -25 -15 -25 -5 0 -9 -6 -9 -14 0 -8 -3 -16 -8 -18 -4 -1 -26 -32 -49 -68
-24 -36 -54 -78 -68 -94 -14 -16 -25 -32 -25 -35 0 -25 -188 -191 -371 -328
-254 -190 -375 -298 -504 -447 -27 -32 -55 -63 -60 -69 -57 -63 -235 -326
-235 -347 0 -5 -3 -10 -7 -10 -5 0 -17 -20 -28 -45 -11 -25 -23 -45 -27 -45
-5 0 -8 -5 -8 -10 0 -6 -18 -46 -39 -90 -22 -44 -37 -80 -33 -80 4 0 3 -4 -3
-8 -5 -4 -19 -29 -29 -57 -36 -95 -88 -240 -91 -255 -2 -8 -4 -16 -5 -17 -2
-2 -3 -6 -4 -10 -1 -5 -7 -24 -14 -43 -6 -19 -14 -46 -16 -60 -3 -14 -16 -70
-30 -125 -22 -92 -47 -216 -61 -305 -3 -19 -7 -46 -10 -60 -3 -14 -7 -45 -9
-70 -3 -25 -7 -65 -10 -90 -14 -102 -29 -347 -30 -475 -1 -49 -5 -93 -11 -97
-6 -5 -5 -8 2 -8 9 0 10 -7 3 -24 -5 -13 -6 -27 -3 -30 9 -8 11 -66 3 -66 -3
0 -5 -12 -4 -27 1 -16 3 -28 4 -28 1 0 3 -72 6 -160 7 -252 9 -283 16 -291 4
-3 3 -14 -2 -24 -5 -10 -7 -20 -4 -23 4 -3 8 -36 11 -74 4 -68 10 -141 12
-156 1 -4 25 -5 53 -2 29 3 73 7 98 10 43 4 139 14 205 21 17 1 59 6 95 9 102
10 151 14 205 20 28 3 73 8 100 10 28 2 73 7 100 10 28 3 73 7 100 10 28 2 50
4 50 5 0 1 20 3 45 5 25 2 72 6 105 10 33 3 80 8 105 10 104 10 167 16 200 20
91 11 268 20 305 15 6 -1 66 -1 135 0 69 1 132 1 140 1 8 0 65 0 125 0 61 1
115 1 120 1 388 -4 541 -1 580 11 11 3 36 8 55 11 19 3 45 8 58 11 43 10 88
19 142 29 14 3 35 7 46 10 12 2 38 7 58 10 19 3 55 10 78 15 24 6 57 12 73 15
72 14 93 18 135 28 60 14 126 19 239 18 51 -1 96 -1 100 -2 3 0 8 0 11 1 3 1
109 4 235 6 127 2 255 6 285 9 30 3 98 8 150 11 134 10 139 11 146 18 4 3 14
2 24 -3 10 -5 20 -6 24 -3 7 8 33 13 91 17 22 2 40 5 40 6 0 1 11 3 25 5 14 1
42 5 63 9 20 3 53 9 73 12 43 7 47 7 144 29 41 9 86 18 100 21 14 3 41 9 61
15 l36 9 -3 68 c-2 37 -6 90 -9 117 -2 28 -7 88 -10 135 -3 47 -8 103 -10 125
-3 22 -7 78 -10 125 -3 47 -7 103 -10 125 -5 45 -15 173 -20 250 -6 89 -15
209 -20 250 -8 70 -18 218 -19 282 -1 35 -4 63 -7 63 -4 0 -7 26 -8 57 -1 32
-4 74 -6 93 -7 67 -17 195 -19 240 -1 25 -5 50 -8 56 -8 12 -66 13 -86 0 -7
-4 -12 -2 -12 4 0 6 -5 8 -12 4 -6 -4 -25 -8 -42 -10 -48 -3 -186 -15 -231
-20 -22 -3 -62 -7 -90 -9 -95 -8 -356 -32 -425 -40 -19 -2 -66 -6 -105 -9 -38
-4 -92 -9 -120 -12 -27 -3 -75 -7 -105 -9 -30 -2 -55 -5 -55 -5 0 -3 -56 -8
-127 -12 -38 -1 -68 -5 -68 -8 0 -3 -26 -6 -58 -7 -56 -2 -177 -11 -177 -13 0
-1 -25 -4 -55 -6 -67 -5 -135 -12 -135 -14 0 -1 -29 -3 -65 -6 -36 -2 -83 -6
-105 -9 -22 -3 -67 -7 -100 -10 -33 -2 -80 -6 -105 -9 -236 -23 -276 -25 -273
-10 1 6 4 22 6 35 3 13 10 44 17 69 7 25 13 52 15 60 21 102 39 148 63 163 15
9 41 30 59 47 18 16 34 30 37 30 5 0 36 25 70 55 6 6 31 26 56 45 25 19 50 39
56 45 6 5 26 21 44 35 83 62 296 298 428 474 30 39 61 77 70 84 9 6 13 12 8
12 -6 0 28 49 72 105 4 6 22 33 39 60 17 28 38 57 46 66 8 9 16 21 18 26 2 5
50 86 107 180 56 94 102 175 102 181 0 6 3 12 8 14 4 2 15 19 26 38 32 62 170
335 171 340 1 3 13 31 28 63 52 111 76 163 136 305 34 79 61 147 61 152 0 5
41 50 90 100 50 50 90 99 90 109 0 9 4 21 9 26 6 6 12 21 14 35 3 14 13 47 22
73 9 27 17 57 18 68 1 10 4 19 7 19 3 0 6 8 7 18 1 28 13 103 17 111 2 3 7 38
11 76 4 39 9 86 11 105 13 114 1 479 -21 660 -18 143 -24 209 -30 305 -2 44
-7 118 -10 165 -3 47 -7 130 -11 185 -3 55 -7 134 -10 175 -2 41 -6 113 -8
160 -8 147 -15 230 -21 240 -3 6 -1 10 5 10 6 0 8 5 4 11 -4 7 -8 44 -10 83
-11 258 -8 239 -60 308 -27 35 -52 65 -56 66 -4 2 -8 8 -8 13 0 9 -97 138
-112 149 -4 3 -9 16 -11 28 -2 12 -6 24 -10 28 -3 4 -2 15 4 25 5 11 6 19 2
19 -10 0 -8 63 2 79 3 6 1 11 -5 11 -7 0 -8 6 0 19 13 25 -6 71 -30 71 -9 0
-20 3 -24 7 -3 4 -12 8 -19 9 -56 8 -172 59 -200 86 -79 79 -213 199 -277 248
-25 19 -46 38 -48 42 -2 5 -10 8 -17 8 -7 0 -15 4 -17 8 -3 8 -113 85 -133 93
-5 2 -27 15 -47 27 -20 13 -40 23 -44 22 -4 -1 -10 3 -14 10 -4 6 -13 13 -21
14 -8 2 -43 17 -79 33 -36 17 -83 36 -105 43 -22 7 -49 16 -60 21 -74 31 -265
65 -406 73 -25 2 -51 6 -57 10 -7 4 -12 2 -12 -4 0 -7 -6 -8 -17 -2 -9 6 -29
6 -45 2 -15 -5 -28 -6 -28 -2 0 7 -89 10 -96 3z"/>
</g>
</svg>
