<svg xmlns="http://www.w3.org/2000/svg" xml:space="preserve" id="Calque_1" x="0" y="0" style="enable-background:new 0 0 324.2 121.4" version="1.1" viewBox="0 0 324.2 121.4"><style>.st0{fill:#fff}</style><g id="Calque_2_00000056392893946699456680000004422384109941163411_"><g id="Calque_18"><path d="m147 56.8 10.9-8.6-.9-12.1-2.7-10.1v-5.6l-.9-5.6.9-4.7 2-4.5 1.8-.8 1.5-1.2 6.3-.9h22.2l10.7-.9h50l14.9-.9 6.2-.9h12.2l6.4 1 11.6-.1h5.4l2 .7 3.4.2 7.3 6.5 3.4 5.6 1.8 4.5-.1 2.8 1 2.8v11.2l-.9 6.5-3.5 9.3-7.1 7.7-9.8 4.5-2.5.2-2 .8-6.2.9H287l-5.3 1-5.3 1-7.9-.1-6.4.9h-62.4l-8.7.1-4.5-.9-3.5-1-3.6-.7-1.8-.2-2-.7-7.8-1.1-3.6-.2-4.5-.7-3.5-1-7 2.4m-92.9-50c.3.3 2.1 1.1 2.5 1.6.4 1.1-.4 1.7.3 2.8.2.6 2.3 2.6 2.5 3.4 1.7 6.1 1.6 12.6 1.8 17.3.3 8.2 1 13-1 18.5-.2.7-1.7 1.5-2.1 2-4.4 9.4-9.3 18.6-16 25.7-1.7 1.8-3.9 2.2-5.5 4.2-.7.9-.5 3-1.1 3.8 10-.1 20.5-2.2 31.9-3.4l2.7 25.5c-8.1 2.2-14.7 1.6-22.4 1.4-3.4 0-7.5 1.6-9.5 2-4.9 1-12 .3-15.7.7-5.7.6-13.1 2.2-19.3 2.1-2.3-22 2.1-36.4 12.4-45.6 1.5-1.2 2.9-1 4.3-2.3 2.6-2.3 4.5-6.6 7.3-9s5.2-3.4 7.6-6.3c2.3-3.2 4-6.8 4.8-10.6.4-2.2-.8-2.4.4-3.7 0 0-1.8-5.8-2.2-6.2-.8-1.2-2.1-.8-3.1-1.7-.7-.3-1.9-2.3-2.5-2.4-6.4-1.5-14.5 6-17 9.1-1.1 1.3-1.9 5.2-3.1 6l-1.5.2c-2.7-2.5-5.3-4.2-8.2-6.6-4-3-6-5.5-3.4-10.7C6.6 21.1 19 9.3 32.1 6.4c11.9-2.6 18 1.8 24.2 7.5z" class="st0"/><path d="M152.5 70.1c-10 1.1-16.7-.7-24.5 2.6.1 5.6 1.4 13.2 1.5 20 0 .3-.1.7 0 1-.1 4-.6 11.3-.5 15.6-6.8-.4-13.5 1.3-19.9 3.1-.6-5.4-1.4-10.9-2.1-16.3-1-7-2-13.7-2.4-19.1-9.1-.3-20.6 1.3-30.6 2.3-.7-6.5-2.6-16.6-1.5-21.8.8-3.9 6.9-12.2 8.8-15.7 2-3.7 2.7-7.7 4.7-11.6.8-1.2 2.7-2.6 3.3-4 .8-1.6.3-3.2 1-4.7.9-1.8 3-3.1 4-5.1 1.1-2.1 2.9-8.1 4.2-9.5l.6-1.1c2.8-1.6 7.2-.3 10.4-1.1.4 0 4.6-2.3 5-2.3 3.8-.9 8-.9 11.9-1.3 1 9.6 1.9 18.8 2.3 29.2.2 4.1.6 11.7 1.2 17.4 5.9 1.2 15 .2 20.9-.4.8 7.9 1.8 16 1.7 22.8zm-36.6-33.8c-.9-4.5-1.3-8.3-1.9-11.7-.5.1-2.6.6-3.1.3-4.5 3.6-6.1 8.7-8.2 14.6-5.1 14.3 7.8 8.9 14.9 5.7-1-.4.4-3.7.3-3.7-.6-.2-2-4.8-2-5.2z" class="st0"/><path d="M188.4 25.4c1.1 3.9.9 15.6-.4 21.7-.1 1.3-.6 2.5-1.4 3.6-.2.2-.6.1-.9.3-.2.2-.4.9-.6.9-3.6 1.4-9.9-.5-11.7-1.8-1.1-.8-2-1.8-2.7-3-.7-1.1-1.2-2.3-1.6-3.5-.3-1.1-.4-2.2-.3-3.4.2-.2.6-1.1.9-1.2 1.2-.4 2.4-.7 3.7-.9.5.9 1.6 3.4 2.4 4 1.9 1.2 4.4.7 5.7-1.2.2-.4.4-.8.5-1.2.2-2.5.3-4.9.3-7.4.1-2.3 0-4.5-.3-6.8h-8.4c.3-2.4.4-4.9.3-7.4 3.4.2 8.2 1 12 .3l.9-.6c.6-.1.9.5 1.2.6 2.6.3 5-.3 7.4.3v6.1c-2.3-.1-4.7.1-7 .6zm30.7 22.1c-1.5 2.2-3.8 3.7-6.3 4.5-3.9.9-5.4-.3-7.7-1.5-1.7-.8-3.2-1.8-4.6-2.9-.4-.3-.7-.7-.9-1.1-2-2.9-4.2-10.2-3.4-15.7l.6-.9c.3-1.7.6-2.8.9-4 .3-.9 0-1.4.3-2.2.6-1 1.3-1.9 2.2-2.8 1.4-2 2.6-4.2 5.5-4.6 4.3-.6 9.9.8 11.7 2.8 3.8 4 5.2 20.4 2.5 27.1-.3.4-.6.9-.8 1.3zm-5.8-21.4c-1.1-1.2-2.7-1.8-4.3-1.5-2.9.3-5.5 4.5-5.8 7.4-.2 1.8.4 3.8.6 5.3.1.5-.2 1.3 0 1.8.4 1.2 2.3 2.1 3.7 2.8.7.6 1.6.9 2.5.9.5-.3 1.1-.6 1.6-.9.9-.3 1.8-.8 2.5-1.5 2-3 1.3-11.6-.8-14.3zm39-1.1c-.1.7-.1 1.3-.1 2-.1 4 .2 7.6-.5 11.5-.2.7-.4 1.5-.8 2.2-.2.4-.3.8-.4 1.3-.4 1.9-.4 3.1-1.2 4.6-.2.3-.5.7-.7 1-.8 1.1-1.7 2.1-2.7 3-2.2 1.5-10.4 2.5-13.3 1.3-1.8-1-3.3-2.5-4.4-4.3-.6-.9-1-1.8-1.4-2.8v-1.3c-.2-.8-.4-1.7-.7-2.8-.4-1.6-.9-3.3-1.2-4.6-.3-3-.3-6.1.1-9.1.3-3.4.8-6.9.8-10.3 2.2.2 4.3.3 6.5.3-.5 3.3-.7 6.7-.6 10 .2 3.3.9 6.6 2.1 9.7.3.8.1 1.7.6 2.2 1.2.8 2.6 1.2 4 1.2.2 0 .8-.3.6-.3 1.2-.5 2.4-.7 3.1-1.5 1.6-2 2.4-6.5 2.9-11.2.3-3.4.4-6.8.4-9.4 2.6-.3 4.2-.4 6.8-.6.1.7.6 2.2.6 2.8.2 1.5-.4 3.7-.5 5.1zm29 25c-1.7-.3-6.1.1-7.4-.6v-.6c-.2-.8-2-1.8-2.4-2.5-1.8-2.4-3.4-4.9-5.2-7.3-.1-.2-.2-.3-.3-.4-1 .4-1.5.2-1.9.4s-.4.5-.6 1.4c-.5 3-.3 6.9-.3 10.1-2.3.3-4.5.4-6.8.3 0-3.8.3-8.1.5-11.9 0-.6.1-1.1.1-1.7.1-2.1-.4-3.5-.3-5.9.2-2 .2-4.1.3-6.1.1-4.6 0-9.2 0-13.8.8-.1 2.2-.3 2.5-.3 3-.2 10.8.3 13.2 1.6 2.9 1.4 6.1 7.4 6.1 12.6 0 1.3-.2 2.5-.6 3.7-.5 1.5-3.4 4.3-4.6 5.2l-1.5.7c-.2.5.2 1 0 1.5.7.9 1.4 1.7 2.2 2.6.9 1 1.9 2.2 2.7 3.3s1.3 2.5 2.2 3.7c.6.8 2.3 1.9 2.4 3 .1.8-.4.5-.3 1zm-16.4-32.6c-.2.2-1 .4-1.2.6v6.4c0-.2-.4.3-.3.7 0 .1 0 .2.1.3 0 .5.2 1.4.3 2.2.4-.1.8-.1 1.2 0 1.3-.5 4-1.1 5.3-1.8l.3-.3c.4-.5.7-1 .9-1.5 1.9-4.5-2.8-6.1-6.6-6.6zm41.6 30.4c0 .1-.1.2-.2.4-1 1.3-2 2.5-3.2 3.7-1.7.9-4.8.4-6.8.3-1 .1-2.1.1-3.1 0-1.8-.3-5.4-2.3-7.9-3.9-.9-.6-1.7-1.2-2.5-1.9.2-.5-.2-1 0-1.5.8-1 1.6-1.9 2.5-2.8.5-.8 1-1.7 1.5-2.5.3.2.6-.1.9 0 .2.1.4.8.6.9 1.9 1.2 4 2.1 6.1 2.4 0 0 1.3.1.9 0 1.9-.9 3.8-1 2.8-4-.3-.8-1.1-1.3-1.5-1.8-.7-1.2-1.5-2.3-2.4-3.4h-.6c-.4-.2-.9-1.3-1.3-1.5-3-2.6-6.4-4.4-5.8-9.9.5-4.4 1.9-6.5 5.5-7.7l1-.6c.9-.1 1.8-.1 2.8 0 2.8.4 5.4 1.4 7.7 3 .4.3 1 .9 1.5 1.3-.1.3.2.9 0 1.2 0 .2-1.9 3-2.1 3.1v.3c-.3.1-.8-.2-.9 0-.9-.5-2.2-2-3.4-2.2-3.7-.4-4.9 3.3-3.1 5.9.8 1.2 2.6 1.8 3.7 2.8 4 3.4 10.1 8.8 7.7 16.6-.3.7 0 1.1-.4 1.8z" style="fill:#e76b2f"/><path d="M163.5 84.4c.3.2.6.2.9.4 2.1 1.9 3 5.8 2.3 9.8h.2c-.3 1.5-.3 3.3-.8 4.6-.7 1.2-1.7 2.3-2.9 3.1-2.7 1.5-5.9.6-9.6.4.3-4.2.7-8 .9-11.3 0-.9-.3-2.2-.2-3.3.2-1.8.7-4 .8-6.3 4 .8 5.5.6 8.4 2.6zm-4.8 3.9c-.5 1.4-.2 3-.5 4.6-.1.9-.4 2-.6 3.2.2 0 .4.4.5.4.7 0 1.5-.2 2.1-.5.7 0 1.4-.2 2-.5 2.1-1.2 1.8-5.4.2-6.7-.9-.7-2-1.1-3.2-1.2 0 .3-.5.6-.5.7zm22.6 16.1c-3.9-.2-8.8.1-12.2-.9l.2-2.9c.4-5.5.9-11 1.4-16.2 0-.4.1-2.3.1-2.3 3.8.7 7.9.3 11.7 1.1v.4c.2 1.3.2 2.6 0 3.8-.4 0-1 .1-1.2.1-.4 0-.8-.1-1.1-.3-1.7-.1-3.5-.2-5.2-.1l-.2.6c-.1 1.1-.1 2.2 0 3.2 1.4.3 3 .5 4.6.7.1 1 .1 2.1 0 3.1-1.5 0-3.6.2-5 .3-.1 1.3-.1 2.6 0 3.8 2.1.4 5.1.6 7.4 1v1.5c-.3 1.1-.4 2-.5 3.1zm56.6-26c-.4 2.5-.9 5-1.6 7.4 0 .1 0 .2-.1.3-.6 2-2 4.3-2.7 6.2-.6 1.5-.4 2.2-1 3.8-1.6 4.3-3.5 8.3-5.2 12.8-.5 1.3-.9 2.6-1.4 3.9-2.2.4-4.4.5-6.6.3-.8-1.6-1.4-3.2-2-4.8-1.1-3.2-2.1-6.5-3.4-9.5-.7.1-1.4-.3-2.1-.1-1 .2-2.8 5-4.3 9-.8 2.3-1.5 4.4-1.8 5.3-1.9.1-3.7.1-5.6 0-.5-1.8-1-3.8-1.4-5.9-.6-2.9-1.1-5.9-1.6-8.7-.8-5.2-1.7-10-2.5-14.9-.3-2.6-.8-5.2-1-7.9-.1-.8-.2-1.5-.2-2.3 3.1 0 6.3.2 9.4.6.1.8.3 1.5.4 2.4.4 2.5.7 5.2 1.1 7.9.4 3.3 1 6.6 1.8 9.9 1-.3 1.8.2 2.5-.2l2.7-4.4c.9-1.5 1.3-3.1 2.1-4.8 0 0 1.6.1 1 .4l.7.4c.9 1.5 1.1 3.4 1.8 5 .3.8 1.4 1.7 1.5 2.6 0 .2-.1.9-.1 1.1.2.4.8.3 1 .8.6-.4.6-.1 1.4-.2.5-1.4 1.6-5.3 3-9.3.9-2.8 1.9-5.6 2.8-7.6.7-1.7 1.3-2.8 1.7-2.9 3-.8 8.1.7 10.1 1.3-.1.6-.3 1.3-.4 2.1zm23.3 38.2c-7.1-.4-16 .1-22.3-1.7l.3-5.3c.7-10 1.7-20 2.5-29.5l.3-4.2c6.9 1.2 14.4.6 21.2 2v.7c.5 1.7.1 4.8 0 7-.8 0-1.9.3-2.2.2-.7-.1-1.4-.2-2-.5-3.1-.3-6.3-.3-9.4-.2l-.4 1c-.1 2-.1 3.9 0 5.9 2.6.5 5.4.9 8.3 1.2.1 1.9.1 3.7 0 5.6-2.8.1-6.6.3-9.2.5-.2 2.3-.2 4.7 0 7 3.9.7 9.4 1 13.5 1.9v2.8c-.1 1.9-.3 3.5-.6 5.6zm30-1.4c-.3.2-4.1 2.8-4.4 2.9-1.5.5-3.7.1-5.6 0-5-.1-10.1-.6-15-1.6-.2-1.5-.2-3.2-.2-4.9 0-2.2.2-4.4.5-6.6.1-.3.8-2.2.8-2.4.5-2.7-.1-5 .1-7.4.5-5.5 1.5-12.6 1.8-18.1 7.6.5 18.1.8 19.2 6.8 0 .8 0 1.6-.1 2.4.2 2.6.2 6.3-1.2 8.3-.4.7-2.2 1.2-2.6 2-.1.4.2.7-.1 1 1.9.6 5.1 1.6 6.5 2.8.3.3 0 .6.3 1.1s1.1.7 1.3 1.2c.9 2 .4 7.3-.5 10.4 0 .8-.4 1.5-.8 2.1zm-7.8-10.3c-.2-.1-.4-.9-.6-1.1-.9-.8-1.8-.7-3.1-1.2-.8-.4-2.4-1.4-3.8-1.3-3.4.3-2.4 6.8-2.4 9.7 1.6.3 3.3.4 4.9.3 2.5-.3 7.5-2.4 5.6-6.3l-.6-.1zm-4.6-21.7c-.6-.3-1.1-.6-1.7-.8-3.5-.1-3.3 5-3 8.2.3.1 1.2.2 1.4.5 1.9-.2 3.9-.7 5.7-1.4.6-.3.8-1.1 1.2-1.7 2-3.5-.5-3.9-3.6-4.8z" style="fill:#ff9b4c"/></g></g></svg>