<svg xmlns="http://www.w3.org/2000/svg">
	<symbol viewBox="0 0 512 512" id="mastodon">
		<path d="M250.5 85c-27 0-51.167 1.667-72.5 5-37.333 6.667-62.333 26-75 58-8 20.667-9 69.667-3 147 2 21.333 5 39 9 53 8.667 30.667 32 53.667 70 69 55.333 15.333 101.333 12.333 138-9v-27c-82.667 18.667-123.667 5.667-123-39 46 10 95.667 10.667 149 2 44.667-8.667 68.667-35.333 72-80 2-67.333 1-106-3-116-12.667-32.667-36.667-52-72-58-32.667-3.333-62.5-5-89.5-5zm-41.652 56.215c16.351.44 29.402 7.702 39.152 21.785l9 15 9-15c10.667-17.333 27.667-24.333 51-21 28.667 6 43 26 43 60v91h-36v-93c-.667-17.333-10.333-25-29-23-13.333 2-20 13.333-20 34v47h-36v-47c0-20.667-6.667-32-20-34-20-2-30 7.333-30 28v88h-36v-91c.667-34 15.333-54 44-60 4.125-.625 8.074-.887 11.848-.785z"/>
	</symbol>
	<symbol viewBox="0 0 512 512" id="twitter">
		<path d="m458 140q-23 10-45 12 25-15 34-43-24 14-50 19a79 79 0 00-135 72q-101-7-163-83a80 80 0 0024 106q-17 0-36-10s-3 62 64 79q-19 5-36 1s15 53 74 55q-50 40-117 33a224 224 0 00346-200q23-16 40-41"/>
	</symbol>
	<symbol viewBox="0 0 512 512" id="facebook">
		<path d="m331 312h-45v134a192 192 0 10-60 0V312h-49v-56h49v-45q4-89 116-68v47h-26q-29 1-30 30v36h53.5"/>
	</symbol>
	<symbol viewBox="0 0 512 512" id="github">
		<path d="M256 0a256 256 0 0 0-81 499c13 2 18-6 18-12l-1-44c-71 16-86-34-86-34-12-30-28-38-28-38-24-16 1-15 1-15 26 1 40 26 40 26 22 39 59 28 74 21 2-16 9-27 16-34-57-6-116-28-116-126 0-28 10-51 26-69-3-7-11-33 3-68 0 0 21-7 70 26a243 243 0 0 1 128 0c49-33 70-26 70-26 14 35 6 61 3 68 16 18 26 41 26 69 0 98-60 120-117 126 10 8 18 23 18 47l-1 71c0 6 5 14 18 12A256 256 0 0 0 256 0z"/>
	</symbol>
	<symbol viewBox="0 0 512 512" id="linkedin">
		<path d="M77 0C34 0 0 34 0 77v358c0 43 34 77 77 77h358c43 0 77-34 77-77V77c0-43-34-77-77-77H77zm65 101a37 37 0 0 1 37 37 37 37 0 0 1-37 37 37 37 0 0 1-37-37 37 37 0 0 1 37-37zm193 89c44 0 76 28 76 89v113h-66V287c0-27-9-45-33-45-23 0-36 20-36 40v110h-65V194h65v28c8-13 25-32 59-32zm-226 4h66v198h-66V194z"/>
	</symbol>
</svg>