<svg xmlns="http://www.w3.org/2000/svg" xmlns:xlink="http://www.w3.org/1999/xlink" viewBox="0 0 1920 390"><symbol id="b" viewBox="-1.3 -1.3 2.5 2.5"><circle r="1.3" fill="#f6f8f7"/></symbol><linearGradient id="a" gradientUnits="userSpaceOnUse" x1="960" y1="389.89" x2="960" y2="-.11" gradientTransform="matrix(1 0 0 -1 0 389.89)"><stop offset=".17" stop-color="#082637"/><stop offset=".34" stop-color="#0a2a39"/><stop offset=".49" stop-color="#0f3540"/><stop offset=".64" stop-color="#18474b"/><stop offset=".78" stop-color="#24615b"/><stop offset=".92" stop-color="#34836f"/><stop offset="1" stop-color="#3e997c"/></linearGradient><path fill="url(#a)" d="M0 0h1920v390H0z"/><use xlink:href="#b" width="2.5" height="2.5" x="-1.3" y="-1.3" transform="translate(1338.636 114.826) scale(.6972)" overflow="visible"/><use xlink:href="#b" width="2.5" height="2.5" x="-1.3" y="-1.3" transform="translate(1239.455 111.905) scale(.3187)" overflow="visible"/><use xlink:href="#b" width="2.5" height="2.5" x="-1.3" y="-1.3" transform="translate(1174.07 106.89) scale(.8666)" overflow="visible"/><use xlink:href="#b" width="2.5" height="2.5" x="-1.3" y="-1.3" transform="translate(1114.67 120.81) scale(.5279)" overflow="visible"/><use xlink:href="#b" width="2.5" height="2.5" x="-1.3" y="-1.3" transform="translate(1082.926 124.796) scale(.3984)" overflow="visible"/><use xlink:href="#b" width="2.5" height="2.5" x="-1.3" y="-1.3" transform="translate(1044.177 97.917) scale(.6275)" overflow="visible"/><use xlink:href="#b" width="2.5" height="2.5" x="-1.3" y="-1.3" transform="translate(1111.679 67.139) scale(.4084)" overflow="visible"/><use xlink:href="#b" width="2.5" height="2.5" x="-1.3" y="-1.3" transform="translate(1081.913 89.953) scale(.6873)" overflow="visible"/><use xlink:href="#b" width="2.5" height="2.5" x="-1.3" y="-1.3" transform="translate(956.037 170.407) scale(.4781)" overflow="visible"/><use xlink:href="#b" width="2.5" height="2.5" x="-1.3" y="-1.3" transform="translate(1065.043 158.563) scale(.8367)" overflow="visible"/><use xlink:href="#b" width="2.5" height="2.5" x="-1.3" y="-1.3" transform="translate(1058.069 118.829) scale(.4084)" overflow="visible"/><use xlink:href="#b" width="2.5" height="2.5" x="-1.3" y="-1.3" transform="translate(953.052 123.752) scale(.6076)" overflow="visible"/><use xlink:href="#b" width="2.5" height="2.5" x="-1.3" y="-1.3" transform="translate(719.348 57.308) scale(.8566)" overflow="visible"/><use xlink:href="#b" width="2.5" height="2.5" x="-1.3" y="-1.3" transform="translate(558.696 53.336) scale(.3984)" overflow="visible"/><use xlink:href="#b" width="2.5" height="2.5" x="-1.3" y="-1.3" transform="translate(669.717 63.227) scale(.4781)" overflow="visible"/><use xlink:href="#b" width="2.5" height="2.5" x="-1.3" y="-1.3" transform="translate(660.737 76.237) scale(.3287)" overflow="visible"/><use xlink:href="#b" width="2.5" height="2.5" x="-1.3" y="-1.3" transform="translate(628.057 61.277) scale(.2889)" overflow="visible"/><use xlink:href="#b" width="2.5" height="2.5" x="-1.3" y="-1.3" transform="translate(607.22 81.15) scale(.1893)" overflow="visible"/><use xlink:href="#b" width="2.5" height="2.5" x="-1.3" y="-1.3" transform="translate(614.18 91.12) scale(.1893)" overflow="visible"/><use xlink:href="#b" width="2.5" height="2.5" x="-1.3" y="-1.3" transform="translate(541.823 70.263) scale(.5379)" overflow="visible"/><use xlink:href="#b" width="2.5" height="2.5" x="-1.3" y="-1.3" transform="translate(451.713 117.863) scale(.6873)" overflow="visible"/><use xlink:href="#b" width="2.5" height="2.5" x="-1.3" y="-1.3" transform="translate(365.48 136.67) scale(.3785)" overflow="visible"/><use xlink:href="#b" width="2.5" height="2.5" x="-1.3" y="-1.3" transform="translate(417.983 60.273) scale(.6873)" overflow="visible"/><use xlink:href="#b" width="2.5" height="2.5" x="-1.3" y="-1.3" transform="translate(400.143 98.983) scale(.3885)" overflow="visible"/><use xlink:href="#b" width="2.5" height="2.5" x="-1.3" y="-1.3" transform="translate(319.899 97.949) scale(.4084)" overflow="visible"/><use xlink:href="#b" width="2.5" height="2.5" x="-1.3" y="-1.3" transform="translate(244.593 158.473) scale(.7271)" overflow="visible"/><use xlink:href="#b" width="2.5" height="2.5" x="-1.3" y="-1.3" transform="translate(323.894 223.924) scale(.4681)" overflow="visible"/><use xlink:href="#b" width="2.5" height="2.5" x="-1.3" y="-1.3" transform="translate(287.234 151.524) scale(.4283)" overflow="visible"/><use xlink:href="#b" width="2.5" height="2.5" x="-1.3" y="-1.3" transform="matrix(.757 0 0 .757 194.071 110.861)" overflow="visible"/><use xlink:href="#b" width="2.5" height="2.5" x="-1.3" y="-1.3" transform="translate(136.584 225.884) scale(.9164)" overflow="visible"/><use xlink:href="#b" width="2.5" height="2.5" x="-1.3" y="-1.3" transform="translate(1536.81 105.87) scale(.1893)" overflow="visible"/><use xlink:href="#b" width="2.5" height="2.5" x="-1.3" y="-1.3" transform="translate(1445.69 178.3) scale(.8267)" overflow="visible"/><use xlink:href="#b" width="2.5" height="2.5" x="-1.3" y="-1.3" transform="translate(1370.323 179.333) scale(.6873)" overflow="visible"/><use xlink:href="#b" width="2.5" height="2.5" x="-1.3" y="-1.3" transform="translate(1575.454 124.704) scale(.2789)" overflow="visible"/><use xlink:href="#b" width="2.5" height="2.5" x="-1.3" y="-1.3" transform="translate(1659.68 160.45) scale(.4482)" overflow="visible"/><use xlink:href="#b" width="2.5" height="2.5" x="-1.3" y="-1.3" transform="translate(1557.62 72.14) scale(.2291)" overflow="visible"/><use xlink:href="#b" width="2.5" height="2.5" x="-1.3" y="-1.3" transform="translate(982.784 58.264) scale(.6176)" overflow="visible"/><use xlink:href="#b" width="2.5" height="2.5" x="-1.3" y="-1.3" transform="translate(841.138 148.558) scale(.8566)" overflow="visible"/><use xlink:href="#b" width="2.5" height="2.5" x="-1.3" y="-1.3" transform="translate(719.299 148.619) scale(.5976)" overflow="visible"/><use xlink:href="#b" width="2.5" height="2.5" x="-1.3" y="-1.3" transform="translate(669.715 132.774) scale(.4681)" overflow="visible"/><use xlink:href="#b" width="2.5" height="2.5" x="-1.3" y="-1.3" transform="translate(684.649 78.219) scale(.4084)" overflow="visible"/><use xlink:href="#b" width="2.5" height="2.5" x="-1.3" y="-1.3" transform="translate(677.67 16.59) scale(.9363)" overflow="visible"/><use xlink:href="#b" width="2.5" height="2.5" x="-1.3" y="-1.3" transform="translate(591.404 34.464) scale(.6176)" overflow="visible"/><use xlink:href="#b" width="2.5" height="2.5" x="-1.3" y="-1.3" transform="translate(1345.597 82.977) scale(.7769)" overflow="visible"/><use xlink:href="#b" width="2.5" height="2.5" x="-1.3" y="-1.3" transform="translate(1360.482 134.682) scale(.4582)" overflow="visible"/><use xlink:href="#b" width="2.5" height="2.5" x="-1.3" y="-1.3" transform="translate(1243.45 47.29) scale(.8666)" overflow="visible"/><use xlink:href="#b" width="2.5" height="2.5" x="-1.3" y="-1.3" transform="translate(1297.969 92.929) scale(.5976)" overflow="visible"/><use xlink:href="#b" width="2.5" height="2.5" x="-1.3" y="-1.3" transform="translate(1286.04 114.85) scale(.4482)" overflow="visible"/><use xlink:href="#b" width="2.5" height="2.5" x="-1.3" y="-1.3" transform="translate(1235.494 85.054) scale(.5777)" overflow="visible"/><use xlink:href="#b" width="2.5" height="2.5" x="-1.3" y="-1.3" transform="translate(1286.081 163.371) scale(.5678)" overflow="visible"/><use xlink:href="#b" width="2.5" height="2.5" x="-1.3" y="-1.3" transform="translate(1283.03 172.549) scale(.5976)" overflow="visible"/><use xlink:href="#b" width="2.5" height="2.5" x="-1.3" y="-1.3" transform="translate(1399.089 199.189) scale(.5976)" overflow="visible"/><use xlink:href="#b" width="2.5" height="2.5" x="-1.3" y="-1.3" transform="translate(1442.702 81.062) scale(.6076)" overflow="visible"/><use xlink:href="#b" width="2.5" height="2.5" x="-1.3" y="-1.3" transform="translate(629.04 123.85) scale(.2988)" overflow="visible"/><use xlink:href="#b" width="2.5" height="2.5" x="-1.3" y="-1.3" transform="translate(481.406 28.536) scale(.8865)" overflow="visible"/><use xlink:href="#b" width="2.5" height="2.5" x="-1.3" y="-1.3" transform="translate(1632.925 114.795) scale(.6574)" overflow="visible"/><use xlink:href="#b" width="2.5" height="2.5" x="-1.3" y="-1.3" transform="translate(1680.504 114.784) scale(.9562)" overflow="visible"/><use xlink:href="#b" width="2.5" height="2.5" x="-1.3" y="-1.3" transform="translate(1807.335 122.725) scale(.8068)" overflow="visible"/><use xlink:href="#b" width="2.5" height="2.5" x="-1.3" y="-1.3" transform="translate(1802.395 184.225) scale(.9961)" overflow="visible"/><use xlink:href="#b" width="2.5" height="2.5" x="-1.3" y="-1.3" transform="translate(1740.232 181.862) scale(.7969)" overflow="visible"/><use xlink:href="#b" width="2.5" height="2.5" x="-1.3" y="-1.3" transform="translate(1737.652 180.632) scale(.7969)" overflow="visible"/><use xlink:href="#b" width="2.5" height="2.5" x="-1.3" y="-1.3" transform="translate(1580.415 176.315) scale(.9961)" overflow="visible"/><use xlink:href="#b" width="2.5" height="2.5" x="-1.3" y="-1.3" transform="translate(1517.995 180.275) scale(.9961)" overflow="visible"/><use xlink:href="#b" width="2.5" height="2.5" x="-1.3" y="-1.3" transform="translate(1789.472 34.512) scale(.7969)" overflow="visible"/><use xlink:href="#b" width="2.5" height="2.5" x="-1.3" y="-1.3" transform="translate(108.805 37.435) scale(.9961)" overflow="visible"/><use xlink:href="#b" width="2.5" height="2.5" x="-1.3" y="-1.3" transform="translate(55.255 59.295) scale(.9961)" overflow="visible"/><use xlink:href="#b" width="2.5" height="2.5" x="-1.3" y="-1.3" transform="translate(133.584 68.204) scale(.9562)" overflow="visible"/><use xlink:href="#b" width="2.5" height="2.5" x="-1.3" y="-1.3" transform="translate(155.46 73.17) scale(.9761)" overflow="visible"/><use xlink:href="#b" width="2.5" height="2.5" x="-1.3" y="-1.3" transform="translate(94.901 87.081) scale(.9064)" overflow="visible"/><use xlink:href="#b" width="2.5" height="2.5" x="-1.3" y="-1.3" transform="translate(63.217 196.107) scale(.9662)" overflow="visible"/><use xlink:href="#b" width="2.5" height="2.5" x="-1.3" y="-1.3" transform="translate(51.327 234.807) scale(.9662)" overflow="visible"/><use xlink:href="#b" width="2.5" height="2.5" x="-1.3" y="-1.3" transform="translate(128.631 134.681) scale(.4183)" overflow="visible"/></svg>