<svg xmlns="http://www.w3.org/2000/svg" xmlns:xlink="http://www.w3.org/1999/xlink" viewBox="0 0 384 179"><symbol id="a" viewBox="-1.3 -1.3 2.6 2.6"><circle r="1.3" fill="#f6f8f7"/></symbol><use width="2.6" height="2.6" x="-1.3" y="-1.3" overflow="visible" transform="translate(315.434 95.884) scale(.3064)" xlink:href="#a"/><use width="2.6" height="2.6" x="-1.3" y="-1.3" overflow="visible" transform="translate(250.027 90.847) scale(.8333)" xlink:href="#a"/><use width="2.6" height="2.6" x="-1.3" y="-1.3" overflow="visible" transform="translate(190.644 104.784) scale(.5076)" xlink:href="#a"/><use width="2.6" height="2.6" x="-1.3" y="-1.3" overflow="visible" transform="translate(158.91 108.78) scale(.3831)" xlink:href="#a"/><use width="2.6" height="2.6" x="-1.3" y="-1.3" overflow="visible" transform="translate(120.149 81.889) scale(.6034)" xlink:href="#a"/><use width="2.6" height="2.6" x="-1.3" y="-1.3" overflow="visible" transform="translate(187.66 51.12) scale(.3927)" xlink:href="#a"/><use width="2.6" height="2.6" x="-1.3" y="-1.3" overflow="visible" transform="translate(157.876 73.916) scale(.6609)" xlink:href="#a"/><use width="2.6" height="2.6" x="-1.3" y="-1.3" overflow="visible" transform="translate(32.016 154.376) scale(.4597)" xlink:href="#a"/><use width="2.6" height="2.6" x="-1.3" y="-1.3" overflow="visible" transform="translate(140.998 142.518) scale(.8045)" xlink:href="#a"/><use width="2.6" height="2.6" x="-1.3" y="-1.3" overflow="visible" transform="translate(134.05 102.81) scale(.3927)" xlink:href="#a"/><use width="2.6" height="2.6" x="-1.3" y="-1.3" overflow="visible" transform="translate(29.02 107.72) scale(.5842)" xlink:href="#a"/><use width="2.6" height="2.6" x="-1.3" y="-1.3" overflow="visible" transform="translate(58.75 42.23) scale(.5938)" xlink:href="#a"/><use width="2.6" height="2.6" x="-1.3" y="-1.3" overflow="visible" transform="translate(319.407 31.247) scale(.8333)" xlink:href="#a"/><use width="2.6" height="2.6" x="-1.3" y="-1.3" overflow="visible" transform="translate(311.471 69.021) scale(.5555)" xlink:href="#a"/></svg>