<svg xmlns="http://www.w3.org/2000/svg" viewBox="0 0 210.71 78.87"><defs><style>.cls-1{fill:#84cac1}</style></defs><g id="Calque_2" data-name="Calque 2"><g id="logo"><g id="Calque_18" data-name="Calque 18"><path d="M95.54 36.92l7.06-5.56-.6-7.85-1.72-6.62v-3.61l-.58-3.62.56-3 1.3-2.89 1.19-.54 1-.79 4.07-.59h14.45l6.94-.6h32.5l9.69-.6 4-.62h8l4.15.64h11.02l1.27.49 2.18.1 4.74 4.25 2.2 3.64 1.19 3-.06 1.84.64 1.81v7.23l-.6 4.22-2.29 6-4.64 5-6.39 2.75-1.61.09-1.27.49-4.06.59h-3.47l-3.47.63-3.47.64h-5.1l-4.15.61h-46.24l-2.9-.62-2.29-.63-2.33-.46-1.17-.13-1.28-.47-5.06-.74-2.31-.13-2.91-.46-2.28-.63-4.58 1.54M36.57 9.07c.2.19 1.4.7 1.6 1 .26.73-.23 1.1.2 1.81.13.41 1.49 1.67 1.64 2.19 1.12 4 1 8.16 1.2 11.25.22 5.35.65 8.45-.65 12-.13.44-1.13 1-1.35 1.3-2.86 6.13-6.05 12.07-10.4 16.71-1.1 1.19-2.56 1.46-3.56 2.75-.46.58-.32 2-.7 2.43 6.49 0 13.34-1.42 20.7-2.21L47 74.87c-5.28 1.43-9.53 1-14.54.91-2.19 0-4.88 1.06-6.17 1.3-3.17.65-7.79.19-10.2.45-3.72.39-8.52 1.45-12.56 1.33C2 64.63 4.89 55.31 11.61 49.32c1-.74 1.86-.65 2.82-1.48 1.68-1.47 2.95-4.29 4.72-5.85s3.36-2.18 4.91-4.07A18.21 18.21 0 0 0 27.18 31c.28-1.43-.52-1.56.27-2.4 0 0-1.19-3.74-1.4-4-.52-.8-1.36-.5-2-1.07-.45-.17-1.21-1.48-1.65-1.54-4.14-.95-9.4 3.9-11 5.9-.7.83-1.22 3.35-2 3.9l-.93.05C6.58 30.2 4.89 29.09 3 27.58c-2.6-1.95-3.9-3.56-2.24-7C4.3 13.69 12.36 6.06 20.9 4.18 28.61 2.5 32.58 5.3 36.57 9.07z" class="cls-1"/><path d="M99.12 45.57c-6.5.7-10.83-.45-16 1.71 0 3.64.92 8.6 1 13a3.53 3.53 0 0 0 0 .65c-.07 2.6-.35 7.35-.31 10.13-4.42-.28-8.76.83-12.93 2-.38-3.5-.94-7.1-1.39-10.59-.65-4.55-1.3-8.88-1.59-12.4-5.81-.24-13.32.78-19.82 1.47-.45-4.25-1.67-10.78-1-14.18.52-2.53 4.5-7.9 5.75-10.18s1.74-5 3-7.52c.53-.81 1.75-1.69 2.18-2.6s.29-2.06.72-3.06c.58-1.13 2-2 2.6-3.28s1.89-5.25 2.75-6.2l.37-.69c1.81-1.05 4.71-.18 6.75-.72.26 0 3-1.5 3.25-1.52a62.43 62.43 0 0 1 7.71-.83c.65 6.26 1.22 12.22 1.5 19 .11 2.67.37 7.59.77 11.3 3.85.78 9.75.15 13.55-.26a139.9 139.9 0 0 1 1.14 14.77zM75.31 23.62c-.58-2.94-.84-5.39-1.25-7.6-.35 0-1.71.39-2 .21-2.9 2.36-4 5.69-5.29 9.48-3.3 9.27 5.08 5.8 9.68 3.7-.65-.26.27-2.4.18-2.39-.37-.17-1.31-3.18-1.32-3.4z" class="cls-1"/><path fill="#00283c" d="M122.43 16.48c.68 2.52.57 10.12-.29 14.08a4.81 4.81 0 0 1-.9 2.33c-.15.15-.4 0-.61.19s-.26.58-.4.61c-2.34.9-6.45-.33-7.6-1.19a7.13 7.13 0 0 1-1.76-1.95 10.48 10.48 0 0 1-1-2.26 5.11 5.11 0 0 1-.18-2.2c.14-.11.39-.72.57-.79a13.41 13.41 0 0 1 2.4-.61 10.77 10.77 0 0 0 1.59 2.6 2.66 2.66 0 0 0 3.68-.78 2.71 2.71 0 0 0 .35-.8 45.69 45.69 0 0 0 .19-4.82 28.13 28.13 0 0 0-.19-4.4h-5.44a32 32 0 0 0 .16-4.79c2.24.14 5.36.68 7.8.18l.61-.4c.4 0 .58.36.79.4 1.66.21 3.25-.18 4.79.21v4a19.52 19.52 0 0 0-4.58.39zm19.94 14.4a7.63 7.63 0 0 1-4.11 2.91c-2.52.61-3.53-.21-5-1a13 13 0 0 1-3-1.91 4.16 4.16 0 0 1-.61-.72A17.24 17.24 0 0 1 127.46 20l.4-.62c.21-1.07.39-1.83.58-2.59.18-.58 0-.94.21-1.41a12.23 12.23 0 0 1 1.4-1.8c.94-1.3 1.69-2.7 3.6-3 2.78-.4 6.41.54 7.6 1.8 2.45 2.6 3.39 13.25 1.62 17.64-.14.27-.33.59-.5.88zM138.66 17a3.12 3.12 0 0 0-2.81-1c-1.91.19-3.57 2.92-3.78 4.79a12.69 12.69 0 0 0 .4 3.42c0 .33-.15.83 0 1.19.28.75 1.51 1.37 2.37 1.8a3 3 0 0 0 1.62.61 9.34 9.34 0 0 0 1-.61 4 4 0 0 0 1.61-1c1.36-1.87.93-7.45-.41-9.2zm25.3-.7c0 .43 0 .86-.07 1.3a51.71 51.71 0 0 1-.32 7.48 6 6 0 0 1-.51 1.41 4 4 0 0 0-.29.82 9.83 9.83 0 0 1-.79 3 6 6 0 0 1-.47.65 15.27 15.27 0 0 1-1.73 2c-1.44 1-6.73 1.66-8.64.82a8.27 8.27 0 0 1-2.84-2.77 11.81 11.81 0 0 1-.94-1.84 5.61 5.61 0 0 1 0-.82c-.11-.51-.29-1.12-.47-1.8-.28-1.05-.61-2.16-.75-3a24.26 24.26 0 0 1 .09-5.9c.21-2.24.54-4.47.54-6.7A32.87 32.87 0 0 0 151 11a31.41 31.41 0 0 0-.36 6.5 20 20 0 0 0 1.37 6.3c.18.51 0 1.08.4 1.4a5.32 5.32 0 0 0 2.6.8c.14 0 .54-.19.39-.19.76-.32 1.55-.43 2-1 1-1.3 1.59-4.25 1.91-7.31.21-2.2.29-4.43.29-6.13 1.65-.18 2.7-.25 4.39-.39.07.47.4 1.44.4 1.8a32.94 32.94 0 0 1-.43 3.44zm18.84 16.19c-1.12-.18-4 0-4.82-.39v-.4c-.14-.51-1.3-1.19-1.59-1.62-1.18-1.55-2.19-3.17-3.38-4.72a3 3 0 0 0-.22-.28c-.68.25-1 .14-1.22.28s-.28.33-.39.94a39.87 39.87 0 0 0-.19 6.59 32.55 32.55 0 0 1-4.42.21c0-2.48.21-5.29.36-7.74v-1.08c.07-1.37-.29-2.3-.19-3.81.11-1.3.15-2.66.19-4 .07-3 0-6 0-9 .5 0 1.44-.18 1.61-.21 1.95-.11 7 .21 8.61 1 1.87.93 3.95 4.79 4 8.2a6.81 6.81 0 0 1-.39 2.41 11.71 11.71 0 0 1-3 3.39l-1 .43c-.14.32.14.65 0 1 .43.58.94 1.12 1.44 1.69s1.23 1.41 1.76 2.13.83 1.62 1.41 2.41c.39.51 1.47 1.26 1.58 2 .11.44-.22.25-.15.57zm-10.62-21.2c-.11.15-.65.29-.8.4v4.18c0-.11-.25.18-.21.43a1.16 1.16 0 0 1 0 .18c0 .36.14.94.18 1.4a3.48 3.48 0 0 1 .79 0 30.18 30.18 0 0 0 3.42-1.19l.22-.21a3.87 3.87 0 0 0 .57-1c1.27-2.77-1.8-3.82-4.21-4.18zm27 19.77c0 .07-.07.15-.14.26a19.33 19.33 0 0 1-2.04 2.37c-1.11.62-3.13.29-4.39.19h-2a19.55 19.55 0 0 1-5.15-2.56 16.46 16.46 0 0 1-1.66-1.22c.11-.36-.11-.68 0-1q.76-.93 1.62-1.8c.36-.54.65-1.08 1-1.61.21.11.39-.08.61 0s.25.53.39.61a10.36 10.36 0 0 0 4 1.58s.86.07.61 0c1.26-.58 2.45-.68 1.8-2.6-.18-.5-.72-.82-1-1.19a13.1 13.1 0 0 0-1.58-2.19h-.4c-.25-.11-.61-.83-.82-1-1.95-1.69-4.18-2.88-3.79-6.41.33-2.84 1.23-4.21 3.6-5l.61-.4a7.74 7.74 0 0 1 1.8 0 11.64 11.64 0 0 1 5 1.95c.28.22.65.58 1 .83-.07.21.11.57 0 .79a22.85 22.85 0 0 1-1.36 2v.19c-.18.07-.51-.11-.61 0-.58-.36-1.41-1.3-2.2-1.41-2.41-.25-3.16 2.16-2 3.82.54.75 1.69 1.19 2.41 1.8 2.6 2.19 6.55 5.72 5 10.8-.15.52 0 .74-.22 1.21z"/><path fill="#e95c43" d="M106.28 54.87c.19.15.42.11.61.28 1.36 1.26 2 3.78 1.47 6.34h.11a14.92 14.92 0 0 1-.54 3 5.52 5.52 0 0 1-1.87 2c-1.75 1-3.81.4-6.27.25.17-2.73.48-5.2.59-7.34a19.24 19.24 0 0 1-.14-2.15c.14-1.2.43-2.59.52-4.08 2.62.51 3.65.36 5.52 1.7zm-3.17 2.54a17.52 17.52 0 0 0-.3 3c-.08.6-.28 1.3-.37 2.09.13 0 .28.27.34.29a4.36 4.36 0 0 0 1.39-.29 4.12 4.12 0 0 0 1.3-.31c1.35-.79 1.14-3.5.13-4.35a3.87 3.87 0 0 0-2.07-.76 4.35 4.35 0 0 0-.42.33zm14.69 10.45c-2.52-.15-5.71 0-8-.6l.12-1.9c.27-3.58.62-7.15.89-10.53 0-.29.09-1.5.09-1.5 2.45.42 5.16.23 7.58.71v.25a9.44 9.44 0 0 1 0 2.49c-.27 0-.65.09-.77.09a2.69 2.69 0 0 1-.73-.18 26.88 26.88 0 0 0-3.36-.07l-.16.37v2.11c.91.17 2 .32 3 .43a16.68 16.68 0 0 1 0 2c-1 0-2.35.13-3.25.19a13 13 0 0 0 0 2.49c1.37.27 3.34.36 4.83.65v1c-.04.68-.14 1.24-.24 2zm36.81-16.94a39.59 39.59 0 0 1-1 4.81.46.46 0 0 1-.05.2c-.41 1.3-1.3 2.78-1.76 4-.39 1-.26 1.46-.65 2.46-1 2.8-2.3 5.43-3.42 8.31-.3.83-.59 1.68-.89 2.56a16.76 16.76 0 0 1-4.3.19 27.68 27.68 0 0 1-1.3-3.14c-.74-2-1.38-4.22-2.25-6.16-.45 0-.93-.22-1.38-.08-.65.16-1.84 3.25-2.78 5.85-.5 1.52-1 2.88-1.19 3.44a31.75 31.75 0 0 1-3.65 0c-.3-1.16-.65-2.5-.91-3.82-.37-1.87-.74-3.85-1-5.63-.54-3.35-1.12-6.5-1.62-9.67-.22-1.69-.5-3.35-.65-5.12a14.68 14.68 0 0 1-.11-1.52 59.46 59.46 0 0 1 6.11.38l.28 1.53c.27 1.61.44 3.39.7 5.12a52.09 52.09 0 0 0 1.18 6.44c.65-.17 1.14.14 1.6-.11 0 0 1.73-2.84 1.77-2.88.59-1 .82-2 1.34-3.11 0 0 1 .06.65.29l.44.27c.55 1 .68 2.21 1.19 3.25.22.5.92 1.12 1 1.65a5.48 5.48 0 0 0 0 .7c.15.25.52.19.65.49.38-.26.37 0 .91-.15.3-.88 1.07-3.45 2-6.05a63.58 63.58 0 0 1 1.82-5c.43-1.08.85-1.83 1.09-1.89 1.95-.5 5.29.44 6.58.85-.1.52-.21 1-.28 1.49zm15.17 24.86c-4.61-.28-10.4.06-14.5-1.09l.22-3.46c.48-6.5 1.11-13 1.62-19.18l.17-2.73c4.45.76 9.38.41 13.79 1.3v.45a19.19 19.19 0 0 1 0 4.55c-.5 0-1.24.17-1.41.16a5.19 5.19 0 0 1-1.29-.32 46.47 46.47 0 0 0-6.13-.13L162 56a35.13 35.13 0 0 0 0 3.84c1.66.31 3.52.59 5.4.78a31.75 31.75 0 0 1 0 3.65c-1.81 0-4.27.23-6 .33a24.7 24.7 0 0 0 0 4.55c2.51.48 6.1.65 8.81 1.23v1.8c-.13 1.23-.27 2.24-.43 3.62zm19.49-.93c-.17.15-2.69 1.8-2.85 1.87a12 12 0 0 1-3.64 0 57.13 57.13 0 0 1-9.75-1c-.1-.94-.12-2-.13-3.19a38.38 38.38 0 0 1 .35-4.28c.05-.2.54-1.4.54-1.56.32-1.74 0-3.25.1-4.78.29-3.58.94-8.17 1.17-11.76 4.93.3 11.79.52 12.45 4.41a10.6 10.6 0 0 1-.09 1.59c.1 1.68.11 4.1-.78 5.39-.28.44-1.45.82-1.68 1.3-.1.24.14.47 0 .65a14.46 14.46 0 0 1 4.22 1.86c.2.17 0 .41.21.7s.7.46.85.75c.57 1.3.28 4.73-.33 6.77a4.69 4.69 0 0 1-.6 1.33zm-5.07-6.69c-.16-.06-.25-.6-.4-.73a6.29 6.29 0 0 0-2-.78 5.63 5.63 0 0 0-2.44-.84c-2.22.19-1.58 4.41-1.53 6.29a13.54 13.54 0 0 0 3.18.19c1.61-.22 4.84-1.58 3.64-4.11zm-3-14.06a8.78 8.78 0 0 0-1.12-.52c-2.29-.06-2.12 3.25-2 5.32.2.09.81.13.89.3a16.22 16.22 0 0 0 3.69-.92c.38-.18.54-.7.76-1.09 1.37-2.29-.26-2.52-2.26-3.09z"/></g></g></g></svg>
