<svg xmlns="http://www.w3.org/2000/svg" viewBox="0 0 808.15 264.14"><defs><style>.cls-1{isolation:isolate}.cls-15,.cls-2{fill:#afc6c6}.cls-3,.cls-4{fill:#ffcfc4}.cls-10,.cls-11,.cls-15,.cls-19,.cls-25,.cls-28,.cls-29,.cls-4,.cls-8{mix-blend-mode:multiply}.cls-10,.cls-5{fill:#e95c43}.cls-7,.cls-8{fill:#3e997c}.cls-11,.cls-9{fill:#3f3d31}.cls-12,.cls-13,.cls-24,.cls-25,.cls-27,.cls-28,.cls-31{fill:none}.cls-12{stroke:#3e997c}.cls-12,.cls-24,.cls-25,.cls-27,.cls-28,.cls-31{stroke-linecap:round}.cls-12,.cls-13,.cls-24,.cls-25,.cls-27,.cls-28{stroke-miterlimit:10}.cls-12{stroke-width:1.42px}.cls-13{stroke:#3f3d31;stroke-width:.85px}.cls-14,.cls-19{fill:#f6f8f7}.cls-18{fill:#84cac1}.cls-20{fill:#ffe682}.cls-31{stroke-linejoin:round}.cls-23,.cls-29{fill:#ffad01}.cls-24,.cls-25,.cls-27,.cls-28,.cls-31{stroke:#e95c43}.cls-27,.cls-28{stroke-width:1.42px}.cls-30{fill:#207361}.cls-31{stroke-width:2.83px}</style></defs><g class="cls-1"><g id="Calque_2" data-name="Calque 2"><g id="Perso"><rect width="254.08" height="2.57" x="346.77" y="256.68" class="cls-2" rx="1.29"/><rect width="100.13" height="2.57" x="644.47" y="261.57" class="cls-2" rx="1.29"/><rect width="206.07" height="2.57" x="12.33" y="256.68" class="cls-2" rx="1.29"/><path d="M431.02 118.05l46.61-20.62 30.5-37.58-8.33-6.06-30.22 26.92-36.81 15.86-1.75 21.48z" class="cls-3"/><path d="M496.31 61.44l-22.2 29.49-42.41 18.76-.68 8.36 46.61-20.62 30.5-37.58-11.82 1.59z" class="cls-4"/><path d="M471.29 79l-1.71 1.73-36.81 15.84-1.77 21.48 46.61-20.62 2.39-2.88a67 67 0 0 1-4.66-5.66 25.47 25.47 0 0 1-4.05-9.89z" class="cls-5"/><circle cx="465.18" cy="83.02" r="1.83" class="cls-5"/><circle cx="462.26" cy="83.88" r="1.83" class="cls-5"/><circle cx="460.28" cy="85.72" r="1.83" class="cls-5"/><circle cx="456.5" cy="87.55" r="1.83" class="cls-5"/><circle cx="473.59" cy="98.52" r="1.83" class="cls-5"/><circle cx="471.41" cy="99.31" r="1.83" class="cls-5"/><circle cx="467.01" cy="101.14" r="1.83" class="cls-5"/><circle cx="464.09" cy="102.97" r="1.83" class="cls-5"/><path d="M480 94.55a69.1 69.1 0 0 1-4.52-5.47l-2.52 1.08a2.1 2.1 0 0 0-.58-.53l-.31-.58c-2-3.9-1.77-5.86-1.76-5.91a.71.71 0 0 0-1.4-.24c0 .23-.32 2.32 1.71 6.43a2.16 2.16 0 0 0-1.5 1.47 2.62 2.62 0 0 0-.34-.24c-.13-.18-.27-.37-.39-.57-1.93-3-1.75-4.56-1.74-4.62a.71.71 0 0 0-1.38-.29c-.05.2-.34 2 1.71 5.33a2.17 2.17 0 0 0-1.44 2h-.19a2.12 2.12 0 0 0-.62.1c-.11-.32-.22-.65-.31-1-.88-3.48-.22-4.87-.19-4.93a.71.71 0 0 0-1.23-.7c-.1.17-1 1.85 0 6a12.64 12.64 0 0 0 .5 1.54 2.18 2.18 0 0 0-.35.94l-1.27.55a2.17 2.17 0 0 0-1.07-.29h-.06c-2-2.54-2-4-2-4a.72.72 0 0 0-.64-.76.73.73 0 0 0-.77.64c0 .19-.09 1.84 2.05 4.69a2.23 2.23 0 0 0-.67 1.11l-26.12 11.25-.83 10.17 30.86-13.66a1.8 1.8 0 0 0 1.46.74 1.83 1.83 0 0 0 1.83-1.83 1.86 1.86 0 0 0 0-.34h.05a1.81 1.81 0 0 0 1.03.37 1.83 1.83 0 0 0 1.82-1.65l1.4-.62a1.83 1.83 0 0 0 1.18.44 1.81 1.81 0 0 0 1.57-.91 1.74 1.74 0 0 0 .61.12 1.83 1.83 0 0 0 1.83-1.83v-.11l2.22-1z" class="cls-5"/><path d="M496.31 61.44l2.35-8.71a10.47 10.47 0 0 1 6.64-7.14l11.23-3.94a4.67 4.67 0 0 1 5.15 1.46L527.3 50a5.08 5.08 0 0 1 .33 6L525 60a5.11 5.11 0 0 1-2.47 2l-12.22 4.66z" class="cls-3"/><path d="M511 66.43l2.24-3.49a5.1 5.1 0 0 0-.33-6l-5.62-6.92a4.64 4.64 0 0 0-5.14-1.46l-1.8.63a10.52 10.52 0 0 0-1.71 3.51l-2.35 8.71 14 5.25z" class="cls-4"/><path d="M502.42 61.44l10.8 2.38a3.24 3.24 0 0 1 2.46 3.89 3.24 3.24 0 0 1-3.16 2.51h-1.32a8.78 8.78 0 0 1-8.78-8.78z" class="cls-3"/><path d="M502.42 61.44l10.8 2.38a3.24 3.24 0 0 1 2.46 3.89 3.24 3.24 0 0 1-3.16 2.51h-1.32a8.78 8.78 0 0 1-8.78-8.78z" class="cls-4"/><path d="M384.82 97.48s7-7.49 12.63-8.1c4.56-.5 16.79-.18 22.32 1.24 1.32.34 4 1.14 4.17 1.53 2.2 6.37-17.21 8.77-22.71 8.2s-16.41-2.87-16.41-2.87z" class="cls-7"/><path d="M384.82 97.48s7-7.49 12.63-8.1c4.56-.5 16.79-.18 22.32 1.24 1.32.34 4 1.14 4.17 1.53 2.2 6.37-17.21 8.77-22.71 8.2s-16.41-2.87-16.41-2.87z" class="cls-8"/><path d="M432.77 153.79l-32.37 7.69 19.27 13.55 9.82.83 9.74-18.04-1.74-.33-4.72-3.7z" class="cls-9"/><path d="M434.31 149.86l3.85 2.64L466 138.25a10.81 10.81 0 0 1 10.39.3 10.81 10.81 0 0 1 5 11.82l-13 54.28h-9.29l4.51-44.65-27.26 15.36a16.52 16.52 0 0 1-17.61-.9l-18.34-13z" class="cls-5"/><path d="M476.41 138.55a10.81 10.81 0 0 0-10.39-.3l-26.42 13.52-3.16 23.53 27.17-15.3-4.51 44.66h9.39l13-54.28a10.81 10.81 0 0 0-5.08-11.83z" class="cls-5"/><path d="M476.41 138.55a10.81 10.81 0 0 0-10.39-.3l-26.42 13.52-3.16 23.53 27.17-15.3-4.51 44.66h9.39l13-54.28a10.81 10.81 0 0 0-5.08-11.83z" class="cls-10"/><path d="M438.16 152.5l-3.85-2.64-33.91 11.62 18.34 13a16.52 16.52 0 0 0 17.61.9h.09l3.16-23.53z" class="cls-9"/><path d="M438.16 152.5l-3.85-2.64-33.91 11.62 18.34 13a16.52 16.52 0 0 0 17.61.9h.09l3.16-23.53z" class="cls-11"/><path d="M423.15 168.06l-13.7-9.68-9.05 3.1 18.34 13a16.52 16.52 0 0 0 17.61.9h.09l.65-4.83a16.48 16.48 0 0 1-13.94-2.49z" class="cls-11"/><path d="M476.31 175.47l1.76-5.76a1.41 1.41 0 0 1 1.45-1 1.42 1.42 0 0 1 1.25 1.85l-1.61 4.9z" class="cls-9"/><path d="M476.31 175.47l1.76-5.76a1.41 1.41 0 0 1 1.45-1 1.42 1.42 0 0 1 1.25 1.85l-1.61 4.9z" class="cls-11"/><path d="M459.47 171.83h21.59l-3.51 11.8a8.54 8.54 0 0 0 7.51 11l4.41.35a8.31 8.31 0 0 1 7.66 8.29v4.33h-26.86l-1.52-1.6a2.15 2.15 0 0 0-3.67 1.51h-9.67v-4.24a95.8 95.8 0 0 1 2.06-19.76z" class="cls-9"/><path d="M470.23 207.55h26.9v3.33h-26.9zm-14.82 0h9.66v3.33h-9.66z" class="cls-9"/><path d="M470.23 207.55h26.9v1.26h-26.9zm-14.82 0h9.66v1.26h-9.66z" class="cls-11"/><path d="M474.74 176.58h5.27m-6.31 3.08h5.27m-5.81 3.15h5.27" class="cls-12"/><path d="M489.47 194.93l-4.41-.35a8.48 8.48 0 0 1-6.59-4.05h-5.6v2.79a7.67 7.67 0 0 1-7.67 7.68h-4.63v6.55h4.51a2.15 2.15 0 0 1 3.67-1.51l1.52 1.51h26.86v-4.33a8.31 8.31 0 0 0-7.66-8.29z" class="cls-9"/><path d="M480.35 192.68l.07.07zm-15.22 14.45a.52.52 0 0 1 0-.11.52.52 0 0 0 0 .11zm.34-.82zm14.21-14.23zm2.24 1.62l.2.1zm-.81-.46a1.48 1.48 0 0 0 .13.08 1.48 1.48 0 0 1-.13-.08zm1.69.84a1.84 1.84 0 0 0 .25.09 1.84 1.84 0 0 1-.25-.09zm4.46.67l-2.2-.17 2.2.17zm-3.49-.38a2.44 2.44 0 0 0 .26.06 2.44 2.44 0 0 1-.26-.06zm-4.77-3.04zm-13.75 15.41a.3.3 0 0 1 0-.1.3.3 0 0 0 0 .1zm3.08-1.03l.11.07zm-.33-.17l.11.05zm-.37-.1h.07zm-1.63.34l.07-.05zm4.27 1.77l-1.52-1.52 1.52 1.52zm-3.84-1.99h.06zm-.71.44l.08-.08zm1.53-.6zm-.46.06h.1z" class="cls-11"/><path d="M477.91 189.48h-6.09v3.84a6.63 6.63 0 0 1-6.62 6.68h-.29a103.31 103.31 0 0 1 2.15-17.52l1.77-10.6h-9.36l-2 11.72a95.8 95.8 0 0 0-2.06 19.76v4.24h5.16V201h.7a6.69 6.69 0 0 1 3.79 6v.53a2.08 2.08 0 0 1 .92-1.75 7.71 7.71 0 0 0-2.78-4.8h2a7.67 7.67 0 0 0 7.67-7.68v-2.79h5.6a8.12 8.12 0 0 1-.56-1.03z" class="cls-11"/><path d="M458.37 200.33h-3v7.22h9.65V207a6.69 6.69 0 0 0-6.65-6.67z" class="cls-9"/><path d="M467.32 188.53H479v4.57h-11.68a2.28 2.28 0 0 1-2.28-2.28 2.28 2.28 0 0 1 2.28-2.29z" class="cls-9" transform="rotate(-17.35 472.04 190.83)"/><path d="M467.32 188.53H479v4.57h-11.68a2.28 2.28 0 0 1-2.28-2.28 2.28 2.28 0 0 1 2.28-2.29z" class="cls-11" transform="rotate(-17.35 472.04 190.83)"/><path d="M469.46 188.62h4.59v4.57h-4.59z" class="cls-7" transform="rotate(-17.35 471.77 190.89)"/><path d="M470.4 189.55h2.72v2.7h-2.72z" class="cls-8" transform="rotate(-17.35 471.77 190.89)"/><path d="M432.77 159.78L390 163.59l-7.07-57 5.47-3.59a50 50 0 0 1 38.84-6.91z" class="cls-9"/><path d="M396.67 98.63a49.58 49.58 0 0 0-8.27 4.37l-5.4 3.58 7.07 57 42.75-3.81-.08-.93z" class="cls-11"/><path d="M404.74 102.39l4.94 6.9a110.48 110.48 0 0 0 18.22-5.61l-5.85-3.33 5.19-4.26a50 50 0 0 0-32.39 3.32z" class="cls-3"/><path d="M407.64 87.96h10.31v10.81h-10.31z" class="cls-3"/><path d="M407.64 93.92a14.43 14.43 0 0 0 10.31 0V88h-10.31z" class="cls-4"/><path d="M477.32 211l4.37 2.52-27.79 14.4a2.13 2.13 0 0 1-2.9-.92 2.13 2.13 0 0 1 .91-2.87z" class="cls-5"/><path d="M364.95 194.81h3.55l1.06 26.57h-5.67l1.06-26.57z" class="cls-13"/><path d="M358.15 196.19l3.43-.92 7.91 25.39-5.49 1.47-5.85-25.94z" class="cls-13"/><path d="M351.95 199.28l3.07-1.77 14.21 22.48-4.92 2.84-12.36-23.55z" class="cls-13"/><path d="M346.75 203.87l2.51-2.5 19.55 18.03-4.02 4.02-18.04-19.55z" class="cls-13"/><path d="M342.92 209.66l1.78-3.08 23.54 12.37-2.83 4.91-22.49-14.2z" class="cls-13"/><path d="M340.72 216.23l.92-3.42 25.94 5.85-1.46 5.48-25.4-7.91z" class="cls-13"/><path d="M340.3 223.15v-3.55l26.57-1.06v5.68l-26.57-1.07z" class="cls-13"/><path d="M341.68 229.95l-.92-3.43 25.39-7.9 1.47 5.48-25.94 5.85z" class="cls-13"/><path d="M344.77 236.16l-1.77-3.08 22.48-14.2 2.84 4.91-23.55 12.37z" class="cls-13"/><path d="M349.37 241.35l-2.51-2.51 18.03-19.54 4.02 4.01-19.54 18.04z" class="cls-13"/><path d="M355.15 245.18l-3.08-1.77 12.37-23.55 4.92 2.84-14.21 22.48z" class="cls-13"/><path d="M361.72 247.38l-3.42-.92 5.85-25.94 5.48 1.47-7.91 25.39z" class="cls-13"/><path d="M368.64 247.81h-3.54l-1.07-26.58h5.68l-1.07 26.58z" class="cls-13"/><path d="M375.44 246.43l-3.43.91-7.9-25.39 5.48-1.47 5.85 25.95z" class="cls-13"/><path d="M381.65 243.33l-3.08 1.78-14.2-22.48 4.91-2.84 12.37 23.54z" class="cls-13"/><path d="M386.84 238.74l-2.51 2.51-19.54-18.04 4.01-4.01 18.04 19.54z" class="cls-13"/><path d="M390.67 232.96l-1.77 3.07-23.55-12.37 2.84-4.91 22.48 14.21z" class="cls-13"/><path d="M392.87 226.38l-.92 3.43-25.94-5.85 1.47-5.49 25.39 7.91z" class="cls-13"/><path d="M393.3 219.46v3.55l-26.58 1.06v-5.67l26.58 1.06z" class="cls-13"/><path d="M391.92 212.66l.91 3.43-25.39 7.91-1.47-5.49 25.95-5.85z" class="cls-13"/><path d="M388.82 206.46l1.78 3.07-22.48 14.21-2.84-4.92 23.54-12.36z" class="cls-13"/><path d="M384.23 201.26l2.51 2.51-18.04 19.54-4.01-4.01 19.54-18.04z" class="cls-13"/><path d="M378.45 197.43l3.07 1.78-12.37 23.54-4.91-2.84 14.21-22.48z" class="cls-13"/><path d="M371.87 195.23l3.43.92-5.85 25.94-5.48-1.47 7.9-25.39z" class="cls-13"/><path d="M366.72 184a37.34 37.34 0 1 0 37.35 37.34A37.34 37.34 0 0 0 366.72 184zm0 63.11a25.77 25.77 0 1 1 25.78-25.77 25.77 25.77 0 0 1-25.78 25.79z" class="cls-9"/><path d="M366.72 185.9a35.46 35.46 0 1 0 35.46 35.46 35.46 35.46 0 0 0-35.46-35.46zm0 63a27.58 27.58 0 1 1 27.58-27.57 27.57 27.57 0 0 1-27.58 27.6z" class="cls-14"/><path d="M366.63 181.68h-7.29a6.34 6.34 0 0 0 6.34 6.34h.95a33.34 33.34 0 0 1 32.89 27.85 6.54 6.54 0 0 0 6.46 5.48h.33a39.69 39.69 0 0 0-39.68-39.67z" class="cls-5"/><path d="M366.63 181.68h-7.29a6.39 6.39 0 0 0 .19 1.52h5.66a39.68 39.68 0 0 1 39.64 38 7.23 7.23 0 0 0 1.15.1h.33a39.69 39.69 0 0 0-39.68-39.62z" class="cls-10"/><g class="cls-1"><path d="M373.19 221.36c0 .22-.51.41-.53.62s.43.51.39.72-.58.3-.65.5.32.59.23.79-.63.17-.74.35.19.64.06.82-.65 0-.79.19 0 .67-.11.81-.64-.1-.82 0-.08.66-.27.77-.61-.24-.81-.15-.22.63-.43.7-.54-.36-.75-.31-.35.57-.57.59-.46-.46-.68-.46-.46.48-.67.46-.36-.55-.57-.59-.55.38-.75.31-.24-.61-.43-.7-.62.26-.81.15-.1-.65-.27-.77-.66.12-.82 0 0-.65-.11-.81-.67 0-.8-.19.17-.63.06-.82-.64-.15-.73-.35.29-.58.23-.79-.61-.28-.65-.5.41-.5.39-.72-.53-.4-.53-.62.51-.41.53-.63-.44-.51-.39-.72.58-.29.65-.5-.32-.58-.23-.78.63-.17.74-.36-.19-.64-.07-.81.65 0 .8-.19-.05-.67.11-.82.64.11.82 0 .08-.66.27-.77.61.23.81.15.22-.63.43-.7.54.36.75.31.35-.57.57-.59.45.46.67.46.47-.48.68-.46.36.55.57.59.55-.38.75-.31.24.61.43.7.62-.26.81-.15.1.64.27.77.66-.12.82 0 0 .65.11.82.67 0 .8.19-.17.63-.07.81.65.16.74.36-.3.58-.23.78.6.29.65.5-.41.51-.39.72.53.41.53.63z" class="cls-2"/><circle cx="366.72" cy="221.36" r="4.65" class="cls-15"/><circle cx="366.72" cy="221.36" r="1.97" class="cls-2"/></g><g class="cls-1"><path d="M448.18 212.7h2.65v1.89h-2.65z" class="cls-15" transform="rotate(-1.23 448.2 213.05)"/><path d="M448.18 212.7h2.65v1.89h-2.65z" class="cls-15" transform="rotate(-1.23 448.2 213.05)"/></g><path d="M451.76 212.49a3.15 3.15 0 0 0 2.82 0 1.28 1.28 0 0 1 1.36.05 1.21 1.21 0 0 1 .36 1.57 1.24 1.24 0 0 1-1.57.53 3.12 3.12 0 0 0-2.67 0 1.45 1.45 0 0 1-1 .22 1.22 1.22 0 0 1-1-1.26 1.23 1.23 0 0 1 1.2-1.15 1.25 1.25 0 0 1 .5.04z" class="cls-2"/><path d="M455.21 212.91a.61.61 0 0 0-.6.62.61.61 0 0 0 1.22 0 .61.61 0 0 0-.62-.62zm-3.94.09a.61.61 0 1 0 0 1.21.62.62 0 0 0 .61-.62.61.61 0 0 0-.61-.59z" class="cls-15"/><path d="M444.28 212.65a3.15 3.15 0 0 0 2.82 0 1.27 1.27 0 0 1 1.35.05 1.21 1.21 0 0 1 .37 1.57 1.24 1.24 0 0 1-1.57.53 3.12 3.12 0 0 0-2.67 0 1.47 1.47 0 0 1-1 .22 1.22 1.22 0 0 1-1-1.26 1.23 1.23 0 0 1 1.2-1.15 1.29 1.29 0 0 1 .5.04z" class="cls-2"/><path d="M447.72 213.07a.62.62 0 0 0-.6.62.61.61 0 0 0 .63.59.6.6 0 0 0 .6-.61.62.62 0 0 0-.63-.6zm-3.94.09a.6.6 0 0 0-.6.62.61.61 0 0 0 .63.59.61.61 0 0 0 .6-.62.61.61 0 0 0-.63-.59z" class="cls-15"/><g class="cls-1"><path d="M440.7 212.86h2.65v1.89h-2.65z" class="cls-15" transform="rotate(-1.23 440.74 212.97)"/><path d="M440.7 212.86h2.65v1.89h-2.65z" class="cls-15" transform="rotate(-1.23 440.74 212.97)"/></g><path d="M444.28 212.65a3.15 3.15 0 0 0 2.82 0 1.27 1.27 0 0 1 1.35.05 1.21 1.21 0 0 1 .37 1.57 1.24 1.24 0 0 1-1.57.53 3.12 3.12 0 0 0-2.67 0 1.47 1.47 0 0 1-1 .22 1.22 1.22 0 0 1-1-1.26 1.23 1.23 0 0 1 1.2-1.15 1.29 1.29 0 0 1 .5.04z" class="cls-2"/><path d="M447.72 213.07a.62.62 0 0 0-.6.62.61.61 0 0 0 .63.59.6.6 0 0 0 .6-.61.62.62 0 0 0-.63-.6zm-3.94.09a.6.6 0 0 0-.6.62.61.61 0 0 0 .63.59.61.61 0 0 0 .6-.62.61.61 0 0 0-.63-.59z" class="cls-15"/><path d="M436.79 212.81a3.15 3.15 0 0 0 2.82 0 1.28 1.28 0 0 1 1.36 0 1.21 1.21 0 0 1 .36 1.57 1.24 1.24 0 0 1-1.57.53 3.12 3.12 0 0 0-2.67 0 1.45 1.45 0 0 1-1 .22 1.22 1.22 0 0 1-1-1.26 1.23 1.23 0 0 1 1.71-1.05z" class="cls-2"/><path d="M440.24 213.24a.6.6 0 0 0-.6.61.62.62 0 1 0 .6-.61zm-3.94.08a.61.61 0 1 0 0 1.21.61.61 0 1 0 0-1.21z" class="cls-15"/><g class="cls-1"><path d="M433.22 213.02h2.65v1.89h-2.65z" class="cls-15" transform="rotate(-1.23 433.28 213.35)"/><path d="M433.22 213.02h2.65v1.89h-2.65z" class="cls-15" transform="rotate(-1.23 433.28 213.35)"/></g><path d="M436.79 212.81a3.15 3.15 0 0 0 2.82 0 1.28 1.28 0 0 1 1.36 0 1.21 1.21 0 0 1 .36 1.57 1.24 1.24 0 0 1-1.57.53 3.12 3.12 0 0 0-2.67 0 1.45 1.45 0 0 1-1 .22 1.22 1.22 0 0 1-1-1.26 1.23 1.23 0 0 1 1.71-1.05z" class="cls-2"/><path d="M440.24 213.24a.6.6 0 0 0-.6.61.62.62 0 1 0 .6-.61zm-3.94.08a.61.61 0 1 0 0 1.21.61.61 0 1 0 0-1.21z" class="cls-15"/><path d="M429.31 213a3.15 3.15 0 0 0 2.82 0 1.27 1.27 0 0 1 1.35 0 1.21 1.21 0 0 1 .37 1.57 1.24 1.24 0 0 1-1.57.53 3.12 3.12 0 0 0-2.67-.05 1.47 1.47 0 0 1-1 .22 1.22 1.22 0 0 1-1-1.26 1.23 1.23 0 0 1 1.2-1.15 1.25 1.25 0 0 1 .5.14z" class="cls-2"/><path d="M432.76 213.4a.6.6 0 1 0 .62.59.6.6 0 0 0-.62-.59zm-3.94.08a.62.62 0 0 0-.61.62.61.61 0 0 0 .63.59.61.61 0 0 0 .6-.62.6.6 0 0 0-.62-.59z" class="cls-15"/><g class="cls-1"><path d="M425.73 213.18h2.65v1.89h-2.65z" class="cls-15" transform="rotate(-1.23 425.83 213.27)"/><path d="M425.73 213.18h2.65v1.89h-2.65z" class="cls-15" transform="rotate(-1.23 425.83 213.27)"/></g><path d="M429.31 213a3.15 3.15 0 0 0 2.82 0 1.27 1.27 0 0 1 1.35 0 1.21 1.21 0 0 1 .37 1.57 1.24 1.24 0 0 1-1.57.53 3.12 3.12 0 0 0-2.67-.05 1.47 1.47 0 0 1-1 .22 1.22 1.22 0 0 1-1-1.26 1.23 1.23 0 0 1 1.2-1.15 1.25 1.25 0 0 1 .5.14z" class="cls-2"/><path d="M432.76 213.4a.6.6 0 1 0 .62.59.6.6 0 0 0-.62-.59zm-3.94.08a.62.62 0 0 0-.61.62.61.61 0 0 0 .63.59.61.61 0 0 0 .6-.62.6.6 0 0 0-.62-.59z" class="cls-15"/><path d="M421.83 213.13a3.12 3.12 0 0 0 2.81 0 1.28 1.28 0 0 1 1.36 0 1.21 1.21 0 0 1 .37 1.57 1.24 1.24 0 0 1-1.57.53 3.14 3.14 0 0 0-2.68-.05 1.45 1.45 0 0 1-1 .22 1.21 1.21 0 0 1 .17-2.41 1.29 1.29 0 0 1 .54.14z" class="cls-2"/><path d="M425.27 213.56a.6.6 0 0 0-.6.61.62.62 0 0 0 .63.6.61.61 0 1 0 0-1.21zm-3.94.08a.61.61 0 0 0-.6.62.61.61 0 0 0 .63.59.61.61 0 0 0 .6-.62.61.61 0 0 0-.63-.59z" class="cls-15"/><g class="cls-1"><path d="M418.25 213.34h2.65v1.89h-2.65z" class="cls-15" transform="rotate(-1.23 418.37 213.66)"/><path d="M418.25 213.34h2.65v1.89h-2.65z" class="cls-15" transform="rotate(-1.23 418.37 213.66)"/></g><path d="M421.83 213.13a3.12 3.12 0 0 0 2.81 0 1.28 1.28 0 0 1 1.36 0 1.21 1.21 0 0 1 .37 1.57 1.24 1.24 0 0 1-1.57.53 3.14 3.14 0 0 0-2.68-.05 1.45 1.45 0 0 1-1 .22 1.21 1.21 0 0 1 .17-2.41 1.29 1.29 0 0 1 .54.14z" class="cls-2"/><path d="M425.27 213.56a.6.6 0 0 0-.6.61.62.62 0 0 0 .63.6.61.61 0 1 0 0-1.21zm-3.94.08a.61.61 0 0 0-.6.62.61.61 0 0 0 .63.59.61.61 0 0 0 .6-.62.61.61 0 0 0-.63-.59z" class="cls-15"/><path d="M414.34 213.29a3.15 3.15 0 0 0 2.82 0 1.28 1.28 0 0 1 1.36.05 1.21 1.21 0 0 1 .36 1.57 1.24 1.24 0 0 1-1.57.53 3.12 3.12 0 0 0-2.67-.05 1.45 1.45 0 0 1-1 .22 1.22 1.22 0 0 1-1-1.26 1.23 1.23 0 0 1 1.2-1.15 1.25 1.25 0 0 1 .5.09z" class="cls-2"/><path d="M417.79 213.72a.6.6 0 0 0-.6.61.61.61 0 0 0 .62.6.63.63 0 0 0 .61-.62.61.61 0 0 0-.63-.59zm-3.94.08a.62.62 0 0 0-.61.62.61.61 0 0 0 .63.59.62.62 0 0 0 .61-.62.61.61 0 0 0-.63-.59z" class="cls-15"/><g class="cls-1"><path d="M410.76 213.5h2.65v1.89h-2.65z" class="cls-15" transform="rotate(-1.23 410.92 213.58)"/><path d="M410.76 213.5h2.65v1.89h-2.65z" class="cls-15" transform="rotate(-1.23 410.92 213.58)"/></g><path d="M414.34 213.29a3.15 3.15 0 0 0 2.82 0 1.28 1.28 0 0 1 1.36.05 1.21 1.21 0 0 1 .36 1.57 1.24 1.24 0 0 1-1.57.53 3.12 3.12 0 0 0-2.67-.05 1.45 1.45 0 0 1-1 .22 1.22 1.22 0 0 1-1-1.26 1.23 1.23 0 0 1 1.2-1.15 1.25 1.25 0 0 1 .5.09z" class="cls-2"/><path d="M417.79 213.72a.6.6 0 0 0-.6.61.61.61 0 0 0 .62.6.63.63 0 0 0 .61-.62.61.61 0 0 0-.63-.59zm-3.94.08a.62.62 0 0 0-.61.62.61.61 0 0 0 .63.59.62.62 0 0 0 .61-.62.61.61 0 0 0-.63-.59z" class="cls-15"/><path d="M406.86 213.45a3.15 3.15 0 0 0 2.82 0 1.27 1.27 0 0 1 1.35.05 1.21 1.21 0 0 1 .37 1.57 1.24 1.24 0 0 1-1.57.53 3.12 3.12 0 0 0-2.67-.05 1.47 1.47 0 0 1-1 .22 1.22 1.22 0 0 1-1-1.26 1.23 1.23 0 0 1 1.2-1.15 1.29 1.29 0 0 1 .5.09z" class="cls-2"/><path d="M410.3 213.88a.61.61 0 0 0-.6.61.62.62 0 0 0 .63.6.61.61 0 1 0 0-1.21zm-3.94.12a.61.61 0 0 0-.6.62.61.61 0 0 0 .63.59.61.61 0 0 0 .6-.62.61.61 0 0 0-.63-.59z" class="cls-15"/><g class="cls-1"><path d="M403.28 213.66h2.65v1.89h-2.65z" class="cls-15" transform="rotate(-1.23 403.46 213.97)"/><path d="M403.28 213.66h2.65v1.89h-2.65z" class="cls-15" transform="rotate(-1.23 403.46 213.97)"/></g><path d="M406.86 213.45a3.15 3.15 0 0 0 2.82 0 1.27 1.27 0 0 1 1.35.05 1.21 1.21 0 0 1 .37 1.57 1.24 1.24 0 0 1-1.57.53 3.12 3.12 0 0 0-2.67-.05 1.47 1.47 0 0 1-1 .22 1.22 1.22 0 0 1-1-1.26 1.23 1.23 0 0 1 1.2-1.15 1.29 1.29 0 0 1 .5.09z" class="cls-2"/><path d="M410.3 213.88a.61.61 0 0 0-.6.61.62.62 0 0 0 .63.6.61.61 0 1 0 0-1.21zm-3.94.12a.61.61 0 0 0-.6.62.61.61 0 0 0 .63.59.61.61 0 0 0 .6-.62.61.61 0 0 0-.63-.59z" class="cls-15"/><path d="M399.37 213.61a3.15 3.15 0 0 0 2.82 0 1.28 1.28 0 0 1 1.36.05 1.21 1.21 0 0 1 .36 1.57 1.24 1.24 0 0 1-1.57.53 3.12 3.12 0 0 0-2.67-.05 1.45 1.45 0 0 1-1 .22 1.22 1.22 0 0 1-1-1.26 1.23 1.23 0 0 1 1.71-1z" class="cls-2"/><path d="M402.82 214a.6.6 0 0 0-.6.61.62.62 0 0 0 1.23 0 .61.61 0 0 0-.63-.61zm-3.94.12a.61.61 0 1 0 .63.59.61.61 0 0 0-.63-.59z" class="cls-15"/><g class="cls-1"><path d="M395.8 213.82h2.65v1.89h-2.65z" class="cls-15" transform="rotate(-1.23 396.01 213.89)"/><path d="M395.8 213.82h2.65v1.89h-2.65z" class="cls-15" transform="rotate(-1.23 396.01 213.89)"/></g><path d="M399.37 213.61a3.15 3.15 0 0 0 2.82 0 1.28 1.28 0 0 1 1.36.05 1.21 1.21 0 0 1 .36 1.57 1.24 1.24 0 0 1-1.57.53 3.12 3.12 0 0 0-2.67-.05 1.45 1.45 0 0 1-1 .22 1.22 1.22 0 0 1-1-1.26 1.23 1.23 0 0 1 1.71-1z" class="cls-2"/><path d="M402.82 214a.6.6 0 0 0-.6.61.62.62 0 0 0 1.23 0 .61.61 0 0 0-.63-.61zm-3.94.12a.61.61 0 1 0 .63.59.61.61 0 0 0-.63-.59z" class="cls-15"/><path d="M391.89 213.77a3.15 3.15 0 0 0 2.82 0 1.27 1.27 0 0 1 1.35.05 1.21 1.21 0 0 1 .37 1.57 1.24 1.24 0 0 1-1.57.53 3.12 3.12 0 0 0-2.67 0 1.46 1.46 0 0 1-1 .22 1.22 1.22 0 0 1-1-1.26 1.23 1.23 0 0 1 1.2-1.15 1.25 1.25 0 0 1 .5.04z" class="cls-2"/><path d="M395.34 214.2a.6.6 0 0 0-.6.61.61.61 0 1 0 1.22 0 .59.59 0 0 0-.62-.61zm-3.94.08a.62.62 0 0 0-.61.62.61.61 0 0 0 .63.59.61.61 0 0 0 .6-.62.6.6 0 0 0-.62-.59z" class="cls-15"/><g class="cls-1"><path d="M388.31 213.98h2.65v1.89h-2.65z" class="cls-15" transform="rotate(-1.23 388.55 214.27)"/><path d="M388.31 213.98h2.65v1.89h-2.65z" class="cls-15" transform="rotate(-1.23 388.55 214.27)"/></g><path d="M391.89 213.77a3.15 3.15 0 0 0 2.82 0 1.27 1.27 0 0 1 1.35.05 1.21 1.21 0 0 1 .37 1.57 1.24 1.24 0 0 1-1.57.53 3.12 3.12 0 0 0-2.67 0 1.46 1.46 0 0 1-1 .22 1.22 1.22 0 0 1-1-1.26 1.23 1.23 0 0 1 1.2-1.15 1.25 1.25 0 0 1 .5.04z" class="cls-2"/><path d="M395.34 214.2a.6.6 0 0 0-.6.61.61.61 0 1 0 1.22 0 .59.59 0 0 0-.62-.61zm-3.94.08a.62.62 0 0 0-.61.62.61.61 0 0 0 .63.59.61.61 0 0 0 .6-.62.6.6 0 0 0-.62-.59z" class="cls-15"/><path d="M384.41 213.93a3.12 3.12 0 0 0 2.81 0 1.28 1.28 0 0 1 1.36.05 1.21 1.21 0 0 1 .37 1.57 1.24 1.24 0 0 1-1.57.53 3.14 3.14 0 0 0-2.68 0 1.45 1.45 0 0 1-1 .22 1.21 1.21 0 0 1 .17-2.41 1.29 1.29 0 0 1 .54.04z" class="cls-2"/><path d="M387.85 214.36a.6.6 0 0 0-.6.61.62.62 0 0 0 .63.6.61.61 0 1 0 0-1.21zm-3.94.08a.61.61 0 0 0-.6.62.61.61 0 0 0 .63.59.61.61 0 0 0 .6-.62.61.61 0 0 0-.63-.59z" class="cls-15"/><g class="cls-1"><path d="M380.83 214.14h2.65v1.89h-2.65z" class="cls-15" transform="rotate(-1.23 381.1 214.2)"/><path d="M380.83 214.14h2.65v1.89h-2.65z" class="cls-15" transform="rotate(-1.23 381.1 214.2)"/></g><path d="M384.41 213.93a3.12 3.12 0 0 0 2.81 0 1.28 1.28 0 0 1 1.36.05 1.21 1.21 0 0 1 .37 1.57 1.24 1.24 0 0 1-1.57.53 3.14 3.14 0 0 0-2.68 0 1.45 1.45 0 0 1-1 .22 1.21 1.21 0 0 1 .17-2.41 1.29 1.29 0 0 1 .54.04z" class="cls-2"/><path d="M387.85 214.36a.6.6 0 0 0-.6.61.62.62 0 0 0 .63.6.61.61 0 1 0 0-1.21zm-3.94.08a.61.61 0 0 0-.6.62.61.61 0 0 0 .63.59.61.61 0 0 0 .6-.62.61.61 0 0 0-.63-.59z" class="cls-15"/><path d="M376.92 214.09a3.15 3.15 0 0 0 2.82 0 1.28 1.28 0 0 1 1.36 0 1.21 1.21 0 0 1 .36 1.57 1.24 1.24 0 0 1-1.57.53 3.12 3.12 0 0 0-2.67 0 1.45 1.45 0 0 1-1 .22 1.22 1.22 0 0 1-1-1.26 1.23 1.23 0 0 1 1.2-1.15 1.25 1.25 0 0 1 .5.09z" class="cls-2"/><path d="M380.37 214.52a.6.6 0 0 0-.6.61.61.61 0 0 0 .62.6.63.63 0 0 0 .61-.62.61.61 0 0 0-.63-.59zm-3.94.08a.61.61 0 0 0-.6.62.6.6 0 0 0 .62.59.62.62 0 0 0 .61-.62.61.61 0 0 0-.63-.59z" class="cls-15"/><g class="cls-1"><path d="M373.34 214.3h2.65v1.89h-2.65z" class="cls-15" transform="rotate(-1.23 373.64 214.58)"/><path d="M373.34 214.3h2.65v1.89h-2.65z" class="cls-15" transform="rotate(-1.23 373.64 214.58)"/></g><path d="M376.92 214.09a3.15 3.15 0 0 0 2.82 0 1.28 1.28 0 0 1 1.36 0 1.21 1.21 0 0 1 .36 1.57 1.24 1.24 0 0 1-1.57.53 3.12 3.12 0 0 0-2.67 0 1.45 1.45 0 0 1-1 .22 1.22 1.22 0 0 1-1-1.26 1.23 1.23 0 0 1 1.2-1.15 1.25 1.25 0 0 1 .5.09z" class="cls-2"/><path d="M380.37 214.52a.6.6 0 0 0-.6.61.61.61 0 0 0 .62.6.63.63 0 0 0 .61-.62.61.61 0 0 0-.63-.59zm-3.94.08a.61.61 0 0 0-.6.62.6.6 0 0 0 .62.59.62.62 0 0 0 .61-.62.61.61 0 0 0-.63-.59z" class="cls-15"/><path d="M369.44 214.25a3.15 3.15 0 0 0 2.82 0 1.27 1.27 0 0 1 1.35 0 1.21 1.21 0 0 1 .37 1.57 1.24 1.24 0 0 1-1.57.53 3.12 3.12 0 0 0-2.67 0 1.47 1.47 0 0 1-1 .22 1.22 1.22 0 0 1-1-1.26 1.23 1.23 0 0 1 1.2-1.15 1.29 1.29 0 0 1 .5.09z" class="cls-2"/><path d="M372.88 214.68a.61.61 0 0 0-.6.61.62.62 0 0 0 .63.6.61.61 0 1 0 0-1.21zm-3.94.08a.61.61 0 0 0-.6.62.61.61 0 0 0 .63.59.61.61 0 1 0 0-1.21z" class="cls-15"/><g class="cls-1"><path d="M365.74 214.55c1.07-.13 1.87-.08 2.77-.12v1.89c-.86 0-1.83 0-2.52.1z" class="cls-15"/><path d="M365.74 214.55c1.07-.13 1.87-.08 2.77-.12v1.89c-.86 0-1.83 0-2.52.1z" class="cls-15"/></g><path d="M369.46 214.25a3.15 3.15 0 0 0 2.82 0 1.28 1.28 0 0 1 1.36 0 1.21 1.21 0 0 1 .34 1.57 1.24 1.24 0 0 1-1.57.53 3.12 3.12 0 0 0-2.67 0 1.47 1.47 0 0 1-1 .22 1.21 1.21 0 0 1-1-1.26 1.24 1.24 0 0 1 1.72-1.05z" class="cls-2"/><path d="M372.9 214.68a.61.61 0 1 0 0 1.21.61.61 0 0 0 .6-.62.59.59 0 0 0-.6-.59zm-3.9.08a.62.62 0 0 0-.61.62.61.61 0 0 0 .63.59.62.62 0 0 0 .61-.62.61.61 0 0 0-.63-.59z" class="cls-15"/><path d="M361.69 216.43a10 10 0 0 0 2.82-1.7 1.41 1.41 0 0 1 1.56-.26 1.14 1.14 0 0 1 .45 1.56 1.13 1.13 0 0 1-1.25.71 1.65 1.65 0 0 0-1.94 1 1.26 1.26 0 0 1-.38.73 1.41 1.41 0 0 1-1.57.08 1.16 1.16 0 0 1-.18-1.75 1.38 1.38 0 0 1 .49-.37z" class="cls-2"/><path d="M365.31 215a.58.58 0 0 0-.46.75.61.61 0 0 0 1.19-.26.58.58 0 0 0-.73-.49zm-3.64 2.19a.6.6 0 0 0 .1.89.66.66 0 0 0 .84-.11.65.65 0 0 0-.06-.85.59.59 0 0 0-.88.07z" class="cls-15"/><g class="cls-1"><path d="M359.94 220.21a6.91 6.91 0 0 1 1.15-2.82l1.55 1.09a4.94 4.94 0 0 0-.84 2z" class="cls-15"/><path d="M359.94 220.21a6.91 6.91 0 0 1 1.15-2.82l1.55 1.09a4.94 4.94 0 0 0-.84 2z" class="cls-15"/></g><path d="M361.69 216.43a10 10 0 0 0 2.82-1.7 1.41 1.41 0 0 1 1.56-.26 1.14 1.14 0 0 1 .45 1.56 1.13 1.13 0 0 1-1.25.71 1.65 1.65 0 0 0-1.94 1 1.26 1.26 0 0 1-.38.73 1.41 1.41 0 0 1-1.57.08 1.16 1.16 0 0 1-.18-1.75 1.38 1.38 0 0 1 .49-.37z" class="cls-2"/><path d="M365.31 215a.58.58 0 0 0-.46.75.61.61 0 0 0 1.19-.26.58.58 0 0 0-.73-.49zm-3.64 2.19a.6.6 0 0 0 .1.89.66.66 0 0 0 .84-.11.65.65 0 0 0-.06-.85.59.59 0 0 0-.88.07z" class="cls-15"/><path d="M360.52 224.65a10.42 10.42 0 0 0-.79-3.21 1.43 1.43 0 0 1 .24-1.57 1.14 1.14 0 0 1 1.62 0 1.15 1.15 0 0 1 .3 1.41 1.61 1.61 0 0 0 .37 2.14 1.28 1.28 0 0 1 .59.58 1.44 1.44 0 0 1-.4 1.53 1.16 1.16 0 0 1-1.72-.36 1.36 1.36 0 0 1-.21-.52z" class="cls-2"/><path d="M360.21 220.75a.58.58 0 0 0 .58.67.64.64 0 0 0 .62-.56.63.63 0 0 0-.51-.66.58.58 0 0 0-.69.55zm1.03 4.14a.59.59 0 0 0 .87.17.65.65 0 0 0 .15-.83.63.63 0 0 0-.82-.2.58.58 0 0 0-.2.86z" class="cls-15"/><g class="cls-1"><path d="M363.58 227.45a7.05 7.05 0 0 1-2.32-1.95l1.5-1.15a5 5 0 0 0 1.7 1.43z" class="cls-15"/><path d="M363.58 227.45a7.05 7.05 0 0 1-2.32-1.95l1.5-1.15a5 5 0 0 0 1.7 1.43z" class="cls-15"/></g><path d="M360.52 224.65a10.42 10.42 0 0 0-.79-3.21 1.43 1.43 0 0 1 .24-1.57 1.14 1.14 0 0 1 1.62 0 1.15 1.15 0 0 1 .3 1.41 1.61 1.61 0 0 0 .37 2.14 1.28 1.28 0 0 1 .59.58 1.44 1.44 0 0 1-.4 1.53 1.16 1.16 0 0 1-1.72-.36 1.36 1.36 0 0 1-.21-.52z" class="cls-2"/><path d="M360.21 220.75a.58.58 0 0 0 .58.67.64.64 0 0 0 .62-.56.63.63 0 0 0-.51-.66.58.58 0 0 0-.69.55zm1.03 4.14a.59.59 0 0 0 .87.17.65.65 0 0 0 .15-.83.63.63 0 0 0-.82-.2.58.58 0 0 0-.2.86z" class="cls-15"/><path d="M367 228.55a.47.47 0 0 0-.14-.37c-.11-.09-.18-.12-.52-.16a9.2 9.2 0 0 0-1.66 0 1.42 1.42 0 0 1-1.41-.72 1.12 1.12 0 0 1 .55-1.51 1.13 1.13 0 0 1 1.43.15 1.89 1.89 0 0 0 .45.39 2.44 2.44 0 0 0 .56.17 3.64 3.64 0 0 0 .73 0 4.43 4.43 0 0 1 1 .16 1.67 1.67 0 0 1 1.21 1 1.24 1.24 0 0 1-.1 1.22 1 1 0 0 1-.82.32 2.4 2.4 0 0 1-.82-.25c-.22-.09-.37-.13-.42-.21a.38.38 0 0 1-.04-.19z" class="cls-2"/><path d="M364.18 227.37a.59.59 0 0 0 .82-.37.61.61 0 0 0-1.12-.49.59.59 0 0 0 .3.86zm3.37 1.04a.75.75 0 0 0 .75.2.61.61 0 1 0-.69-1 .76.76 0 0 0-.06.8z" class="cls-15"/><g class="cls-1"><path d="M367.53 231.13l-.06-1.32v-.67a1 1 0 0 0-.07-.35l1.76-.68a2.86 2.86 0 0 1 .19.95v.66l.07 1.32z" class="cls-15"/><path d="M367.53 231.13l-.06-1.32v-.67a1 1 0 0 0-.07-.35l1.76-.68a2.86 2.86 0 0 1 .19.95v.66l.07 1.32z" class="cls-15"/></g><path d="M367 228.55a.47.47 0 0 0-.14-.37c-.11-.09-.18-.12-.52-.16a9.2 9.2 0 0 0-1.66 0 1.42 1.42 0 0 1-1.41-.72 1.12 1.12 0 0 1 .55-1.51 1.13 1.13 0 0 1 1.43.15 1.89 1.89 0 0 0 .45.39 2.44 2.44 0 0 0 .56.17 3.64 3.64 0 0 0 .73 0 4.43 4.43 0 0 1 1 .16 1.67 1.67 0 0 1 1.21 1 1.24 1.24 0 0 1-.1 1.22 1 1 0 0 1-.82.32 2.4 2.4 0 0 1-.82-.25c-.22-.09-.37-.13-.42-.21a.38.38 0 0 1-.04-.19z" class="cls-2"/><path d="M364.18 227.37a.59.59 0 0 0 .82-.37.61.61 0 0 0-1.12-.49.59.59 0 0 0 .3.86zm3.37 1.04a.75.75 0 0 0 .75.2.61.61 0 1 0-.69-1 .76.76 0 0 0-.06.8z" class="cls-15"/><path d="M367.79 235.41a4.42 4.42 0 0 1 0-1.09 2.92 2.92 0 0 0 .06-.72 3 3 0 0 0-.37-1.4 1.26 1.26 0 0 1 0-1.36 1.21 1.21 0 0 1 1.56-.41 1.26 1.26 0 0 1 .57 1.56 2.94 2.94 0 0 0-.29 1.34c0 .42.09 1 .31 1.09s.33.06.36.18a4.27 4.27 0 0 1 .08.55 2.43 2.43 0 0 1 0 .86.81.81 0 0 1-.67.65 1.41 1.41 0 0 1-1.28-.49 1.48 1.48 0 0 1-.33-.76z" class="cls-2"/><path d="M367.89 231.56a.6.6 0 0 0 .63.58.61.61 0 0 0 .58-.64.61.61 0 0 0-.64-.58.6.6 0 0 0-.57.64zm.73 4.2a.55.55 0 0 0 .93 0 .78.78 0 0 0 0-.78.8.8 0 0 0-.78-.11.55.55 0 0 0-.15.89z" class="cls-15"/><g class="cls-1"><path d="M372 236.94l-1.32-.05a5.86 5.86 0 0 1-.8-.07 2.53 2.53 0 0 1-.95-.38l1-1.58c.21.11.25.12.8.14l1.32.06z" class="cls-15"/><path d="M372 236.94l-1.32-.05a5.86 5.86 0 0 1-.8-.07 2.53 2.53 0 0 1-.95-.38l1-1.58c.21.11.25.12.8.14l1.32.06z" class="cls-15"/></g><path d="M367.79 235.41a4.42 4.42 0 0 1 0-1.09 2.92 2.92 0 0 0 .06-.72 3 3 0 0 0-.37-1.4 1.26 1.26 0 0 1 0-1.36 1.21 1.21 0 0 1 1.56-.41 1.26 1.26 0 0 1 .57 1.56 2.94 2.94 0 0 0-.29 1.34c0 .42.09 1 .31 1.09s.33.06.36.18a4.27 4.27 0 0 1 .08.55 2.43 2.43 0 0 1 0 .86.81.81 0 0 1-.67.65 1.41 1.41 0 0 1-1.28-.49 1.48 1.48 0 0 1-.33-.76z" class="cls-2"/><path d="M367.89 231.56a.6.6 0 0 0 .63.58.61.61 0 0 0 .58-.64.61.61 0 0 0-.64-.58.6.6 0 0 0-.57.64zm.73 4.2a.55.55 0 0 0 .93 0 .78.78 0 0 0 0-.78.8.8 0 0 0-.78-.11.55.55 0 0 0-.15.89z" class="cls-15"/><path d="M375.83 237.27a3.16 3.16 0 0 0-2.81-.17 1.27 1.27 0 0 1-1.35-.14 1.21 1.21 0 0 1-.27-1.59 1.26 1.26 0 0 1 1.61-.43 3.14 3.14 0 0 0 2.66.23 1.46 1.46 0 0 1 1-.16 1.21 1.21 0 0 1-.32 2.39 1.13 1.13 0 0 1-.52-.13z" class="cls-2"/><path d="M372.42 236.62a.6.6 0 1 0-.59-.63.61.61 0 0 0 .59.63zm3.94.18a.62.62 0 0 0 .64-.58.62.62 0 1 0-.64.58z" class="cls-15"/><g class="cls-1"><path d="M377.21 234.95h1.89v2.65h-1.89z" class="cls-15" transform="rotate(-87.5 378.15 236.27)"/><path d="M377.21 234.95h1.89v2.65h-1.89z" class="cls-15" transform="rotate(-87.5 378.15 236.27)"/></g><path d="M375.83 237.27a3.16 3.16 0 0 0-2.81-.17 1.27 1.27 0 0 1-1.35-.14 1.21 1.21 0 0 1-.27-1.59 1.26 1.26 0 0 1 1.61-.43 3.14 3.14 0 0 0 2.66.23 1.46 1.46 0 0 1 1-.16 1.21 1.21 0 0 1-.32 2.39 1.13 1.13 0 0 1-.52-.13z" class="cls-2"/><path d="M372.42 236.62a.6.6 0 1 0-.59-.63.61.61 0 0 0 .59.63zm3.94.18a.62.62 0 0 0 .64-.58.62.62 0 1 0-.64.58z" class="cls-15"/><path d="M383.31 237.6a3.16 3.16 0 0 0-2.81-.18 1.27 1.27 0 0 1-1.35-.13 1.21 1.21 0 0 1-.27-1.59 1.25 1.25 0 0 1 1.6-.43 3.17 3.17 0 0 0 2.67.23 1.4 1.4 0 0 1 1-.16 1.21 1.21 0 0 1-.32 2.39 1.24 1.24 0 0 1-.52-.13z" class="cls-2"/><path d="M379.9 237a.61.61 0 0 0 .64-.58.62.62 0 0 0-1.23-.05.61.61 0 0 0 .59.63zm3.93.12a.61.61 0 0 0 .65-.57.62.62 0 0 0-.59-.64.61.61 0 0 0-.64.58.6.6 0 0 0 .58.63z" class="cls-15"/><g class="cls-1"><path d="M384.69 235.27h1.89v2.65h-1.89z" class="cls-15" transform="rotate(-87.5 385.63 236.6)"/><path d="M384.69 235.27h1.89v2.65h-1.89z" class="cls-15" transform="rotate(-87.5 385.63 236.6)"/></g><path d="M383.31 237.6a3.16 3.16 0 0 0-2.81-.18 1.27 1.27 0 0 1-1.35-.13 1.21 1.21 0 0 1-.27-1.59 1.25 1.25 0 0 1 1.6-.43 3.17 3.17 0 0 0 2.67.23 1.4 1.4 0 0 1 1-.16 1.21 1.21 0 0 1-.32 2.39 1.24 1.24 0 0 1-.52-.13z" class="cls-2"/><path d="M379.9 237a.61.61 0 0 0 .64-.58.62.62 0 0 0-1.23-.05.61.61 0 0 0 .59.63zm3.93.12a.61.61 0 0 0 .65-.57.62.62 0 0 0-.59-.64.61.61 0 0 0-.64.58.6.6 0 0 0 .58.63z" class="cls-15"/><path d="M390.79 237.93a3.15 3.15 0 0 0-2.82-.18 1.25 1.25 0 0 1-1.35-.14 1.22 1.22 0 0 1-.26-1.59 1.25 1.25 0 0 1 1.6-.43 3.13 3.13 0 0 0 2.67.23 1.51 1.51 0 0 1 1-.16 1.22 1.22 0 0 1 .95 1.33 1.23 1.23 0 0 1-1.27 1.07 1.2 1.2 0 0 1-.52-.13z" class="cls-2"/><path d="M387.38 237.28a.63.63 0 0 0 .64-.58.61.61 0 0 0-.59-.63.6.6 0 0 0-.64.58.61.61 0 0 0 .59.63zm3.93.17a.61.61 0 1 0-.59-.63.62.62 0 0 0 .59.63z" class="cls-15"/><g class="cls-1"><path d="M392.17 235.6h1.89v2.65h-1.89z" class="cls-15" transform="rotate(-87.5 393.11 236.92)"/><path d="M392.17 235.6h1.89v2.65h-1.89z" class="cls-15" transform="rotate(-87.5 393.11 236.92)"/></g><path d="M390.79 237.93a3.15 3.15 0 0 0-2.82-.18 1.25 1.25 0 0 1-1.35-.14 1.22 1.22 0 0 1-.26-1.59 1.25 1.25 0 0 1 1.6-.43 3.13 3.13 0 0 0 2.67.23 1.51 1.51 0 0 1 1-.16 1.22 1.22 0 0 1 .95 1.33 1.23 1.23 0 0 1-1.27 1.07 1.2 1.2 0 0 1-.52-.13z" class="cls-2"/><path d="M387.38 237.28a.63.63 0 0 0 .64-.58.61.61 0 0 0-.59-.63.6.6 0 0 0-.64.58.61.61 0 0 0 .59.63zm3.93.17a.61.61 0 1 0-.59-.63.62.62 0 0 0 .59.63z" class="cls-15"/><path d="M398.27 238.25a3.18 3.18 0 0 0-2.82-.17 1.27 1.27 0 0 1-1.35-.14 1.22 1.22 0 0 1-.26-1.59 1.25 1.25 0 0 1 1.6-.43 3.14 3.14 0 0 0 2.66.23 1.49 1.49 0 0 1 1-.16 1.21 1.21 0 0 1-.32 2.39 1.06 1.06 0 0 1-.51-.13z" class="cls-2"/><path d="M394.85 237.6a.6.6 0 0 0 .64-.57.59.59 0 0 0-.58-.63.6.6 0 1 0-.06 1.2zm3.94.18a.61.61 0 0 0 .64-.58.62.62 0 0 0-1.23-.06.62.62 0 0 0 .59.64z" class="cls-15"/><g class="cls-1"><path d="M399.65 235.93h1.89v2.65h-1.89z" class="cls-15" transform="rotate(-87.5 400.59 237.25)"/><path d="M399.65 235.93h1.89v2.65h-1.89z" class="cls-15" transform="rotate(-87.5 400.59 237.25)"/></g><path d="M398.27 238.25a3.18 3.18 0 0 0-2.82-.17 1.27 1.27 0 0 1-1.35-.14 1.22 1.22 0 0 1-.26-1.59 1.25 1.25 0 0 1 1.6-.43 3.14 3.14 0 0 0 2.66.23 1.49 1.49 0 0 1 1-.16 1.21 1.21 0 0 1-.32 2.39 1.06 1.06 0 0 1-.51-.13z" class="cls-2"/><path d="M394.85 237.6a.6.6 0 0 0 .64-.57.59.59 0 0 0-.58-.63.6.6 0 1 0-.06 1.2zm3.94.18a.61.61 0 0 0 .64-.58.62.62 0 0 0-1.23-.06.62.62 0 0 0 .59.64z" class="cls-15"/><path d="M405.74 238.58a3.16 3.16 0 0 0-2.81-.18 1.25 1.25 0 0 1-1.35-.14 1.19 1.19 0 0 1-.26-1.58 1.25 1.25 0 0 1 1.6-.43 3.14 3.14 0 0 0 2.66.23 1.49 1.49 0 0 1 1-.17 1.21 1.21 0 0 1-.33 2.4 1.28 1.28 0 0 1-.51-.13z" class="cls-2"/><path d="M402.33 237.93a.6.6 0 0 0 .64-.58.61.61 0 0 0-1.22 0 .6.6 0 0 0 .58.58zm3.94.17a.6.6 0 0 0 .64-.57.62.62 0 0 0-1.23-.06.61.61 0 0 0 .59.63z" class="cls-15"/><g class="cls-1"><path d="M407.12 236.25h1.89v2.65h-1.89z" class="cls-15" transform="rotate(-87.5 408.07 237.57)"/><path d="M407.12 236.25h1.89v2.65h-1.89z" class="cls-15" transform="rotate(-87.5 408.07 237.57)"/></g><path d="M405.74 238.58a3.16 3.16 0 0 0-2.81-.18 1.25 1.25 0 0 1-1.35-.14 1.19 1.19 0 0 1-.26-1.58 1.25 1.25 0 0 1 1.6-.43 3.14 3.14 0 0 0 2.66.23 1.49 1.49 0 0 1 1-.17 1.21 1.21 0 0 1-.33 2.4 1.28 1.28 0 0 1-.51-.13z" class="cls-2"/><path d="M402.33 237.93a.6.6 0 0 0 .64-.58.61.61 0 0 0-1.22 0 .6.6 0 0 0 .58.58zm3.94.17a.6.6 0 0 0 .64-.57.62.62 0 0 0-1.23-.06.61.61 0 0 0 .59.63z" class="cls-15"/><path d="M413.22 238.91a3.13 3.13 0 0 0-2.81-.18 1.25 1.25 0 0 1-1.35-.14 1.2 1.2 0 0 1-.26-1.59 1.25 1.25 0 0 1 1.6-.43 3.11 3.11 0 0 0 2.66.23 1.54 1.54 0 0 1 1-.16A1.22 1.22 0 0 1 415 238a1.24 1.24 0 0 1-1.28 1.07 1.28 1.28 0 0 1-.5-.16z" class="cls-2"/><path d="M409.81 238.26a.61.61 0 0 0 .64-.58.62.62 0 0 0-1.23-.05.62.62 0 0 0 .59.63zm3.94.17a.61.61 0 1 0-.59-.63.61.61 0 0 0 .59.63z" class="cls-15"/><g class="cls-1"><path d="M414.6 236.58h1.89v2.65h-1.89z" class="cls-15" transform="rotate(-87.5 415.55 237.9)"/><path d="M414.6 236.58h1.89v2.65h-1.89z" class="cls-15" transform="rotate(-87.5 415.55 237.9)"/></g><path d="M413.22 238.91a3.13 3.13 0 0 0-2.81-.18 1.25 1.25 0 0 1-1.35-.14 1.2 1.2 0 0 1-.26-1.59 1.25 1.25 0 0 1 1.6-.43 3.11 3.11 0 0 0 2.66.23 1.54 1.54 0 0 1 1-.16A1.22 1.22 0 0 1 415 238a1.24 1.24 0 0 1-1.28 1.07 1.28 1.28 0 0 1-.5-.16z" class="cls-2"/><path d="M409.81 238.26a.61.61 0 0 0 .64-.58.62.62 0 0 0-1.23-.05.62.62 0 0 0 .59.63zm3.94.17a.61.61 0 1 0-.59-.63.61.61 0 0 0 .59.63z" class="cls-15"/><path d="M420.7 239.23a3.16 3.16 0 0 0-2.81-.17 1.27 1.27 0 0 1-1.35-.14 1.2 1.2 0 0 1-.26-1.59 1.24 1.24 0 0 1 1.6-.43 3.14 3.14 0 0 0 2.66.23 1.46 1.46 0 0 1 1-.16 1.21 1.21 0 0 1-.32 2.39 1.13 1.13 0 0 1-.52-.13z" class="cls-2"/><path d="M417.29 238.58a.6.6 0 1 0-.59-.63.61.61 0 0 0 .59.63zm3.94.18a.62.62 0 0 0 .64-.58.61.61 0 0 0-.59-.63.6.6 0 0 0-.64.57.61.61 0 0 0 .59.64z" class="cls-15"/><g class="cls-1"><path d="M422.08 236.9h1.89v2.65h-1.89z" class="cls-15" transform="rotate(-87.5 423.02 238.23)"/><path d="M422.08 236.9h1.89v2.65h-1.89z" class="cls-15" transform="rotate(-87.5 423.02 238.23)"/></g><path d="M420.7 239.23a3.16 3.16 0 0 0-2.81-.17 1.27 1.27 0 0 1-1.35-.14 1.2 1.2 0 0 1-.26-1.59 1.24 1.24 0 0 1 1.6-.43 3.14 3.14 0 0 0 2.66.23 1.46 1.46 0 0 1 1-.16 1.21 1.21 0 0 1-.32 2.39 1.13 1.13 0 0 1-.52-.13z" class="cls-2"/><path d="M417.29 238.58a.6.6 0 1 0-.59-.63.61.61 0 0 0 .59.63zm3.94.18a.62.62 0 0 0 .64-.58.61.61 0 0 0-.59-.63.6.6 0 0 0-.64.57.61.61 0 0 0 .59.64z" class="cls-15"/><path d="M428.18 239.56a3.16 3.16 0 0 0-2.81-.18 1.25 1.25 0 0 1-1.35-.14 1.2 1.2 0 0 1-.27-1.58 1.25 1.25 0 0 1 1.61-.43 3.14 3.14 0 0 0 2.66.23 1.47 1.47 0 0 1 1-.17 1.22 1.22 0 1 1-.82 2.27z" class="cls-2"/><path d="M424.77 238.91a.61.61 0 0 0 .64-.58.62.62 0 0 0-1.23-.05.61.61 0 0 0 .59.63zm3.94.17a.61.61 0 0 0 .64-.58.62.62 0 0 0-1.23-.05.6.6 0 0 0 .59.63z" class="cls-15"/><g class="cls-1"><path d="M429.56 237.23h1.89v2.65h-1.89z" class="cls-15" transform="rotate(-87.5 430.5 238.55)"/><path d="M429.56 237.23h1.89v2.65h-1.89z" class="cls-15" transform="rotate(-87.5 430.5 238.55)"/></g><path d="M428.18 239.56a3.16 3.16 0 0 0-2.81-.18 1.25 1.25 0 0 1-1.35-.14 1.2 1.2 0 0 1-.27-1.58 1.25 1.25 0 0 1 1.61-.43 3.14 3.14 0 0 0 2.66.23 1.47 1.47 0 0 1 1-.17 1.22 1.22 0 1 1-.82 2.27z" class="cls-2"/><path d="M424.77 238.91a.61.61 0 0 0 .64-.58.62.62 0 0 0-1.23-.05.61.61 0 0 0 .59.63zm3.94.17a.61.61 0 0 0 .64-.58.62.62 0 0 0-1.23-.05.6.6 0 0 0 .59.63z" class="cls-15"/><path d="M435.66 239.89a3.13 3.13 0 0 0-2.81-.18 1.25 1.25 0 0 1-1.35-.14 1.21 1.21 0 0 1-.27-1.59 1.25 1.25 0 0 1 1.6-.43 3.13 3.13 0 0 0 2.67.23 1.45 1.45 0 0 1 1-.16 1.22 1.22 0 0 1 .95 1.33 1.23 1.23 0 0 1-1.27 1.07 1.37 1.37 0 0 1-.52-.13z" class="cls-2"/><path d="M432.25 239.24a.62.62 0 0 0 .64-.58.61.61 0 0 0-.59-.63.6.6 0 0 0-.64.58.61.61 0 0 0 .59.63zm3.93.17a.61.61 0 1 0 .06-1.21.61.61 0 1 0-.06 1.21z" class="cls-15"/><g class="cls-1"><path d="M437.04 237.56h1.89v2.65h-1.89z" class="cls-15" transform="rotate(-87.5 437.98 238.88)"/><path d="M437.04 237.56h1.89v2.65h-1.89z" class="cls-15" transform="rotate(-87.5 437.98 238.88)"/></g><path d="M435.66 239.89a3.13 3.13 0 0 0-2.81-.18 1.25 1.25 0 0 1-1.35-.14 1.21 1.21 0 0 1-.27-1.59 1.25 1.25 0 0 1 1.6-.43 3.13 3.13 0 0 0 2.67.23 1.45 1.45 0 0 1 1-.16 1.22 1.22 0 0 1 .95 1.33 1.23 1.23 0 0 1-1.27 1.07 1.37 1.37 0 0 1-.52-.13z" class="cls-2"/><path d="M432.25 239.24a.62.62 0 0 0 .64-.58.61.61 0 0 0-.59-.63.6.6 0 0 0-.64.58.61.61 0 0 0 .59.63zm3.93.17a.61.61 0 1 0 .06-1.21.61.61 0 1 0-.06 1.21z" class="cls-15"/><path d="M443.14 240.21a3.18 3.18 0 0 0-2.82-.17 1.27 1.27 0 0 1-1.35-.14 1.22 1.22 0 0 1-.26-1.59 1.25 1.25 0 0 1 1.6-.43 3.14 3.14 0 0 0 2.66.23 1.49 1.49 0 0 1 1-.16 1.21 1.21 0 0 1-.32 2.39 1.06 1.06 0 0 1-.51-.13z" class="cls-2"/><path d="M439.72 239.56a.6.6 0 0 0 .64-.57.61.61 0 0 0-.58-.64.61.61 0 0 0-.64.58.6.6 0 0 0 .58.63zm3.94.18a.61.61 0 0 0 .64-.58.61.61 0 0 0-.58-.64.63.63 0 0 0-.65.58.62.62 0 0 0 .59.64z" class="cls-15"/><g class="cls-1"><path d="M444.52 237.88h1.89v2.65h-1.89z" class="cls-15" transform="rotate(-87.5 445.46 239.2)"/><path d="M444.52 237.88h1.89v2.65h-1.89z" class="cls-15" transform="rotate(-87.5 445.46 239.2)"/></g><path d="M443.14 240.21a3.18 3.18 0 0 0-2.82-.17 1.27 1.27 0 0 1-1.35-.14 1.22 1.22 0 0 1-.26-1.59 1.25 1.25 0 0 1 1.6-.43 3.14 3.14 0 0 0 2.66.23 1.49 1.49 0 0 1 1-.16 1.21 1.21 0 0 1-.32 2.39 1.06 1.06 0 0 1-.51-.13z" class="cls-2"/><path d="M439.72 239.56a.6.6 0 0 0 .64-.57.61.61 0 0 0-.58-.64.61.61 0 0 0-.64.58.6.6 0 0 0 .58.63zm3.94.18a.61.61 0 0 0 .64-.58.61.61 0 0 0-.58-.64.63.63 0 0 0-.65.58.62.62 0 0 0 .59.64z" class="cls-15"/><path d="M450.61 240.54a3.16 3.16 0 0 0-2.81-.18 1.25 1.25 0 0 1-1.35-.14 1.2 1.2 0 0 1-.26-1.58 1.24 1.24 0 0 1 1.6-.43 3.14 3.14 0 0 0 2.66.23 1.49 1.49 0 0 1 1-.17 1.21 1.21 0 0 1-.32 2.4 1.28 1.28 0 0 1-.52-.13z" class="cls-2"/><path d="M447.2 239.89a.61.61 0 1 0 .06-1.21.61.61 0 0 0-.64.58.6.6 0 0 0 .58.63zm3.94.17a.6.6 0 0 0 .64-.58.61.61 0 0 0-.59-.63.62.62 0 0 0-.64.58.61.61 0 0 0 .59.63z" class="cls-15"/><g class="cls-1"><path d="M454.33 240.46a16.23 16.23 0 0 1-2.7 0h-.05l.08-1.89h.19a14.07 14.07 0 0 0 2.34 0z" class="cls-15"/><path d="M454.33 240.46a16.23 16.23 0 0 1-2.7 0h-.05l.08-1.89h.19a14.07 14.07 0 0 0 2.34 0z" class="cls-15"/></g><path d="M450.61 240.54a3.16 3.16 0 0 0-2.81-.18 1.25 1.25 0 0 1-1.35-.14 1.2 1.2 0 0 1-.26-1.58 1.24 1.24 0 0 1 1.6-.43 3.14 3.14 0 0 0 2.66.23 1.28 1.28 0 0 1 1.34 0h.07a1.27 1.27 0 0 1 .53 1.21 1.19 1.19 0 0 1-.77.93h.07a1.21 1.21 0 0 1-.57.11 1.28 1.28 0 0 1-.51-.15z" class="cls-2"/><path d="M447.2 239.89a.61.61 0 1 0 .06-1.21.61.61 0 0 0-.64.58.6.6 0 0 0 .58.63zm3.94.17a.61.61 0 0 0 .59-.36.58.58 0 0 0 .07-.21.59.59 0 0 0 0-.23.61.61 0 0 0-.56-.41.62.62 0 0 0-.64.58.61.61 0 0 0 .54.63z" class="cls-15"/><path d="M458.44 239.69a4.9 4.9 0 0 0-3 .74 1.41 1.41 0 0 1-.72.27 1.36 1.36 0 0 1-.74-.19 1.17 1.17 0 0 1-.4-1.56 1.22 1.22 0 0 1 1.43-.63 2.23 2.23 0 0 0 2.4-.5 1.5 1.5 0 0 1 .74-.53 1.32 1.32 0 0 1 1.45.71 1.19 1.19 0 0 1-.65 1.58 1.18 1.18 0 0 1-.51.11z" class="cls-2"/><path d="M454.77 240.09a.6.6 0 0 0 .54-.69.59.59 0 0 0-.67-.51.61.61 0 0 0-.55.64.61.61 0 0 0 .68.56zm3.97-1.09a.61.61 0 1 0-.49-1.11.62.62 0 0 0-.32.79.6.6 0 0 0 .81.32z" class="cls-15"/><g class="cls-1"><path d="M461.73 237.64a10.09 10.09 0 0 1-1.17.8 8.39 8.39 0 0 1-1.25.68l-.82-1.7a6.67 6.67 0 0 0 1.08-.59 7.52 7.52 0 0 0 1-.69z" class="cls-15"/><path d="M461.73 237.64a10.09 10.09 0 0 1-1.17.8 8.39 8.39 0 0 1-1.25.68l-.82-1.7a6.67 6.67 0 0 0 1.08-.59 7.52 7.52 0 0 0 1-.69z" class="cls-15"/></g><path d="M458.44 239.69a4.9 4.9 0 0 0-3 .74 1.41 1.41 0 0 1-.72.27 1.36 1.36 0 0 1-.74-.19 1.17 1.17 0 0 1-.4-1.56 1.22 1.22 0 0 1 1.43-.63 2.23 2.23 0 0 0 2.4-.5 1.5 1.5 0 0 1 .74-.53 1.32 1.32 0 0 1 1.45.71 1.19 1.19 0 0 1-.65 1.58 1.18 1.18 0 0 1-.51.11z" class="cls-2"/><path d="M454.77 240.09a.6.6 0 0 0 .54-.69.59.59 0 0 0-.67-.51.61.61 0 0 0-.55.64.61.61 0 0 0 .68.56zm3.97-1.09a.61.61 0 1 0-.49-1.11.62.62 0 0 0-.32.79.6.6 0 0 0 .81.32z" class="cls-15"/><path d="M464.74 234.76a4.85 4.85 0 0 0-1.22.94 5.54 5.54 0 0 0-.85 1.29 1.31 1.31 0 0 1-1.18.86 1.15 1.15 0 0 1-1.18-1.08 1.2 1.2 0 0 1 .85-1.31 2.1 2.1 0 0 0 1.12-.61 3.2 3.2 0 0 0 .4-.51 2.79 2.79 0 0 0 .22-.61 1.56 1.56 0 0 1 .34-.86 1.29 1.29 0 0 1 1.6-.18 1.2 1.2 0 0 1 .31 1.68 1.27 1.27 0 0 1-.41.39z" class="cls-2"/><path d="M461.89 237.09a.62.62 0 0 0 .08-.88.6.6 0 0 0-.84-.05.59.59 0 0 0-.11.83.61.61 0 0 0 .87.1zm2.75-3.09a.61.61 0 1 0-.86.17.59.59 0 0 0 .86-.17z" class="cls-15"/><g class="cls-1"><path d="M466.39 231.25a13.25 13.25 0 0 1-1.22 2.56l-1.61-1a8.49 8.49 0 0 0 .58-1.07 8 8 0 0 0 .47-1.14z" class="cls-15"/><path d="M466.39 231.25a13.25 13.25 0 0 1-1.22 2.56l-1.61-1a8.49 8.49 0 0 0 .58-1.07 8 8 0 0 0 .47-1.14z" class="cls-15"/></g><path d="M464.74 234.76a4.85 4.85 0 0 0-1.22.94 5.54 5.54 0 0 0-.85 1.29 1.31 1.31 0 0 1-1.18.86 1.15 1.15 0 0 1-1.18-1.08 1.2 1.2 0 0 1 .85-1.31 2.1 2.1 0 0 0 1.12-.61 3.2 3.2 0 0 0 .4-.51 2.79 2.79 0 0 0 .22-.61 1.56 1.56 0 0 1 .34-.86 1.29 1.29 0 0 1 1.6-.18 1.2 1.2 0 0 1 .31 1.68 1.27 1.27 0 0 1-.41.39z" class="cls-2"/><path d="M461.89 237.09a.62.62 0 0 0 .08-.88.6.6 0 0 0-.84-.05.59.59 0 0 0-.11.83.61.61 0 0 0 .87.1zm2.75-3.09a.61.61 0 1 0-.86.17.59.59 0 0 0 .86-.17z" class="cls-15"/><path d="M467.34 227.18a5.86 5.86 0 0 0-.5 1.46 5.3 5.3 0 0 0 0 1.54 1.3 1.3 0 0 1-.52 1.37 1.14 1.14 0 0 1-1.58-.27 1.2 1.2 0 0 1 0-1.56 2.23 2.23 0 0 0 .51-2.39 1.37 1.37 0 0 1-.17-.9 1.27 1.27 0 0 1 1.23-1 1.22 1.22 0 0 1 1.18 1.24 1.39 1.39 0 0 1-.15.51z" class="cls-2"/><path d="M466.23 230.69a.6.6 0 1 0-.79.4.62.62 0 0 0 .79-.4zm.64-4.06a.61.61 0 0 0-.63-.61.59.59 0 0 0-.58.61.6.6 0 0 0 .57.62.63.63 0 0 0 .64-.62z" class="cls-15"/><g class="cls-1"><path d="M466.82 223.35a13.27 13.27 0 0 1 .37 2.8l-1.89.06a11.72 11.72 0 0 0-.31-2.43z" class="cls-15"/><path d="M466.82 223.35a13.27 13.27 0 0 1 .37 2.8l-1.89.06a11.72 11.72 0 0 0-.31-2.43z" class="cls-15"/></g><path d="M467.34 227.18a5.86 5.86 0 0 0-.5 1.46 5.3 5.3 0 0 0 0 1.54 1.3 1.3 0 0 1-.52 1.37 1.14 1.14 0 0 1-1.58-.27 1.2 1.2 0 0 1 0-1.56 2.23 2.23 0 0 0 .51-2.39 1.37 1.37 0 0 1-.17-.9 1.27 1.27 0 0 1 1.23-1 1.22 1.22 0 0 1 1.18 1.24 1.39 1.39 0 0 1-.15.51z" class="cls-2"/><path d="M466.23 230.69a.6.6 0 1 0-.79.4.62.62 0 0 0 .79-.4zm.64-4.06a.61.61 0 0 0-.63-.61.59.59 0 0 0-.58.61.6.6 0 0 0 .57.62.63.63 0 0 0 .64-.62z" class="cls-15"/><path d="M465.41 219.42a4.77 4.77 0 0 0 1.21 2.79 1.4 1.4 0 0 1 .31 1.43 1.22 1.22 0 0 1-2.32-.67 2.5 2.5 0 0 0-.1-1.27 2.33 2.33 0 0 0-.78-1 1.25 1.25 0 0 1-.64-.66 1.27 1.27 0 0 1 .47-1.53 1.19 1.19 0 0 1 1.66.4 1.4 1.4 0 0 1 .19.51z" class="cls-2"/><path d="M466.38 223a.58.58 0 0 0-.76-.43.65.65 0 0 0-.41.75.63.63 0 0 0 .74.44.61.61 0 0 0 .43-.76zm-1.67-3.78a.59.59 0 0 0-.86-.18.63.63 0 0 0-.16.83.6.6 0 1 0 1-.65z" class="cls-15"/><g class="cls-1"><path d="M462.88 216.48a14.58 14.58 0 0 1 1.85 2.15l-1.55 1.08a13 13 0 0 0-1.6-1.86z" class="cls-15"/><path d="M462.88 216.48a14.58 14.58 0 0 1 1.85 2.15l-1.55 1.08a13 13 0 0 0-1.6-1.86z" class="cls-15"/></g><path d="M465.41 219.42a4.77 4.77 0 0 0 1.21 2.79 1.4 1.4 0 0 1 .31 1.43 1.22 1.22 0 0 1-2.32-.67 2.5 2.5 0 0 0-.1-1.27 2.33 2.33 0 0 0-.78-1 1.25 1.25 0 0 1-.64-.66 1.27 1.27 0 0 1 .47-1.53 1.19 1.19 0 0 1 1.66.4 1.4 1.4 0 0 1 .19.51z" class="cls-2"/><path d="M466.38 223a.58.58 0 0 0-.76-.43.65.65 0 0 0-.41.75.63.63 0 0 0 .74.44.61.61 0 0 0 .43-.76zm-1.67-3.78a.59.59 0 0 0-.86-.18.63.63 0 0 0-.16.83.6.6 0 1 0 1-.65z" class="cls-15"/><path d="M459.56 214a4.71 4.71 0 0 0 2.54 1.69 1.4 1.4 0 0 1 1 1 1.22 1.22 0 0 1-2.31.7 2.47 2.47 0 0 0-.78-1 2.3 2.3 0 0 0-1.2-.43 1.26 1.26 0 0 1-1.34-1.75 1.18 1.18 0 0 1 1.61-.56 1.35 1.35 0 0 1 .48.35z" class="cls-2"/><path d="M462.3 216.41a.58.58 0 0 0-.86.05.64.64 0 0 0 .06.86.63.63 0 0 0 .85 0 .59.59 0 0 0-.05-.91zm-3.44-2.24a.58.58 0 0 0-.81.31.64.64 0 0 0 .31.8.62.62 0 0 0 .81-.29.6.6 0 0 0-.31-.82z" class="cls-15"/><g class="cls-1"><path d="M455.84 212.87a14.38 14.38 0 0 1 2.72.8l-.72 1.74a12.68 12.68 0 0 0-2.35-.69z" class="cls-15"/><path d="M455.84 212.87a14.38 14.38 0 0 1 2.72.8l-.72 1.74a12.68 12.68 0 0 0-2.35-.69z" class="cls-15"/></g><path d="M459.56 214a4.71 4.71 0 0 0 2.54 1.69 1.4 1.4 0 0 1 1 1 1.22 1.22 0 0 1-2.31.7 2.47 2.47 0 0 0-.78-1 2.3 2.3 0 0 0-1.2-.43 1.26 1.26 0 0 1-1.34-1.75 1.18 1.18 0 0 1 1.61-.56 1.35 1.35 0 0 1 .48.35z" class="cls-2"/><path d="M462.3 216.41a.58.58 0 0 0-.86.05.64.64 0 0 0 .06.86.63.63 0 0 0 .85 0 .59.59 0 0 0-.05-.91zm-3.44-2.24a.58.58 0 0 0-.81.31.64.64 0 0 0 .31.8.62.62 0 0 0 .81-.29.6.6 0 0 0-.31-.82z" class="cls-15"/><path d="M451.79 212.47a3.09 3.09 0 0 0 1.4.35 4 4 0 0 0 1.53-.23 1.41 1.41 0 0 1 1.43.3 1.22 1.22 0 0 1-1.55 1.85 2.54 2.54 0 0 0-1.2-.42 2.85 2.85 0 0 0-1.34.24 1.45 1.45 0 0 1-1 .22 1.21 1.21 0 0 1 .19-2.41 1.29 1.29 0 0 1 .54.1z" class="cls-2"/><path d="M455.32 213.13a.58.58 0 0 0-.7.5.61.61 0 0 0 1.21.19.58.58 0 0 0-.51-.69zm-4.03-.13a.6.6 0 0 0-.61.61.62.62 0 0 0 1.23 0 .61.61 0 0 0-.62-.61z" class="cls-15"/><path d="M437 225.16l-24.3-41.44 4.4-2.58 24.33 41.43a2.57 2.57 0 0 1-.91 3.5 2.57 2.57 0 0 1-3.52-.91z" class="cls-5"/><path d="M415.52 183.47l25 42.59a2.56 2.56 0 0 0 .91-3.49l-24.33-41.43-4.4 2.58.61 1.05z" class="cls-10"/><path d="M435.41 229.12c-1.22 0-2.44-.05-3.67-.14l-67.57-5.26v-2.36a14.77 14.77 0 0 1 10.17-14.06l27.57-9.09a96.52 96.52 0 0 0 44.16-30.1 51.3 51.3 0 0 1 34.4-18.39l11.41-1.18 14 18.31-4.42 2.32A41.21 41.21 0 0 0 481 194.49a47.46 47.46 0 0 1-45.59 34.63zM369.56 219l62.57 4.87a42.35 42.35 0 0 0 44-30.77 46.31 46.31 0 0 1 22.07-28l-8.6-11.24-8.57.89a46.25 46.25 0 0 0-31 16.57 101.6 101.6 0 0 1-46.49 31.69l-27.57 9.09a9.68 9.68 0 0 0-6.41 6.9z" class="cls-5"/><path d="M435.41 229.12c-1.22 0-2.44-.05-3.67-.14l-67.57-5.26v-2.36a14.77 14.77 0 0 1 10.17-14.06l27.57-9.09a96.52 96.52 0 0 0 44.16-30.1 51.3 51.3 0 0 1 34.4-18.39l11.41-1.18 14 18.31-4.42 2.32A41.21 41.21 0 0 0 481 194.49a47.46 47.46 0 0 1-45.59 34.63zM369.56 219l62.57 4.87a42.35 42.35 0 0 0 44-30.77 46.31 46.31 0 0 1 22.07-28l-8.6-11.24-8.57.89a46.25 46.25 0 0 0-31 16.57 101.6 101.6 0 0 1-46.49 31.69l-27.57 9.09a9.68 9.68 0 0 0-6.41 6.9z" class="cls-5"/><path d="M501.48 169.17l1.78-.94-12.55-16.39L479.3 153a51.33 51.33 0 0 0-34.4 18.38 96.47 96.47 0 0 1-44.16 30.11l-27.57 9.08a14.78 14.78 0 0 0-8.63 7.49 14.77 14.77 0 0 0-.37 3.27v2.36l67.57 5.31c1.23.09 2.45.14 3.67.14a47.49 47.49 0 0 0 44-29.94l.41-1.39a40.87 40.87 0 0 1 1.45-4.25 41.21 41.21 0 0 1 20.21-24.39zm-70.52 58l-62.57-4.87a9.72 9.72 0 0 1 1.51-3.3h-.34a9.68 9.68 0 0 1 6.38-6.87l27.57-9.09A101.6 101.6 0 0 0 450 171.37a46.25 46.25 0 0 1 31-16.57l8.57-.89 8.6 11.24c-.86.48-1.71 1-2.53 1.52l1.36 1.79a46.31 46.31 0 0 0-20.52 23.36l-.38 1.3a44.62 44.62 0 0 1-1.5 4.4 42.33 42.33 0 0 1-43.6 29.67z" class="cls-10"/><path d="M428.59 204.75a2.54 2.54 0 0 1 .1-3.6l2.72-2.58A90.74 90.74 0 0 1 487.82 174l.17 2.59a2.55 2.55 0 0 1-2.32 2.7 85.72 85.72 0 0 0-50.75 23l-2.73 2.58a2.55 2.55 0 0 1-3.6-.12z" class="cls-5"/><path d="M486.91 178.81a1.33 1.33 0 0 0 .26-.21h.05a3.24 3.24 0 0 0 .29-.34 2.46 2.46 0 0 0 .22-.39 2.18 2.18 0 0 0 .16-.45v-.1a.77.77 0 0 0 0-.15 2.07 2.07 0 0 0 0-.5l-.05-.84a92.63 92.63 0 0 0-55.27 24.45l-4.4 4.16a1.43 1.43 0 0 0 .14.2l.17.19a2.55 2.55 0 0 0 3.59.09l2.73-2.58 1.34-1.24.46-.41q2.73-2.44 5.66-4.63l.14-.1.8-.59.19-.14c.58-.42 1.17-.83 1.77-1.24l.21-.14 1.19-.8.32-.21c.82-.53 1.64-1.05 2.47-1.55l.61-.37.83-.48.74-.42 1.23-.68.36-.19c.81-.44 1.63-.87 2.46-1.28l.76-.37c1-.49 2.06-1 3.1-1.42l.19-.08 1.51-.64.15-.06.91-.37.46-.18 1.24-.47.75-.28 1.31-.45.4-.14 1.62-.53h.1c1.16-.36 2.32-.7 3.5-1l1.73-.44.5-.12 1.26-.29h.05l1.73-.37h.07l1.71-.32.79-.14c.93-.15 1.86-.3 2.8-.42l.82-.1q.49-.08 1-.12l.83-.09.66-.07h.26a2 2 0 0 0 .33-.09 2.65 2.65 0 0 0 .79-.5z" class="cls-10"/><circle cx="453.26" cy="226.57" r="1.46" fill="none" stroke="#ffad01" stroke-miterlimit="10"/><path d="M395.81 181.46a1.65 1.65 0 0 1-1.15-.46l-87.17-84.5a4.49 4.49 0 0 1 6.23-6.5l80.19 76.9a1.64 1.64 0 0 1-2.28 2.37l-80.18-76.9a1.21 1.21 0 0 0-2 .87 1.17 1.17 0 0 0 .37.86L397 178.64a1.64 1.64 0 0 1 0 2.32 1.62 1.62 0 0 1-1.19.5z" class="cls-2"/><path d="M395.81 181.46a1.65 1.65 0 0 1-1.15-.46l-87.17-84.5a4.49 4.49 0 0 1 6.23-6.5l80.19 76.9a1.64 1.64 0 0 1-2.28 2.37l-80.18-76.9a1.21 1.21 0 0 0-2 .87 1.17 1.17 0 0 0 .37.86L397 178.64a1.64 1.64 0 0 1 0 2.32 1.62 1.62 0 0 1-1.19.5z" class="cls-2"/><path d="M367.54 223.7h-1.21A3.34 3.34 0 0 0 363 227a3.34 3.34 0 0 0 3.34 3.35h2.37l-1.07 1.06a2.6 2.6 0 0 0-.75 1.83 2.58 2.58 0 0 0 2.58 2.58 1.06 1.06 0 0 0 1.06-1.07v-1.56a1 1 0 0 0-1-1h-.8l1.32-1.32a1.72 1.72 0 0 0 .5-1.22v-3a3 3 0 0 0-3.01-2.95z" class="cls-9"/><g class="cls-1"><path d="M466.88 227.59l-.87-.52a.67.67 0 0 1 0-1.16l.87-.53a.17.17 0 0 0 0-.31l-1-.35a.68.68 0 0 1-.22-1.14l.76-.68a.17.17 0 0 0-.09-.3l-1-.17a.67.67 0 0 1-.43-1.07l.62-.81a.17.17 0 0 0-.14-.28h-.73a.85.85 0 0 1-.77-1.24l.33-.64a.18.18 0 0 0-.2-.25l-1 .2a.68.68 0 0 1-.79-.85l.29-1a.18.18 0 0 0-.24-.22l-.94.39a.67.67 0 0 1-.92-.69l.1-1a.18.18 0 0 0-.27-.17l-.86.55a.67.67 0 0 1-1-.51l-.08-1a.18.18 0 0 0-.3-.11l-.74.7a.67.67 0 0 1-1.11-.31l-.27-1a.18.18 0 0 0-.32-.06l-.42.59a.85.85 0 0 1-1.45-.13l-.32-.65a.18.18 0 0 0-.32 0l-.43.92a.69.69 0 0 1-1.16.12l-.6-.82a.17.17 0 0 0-.31.06l-.26 1a.68.68 0 0 1-1.11.33l-.75-.7a.18.18 0 0 0-.3.12l-.07 1a.68.68 0 0 1-1 .52l-.86-.54a.17.17 0 0 0-.27.16l.11 1a.67.67 0 0 1-.92.7l-.94-.38a.18.18 0 0 0-.24.22l.3 1a.67.67 0 0 1-.77.86l-1-.19a.17.17 0 0 0-.19.25l.47.9a.67.67 0 0 1-.6 1h-1a.18.18 0 0 0-.14.29l.63.8a.68.68 0 0 1-.41 1.08l-1 .18a.17.17 0 0 0-.09.3l.77.67a.68.68 0 0 1-.21 1.14l-.95.36a.18.18 0 0 0 0 .32l.88.52a.67.67 0 0 1 0 1.15l-.87.53a.18.18 0 0 0 0 .32l.95.35a.67.67 0 0 1 .22 1.13l-.76.68a.18.18 0 0 0 .09.31l1 .16a.68.68 0 0 1 .42 1.08l-.62.81a.18.18 0 0 0 .14.28h.73a.84.84 0 0 1 .77 1.23l-.32.65a.17.17 0 0 0 .19.25l1-.21a.68.68 0 0 1 .79.85l-.29 1a.18.18 0 0 0 .24.21l.94-.38a.67.67 0 0 1 .93.69l-.1 1a.17.17 0 0 0 .27.16l.6-.39a.85.85 0 0 1 1.31.64l.07.73a.17.17 0 0 0 .29.11l.74-.7a.67.67 0 0 1 1.11.31l.28 1a.18.18 0 0 0 .31.06l.6-.83a.67.67 0 0 1 1.15.1l.44.92a.18.18 0 0 0 .32 0l.44-.92a.67.67 0 0 1 1.15-.11l.61.82a.18.18 0 0 0 .23-.05l.26-1a.67.67 0 0 1 1.11-.32l.74.69a.18.18 0 0 0 .3-.12l.07-1a.67.67 0 0 1 1-.52l.87.54a.17.17 0 0 0 .26-.17l-.11-1a.67.67 0 0 1 .92-.7l1 .37a.17.17 0 0 0 .23-.21l-.3-1a.67.67 0 0 1 .78-.85l1 .19a.17.17 0 0 0 .19-.25l-.47-.91a.67.67 0 0 1 .61-1h1a.17.17 0 0 0 .14-.28l-.63-.8a.68.68 0 0 1 .41-1.08l1-.18a.18.18 0 0 0 .08-.31l-.76-.67a.67.67 0 0 1 .2-1.13l1-.37a.17.17 0 0 0-.02-.33zm-7-7.31l-3.63 1.88a.76.76 0 0 1-1.11-.6l-.47-4a.77.77 0 0 1 .94-.84A10 10 0 0 1 460 219a.77.77 0 0 1-.13 1.28zm-8-2.73l-.46 4a.77.77 0 0 1-1.12.6l-3.63-1.88a.77.77 0 0 1-.16-1.25 10 10 0 0 1 4.43-2.32.77.77 0 0 1 .92.85zm-8.73 9a10.17 10.17 0 0 1 .7-3.72.78.78 0 0 1 1.22-.3l4.32 3.71a.77.77 0 0 1 .1 1.06l-3.62 4.57a.77.77 0 0 1-1.26-.07 10.08 10.08 0 0 1-1.48-5.23zm10.13 10.13a10.06 10.06 0 0 1-5.45-1.59.77.77 0 0 1-.06-1.25l5-4a.78.78 0 0 1 1 0l5 4a.76.76 0 0 1-.06 1.25 10 10 0 0 1-5.45 1.61zm7.41-4.81l-3.62-4.57a.77.77 0 0 1 .1-1.06l4.33-3.71a.77.77 0 0 1 1.21.3 10 10 0 0 1 .71 3.72 10.09 10.09 0 0 1-1.47 5.25.77.77 0 0 1-1.28.09z" class="cls-2"/><circle cx="453.26" cy="225.73" r="2.03" class="cls-15"/></g><g style="mix-blend-mode:multiply;isolation:isolate"><path d="M466.88 227.59l-.87-.52a.67.67 0 0 1 0-1.16l.87-.53a.17.17 0 0 0 0-.31l-1-.35a.68.68 0 0 1-.22-1.14l.76-.68a.17.17 0 0 0-.09-.3l-1-.17a.67.67 0 0 1-.43-1.07l.62-.81a.17.17 0 0 0-.14-.28h-.73a.85.85 0 0 1-.77-1.24l.33-.64a.18.18 0 0 0-.2-.25l-1 .2a.68.68 0 0 1-.79-.85l.29-1a.18.18 0 0 0-.24-.22l-.94.39a.67.67 0 0 1-.92-.69l.1-1a.18.18 0 0 0-.27-.17l-.86.55a.67.67 0 0 1-1-.51l-.08-1a.18.18 0 0 0-.3-.11l-.74.7a.67.67 0 0 1-1.11-.31l-.27-1a.18.18 0 0 0-.32-.06l-.42.59a.85.85 0 0 1-1.45-.13l-.32-.65a.18.18 0 0 0-.32 0l-.43.92a.69.69 0 0 1-1.16.12l-.6-.82a.17.17 0 0 0-.31.06l-.26 1a.68.68 0 0 1-1.11.33l-.75-.7a.18.18 0 0 0-.3.12l-.07 1a.68.68 0 0 1-1 .52l-.86-.54a.17.17 0 0 0-.27.16l.11 1a.67.67 0 0 1-.92.7l-.94-.38a.18.18 0 0 0-.24.22l.3 1a.67.67 0 0 1-.77.86l-1-.19a.17.17 0 0 0-.19.25l.47.9a.67.67 0 0 1-.6 1h-1a.18.18 0 0 0-.14.29l.63.8a.68.68 0 0 1-.41 1.08l-1 .18a.17.17 0 0 0-.09.3l.77.67a.68.68 0 0 1-.21 1.14l-.95.36a.18.18 0 0 0 0 .32l.88.52a.67.67 0 0 1 0 1.15l-.87.53a.18.18 0 0 0 0 .32l.95.35a.67.67 0 0 1 .22 1.13l-.76.68a.18.18 0 0 0 .09.31l1 .16a.68.68 0 0 1 .42 1.08l-.62.81a.18.18 0 0 0 .14.28h.73a.84.84 0 0 1 .77 1.23l-.32.65a.17.17 0 0 0 .19.25l1-.21a.68.68 0 0 1 .79.85l-.29 1a.18.18 0 0 0 .24.21l.94-.38a.67.67 0 0 1 .93.69l-.1 1a.17.17 0 0 0 .27.16l.6-.39a.85.85 0 0 1 1.31.64l.07.73a.17.17 0 0 0 .29.11l.74-.7a.67.67 0 0 1 1.11.31l.28 1a.18.18 0 0 0 .31.06l.6-.83a.67.67 0 0 1 1.15.1l.44.92a.18.18 0 0 0 .32 0l.44-.92a.67.67 0 0 1 1.15-.11l.61.82a.18.18 0 0 0 .23-.05l.26-1a.67.67 0 0 1 1.11-.32l.74.69a.18.18 0 0 0 .3-.12l.07-1a.67.67 0 0 1 1-.52l.87.54a.17.17 0 0 0 .26-.17l-.11-1a.67.67 0 0 1 .92-.7l1 .37a.17.17 0 0 0 .23-.21l-.3-1a.67.67 0 0 1 .78-.85l1 .19a.17.17 0 0 0 .19-.25l-.47-.91a.67.67 0 0 1 .61-1h1a.17.17 0 0 0 .14-.28l-.63-.8a.68.68 0 0 1 .41-1.08l1-.18a.18.18 0 0 0 .08-.31l-.76-.67a.67.67 0 0 1 .2-1.13l1-.37a.17.17 0 0 0-.02-.33zm-7-7.31l-3.63 1.88a.76.76 0 0 1-1.11-.6l-.47-4a.77.77 0 0 1 .94-.84A10 10 0 0 1 460 219a.77.77 0 0 1-.13 1.28zm-8-2.73l-.46 4a.77.77 0 0 1-1.12.6l-3.63-1.88a.77.77 0 0 1-.16-1.25 10 10 0 0 1 4.43-2.32.77.77 0 0 1 .92.85zm-8.73 9a10.17 10.17 0 0 1 .7-3.72.78.78 0 0 1 1.22-.3l4.32 3.71a.77.77 0 0 1 .1 1.06l-3.62 4.57a.77.77 0 0 1-1.26-.07 10.08 10.08 0 0 1-1.48-5.23zm10.13 10.13a10.06 10.06 0 0 1-5.45-1.59.77.77 0 0 1-.06-1.25l5-4a.78.78 0 0 1 1 0l5 4a.76.76 0 0 1-.06 1.25 10 10 0 0 1-5.45 1.61zm7.41-4.81l-3.62-4.57a.77.77 0 0 1 .1-1.06l4.33-3.71a.77.77 0 0 1 1.21.3 10 10 0 0 1 .71 3.72 10.09 10.09 0 0 1-1.47 5.25.77.77 0 0 1-1.28.09z" class="cls-2"/><circle cx="453.26" cy="225.73" r="2.03" class="cls-15"/></g><circle cx="468.41" cy="253.16" r="1.61" class="cls-2"/><path d="M453.28 211.71l-79.87 1.71a9.61 9.61 0 0 0-3.19 3.77l83.07-1.77a11.16 11.16 0 0 1 11.12 11.15 11.73 11.73 0 0 1-.14 1.77l3.58 1a14.86 14.86 0 0 0-14.57-17.68z" class="cls-18"/><g class="cls-1"><path d="M413.66 182.34h5.84v5.88h-5.84z" class="cls-2" transform="rotate(-30.42 416.5 185.26)"/><path d="M416.44 181.87h2.92v5.59h-2.92z" class="cls-15" transform="rotate(-30.41 417.98 184.68)"/></g><circle cx="414.25" cy="187.62" r="1.48" class="cls-9"/><circle cx="414.25" cy="187.62" r=".77" class="cls-2"/><path d="M433.64 167.8l-8.12 1.2a47.24 47.24 0 0 1-31.93-6.8 5.47 5.47 0 0 0-5.38-.27 5.49 5.49 0 0 0-2.21 7.77l4.46 7.24a18.42 18.42 0 0 0 23.31 7.13l21.76-9.86a3.37 3.37 0 0 0 1.6-4.62 3.36 3.36 0 0 0-3.49-1.79z" class="cls-14"/><path d="M421.59 176.66a18.44 18.44 0 0 1-23.31-7.13l-4.42-7.19-.27-.16a5.49 5.49 0 0 0-7.6 7.52l4.46 7.24a18.42 18.42 0 0 0 23.31 7.13l21.76-9.86a3.37 3.37 0 0 0 1.61-4.6z" class="cls-19"/><path d="M430 240.19l-7.71-.66 30.14-15.62a2.13 2.13 0 0 1 2.87.91 2.13 2.13 0 0 1-.91 2.87z" class="cls-5"/><rect width="15.86" height="3.28" x="417.16" y="239.01" class="cls-2" rx=".72" transform="rotate(180 425.1 240.66)"/><rect width="15.86" height="3.28" x="471.54" y="210.89" class="cls-2" rx=".72"/><path d="M309.79 92.41a1.21 1.21 0 0 1 1.66 0l80.18 76.9a1.64 1.64 0 0 0 2.28-2.37L313.72 90a4.48 4.48 0 0 0-6.1-.08 3.43 3.43 0 0 0 .94 3l1.22 1.23a1.17 1.17 0 0 1-.37-.86 1.2 1.2 0 0 1 .38-.88z" class="cls-15"/><path d="M418.05 110c-.36 7.69 6.14 52.21 6.14 52.21l15.25-1.86-6.67-63.82-10.72-1.39a42 42 0 0 0-4 14.86z" class="cls-5"/><path d="M418.52 106.05a32.23 32.23 0 0 0-.47 4l.19 2.64h7.9s-5.78-6.39-7.62-6.64zm3.48 40.33l3.67-27.72-7.46-4.81c.45 7.33 2.25 21.44 3.79 32.53zm16.36 3.69l-9.62-11.21-1.69 1.45 11.67 13.59.04-.03-.4-3.8z" class="cls-10"/><circle cx="428.15" cy="69.25" r="4.21" class="cls-3"/><circle cx="428.15" cy="69.25" r="2.79" class="cls-4"/><path d="M423.48 86.22a13.69 13.69 0 0 1-21.36 0 21.22 21.22 0 0 1-4.68-13.3v-12.4a15.36 15.36 0 0 1 15.36-15.35 15.35 15.35 0 0 1 15.35 15.35v12.4a21.27 21.27 0 0 1-4.67 13.3z" class="cls-3"/><path d="M425.36 59.77h2.79v7.11a2.79 2.79 0 0 1-2.79-2.79v-4.32z" class="cls-20"/><path d="M411.57 68.48c.05 2.25-3 5-6.79 6.2s-6.87-.81-6.87-4.45a6.24 6.24 0 0 1 6.78-6.2c3.74.21 6.82 2.21 6.88 4.45zm2.43 0c-.05 2.25 3 5 6.78 6.2s6.88-.81 6.88-4.45a6.24 6.24 0 0 0-6.78-6.2c-3.76.21-6.88 2.21-6.88 4.45z" class="cls-9"/><path fill="none" stroke="#3f3d31" stroke-linecap="round" stroke-miterlimit="10" stroke-width="1.42" d="M406.23 64.02h13.09m-7.7 3.92v-.32a1.16 1.16 0 0 1 1.16-1.16 1.15 1.15 0 0 1 1.15 1.16v.32m13.29 0h.93m-30.71 0h.93"/><path d="M404.69 64a6.79 6.79 0 0 0-1.87.15l-4.89 5.59v.46a4.65 4.65 0 0 0 1.75 3.84l8.21-9.39a10.88 10.88 0 0 0-3.2-.65zm5.65 2.13a6.72 6.72 0 0 0-1.34-.93l-8.28 9.47a5.31 5.31 0 0 0 1.82.35zm16.48.99a5.89 5.89 0 0 0-1-1.28l-7 8a14.4 14.4 0 0 0 1.55.65zM420.87 64h-.61l-5.61 6.41a9.45 9.45 0 0 0 3 2.8l7.19-8.21a6.55 6.55 0 0 0-3.97-1z" class="cls-18"/><path fill="none" stroke="#3f3d31" stroke-linecap="round" stroke-linejoin="round" stroke-width="1.66" d="M411.15 76.85a2.1 2.1 0 0 0 3.29 0"/><path d="M403.84 53.46l-4.73 4.73a46.24 46.24 0 0 0-10 15.1L406.39 56z" class="cls-20"/><path d="M406.7 60.78l-4.7 4.74a46.24 46.24 0 0 1-15.1 10l17.29-17.28z" class="cls-23"/><path d="M411.66 59.38l-4.74 4.74a46.2 46.2 0 0 1-15.09 10l17.28-17.28z" class="cls-20"/><path d="M416.61 58l-4.73 4.74a46.4 46.4 0 0 1-15.1 10l17.29-17.28z" class="cls-23"/><path d="M381.91 50.52v8.8h4.48v-8.15a5.17 5.17 0 0 1 5.17-5.17 5.18 5.18 0 0 1 5.18 5.18v4.35h32.11v-5a23.47 23.47 0 0 0-23.47-23.47 23.47 23.47 0 0 0-23.47 23.46z" class="cls-5"/><path d="M396.14 28.94a23.48 23.48 0 0 0-14.23 21.58v5h4.48v-4.35a5.18 5.18 0 1 1 10.35 0v4.35h13.64v-5a23.48 23.48 0 0 0-14.24-21.58z" class="cls-10"/><circle cx="384.12" cy="59.45" r="5.04" class="cls-14"/><path d="M382.76 56.7a4.12 4.12 0 0 0-3.65 2.21 4.89 4.89 0 0 0 0 .54 5 5 0 0 0 5 5 4.89 4.89 0 0 0 .54 0 4.11 4.11 0 0 0-1.9-7.76z" class="cls-19"/><rect width="38.88" height="6.75" x="393.36" y="55.52" class="cls-14" rx="3.38"/><path d="M424.9 56.7h-30.71a3.36 3.36 0 0 0 2.54 5.57h30.71a3.35 3.35 0 0 0-2.54-5.57z" class="cls-19"/><path d="M417.39 83.84c-2.69 3.37-6.5 3.37-9.18 0zm1.18 0a7.66 7.66 0 0 0-11.54 0z" class="cls-9"/><path d="M360.86 148.67s21.72-42.21 22.09-42.09l1.24.56a15.46 15.46 0 0 1 7.23 21.22l-12.25 23.36z" class="cls-5"/><path d="M371 139.69a9.73 9.73 0 0 1 9.73 9.73" class="cls-24"/><path d="M371 139.69a9.73 9.73 0 0 1 9.73 9.73" class="cls-25"/><path d="M374.61 135.94a9.72 9.72 0 0 1 6.14 12.31" class="cls-24"/><path d="M374.61 135.94a9.72 9.72 0 0 1 6.14 12.31" class="cls-25"/><path d="M383.07 131.63a7.44 7.44 0 0 1 9.5-4.53" class="cls-24"/><path d="M383.07 131.63a7.44 7.44 0 0 1 9.5-4.53" class="cls-25"/><path d="M426.14 90.56c-2.62-.86-6.37.06-6.37.06s2.43 2.29 0 8.69c-2.69 7.07-4 8.53-4 8.53s-2.4-7.23-12.15-12.66c-17.85-10-26.54 6-23.69 11.5l1.26 3.06a31 31 0 0 1 7.21-6.74c.92-.61 5.14-3 5.14-3 12.85 1.29 16.12 9.74 19.22 15.25l.35.62a1.56 1.56 0 0 0 2.63.26c3-3.85 9.87-12.77 11.06-16.32 1.56-4.5 1.96-8.39-.66-9.25z" class="cls-7"/><path d="M553.22 221.42h1.82v9.02h-1.82z" class="cls-5" transform="rotate(-37.6 554.18 225.94)"/><path d="M560.43 215.87h1.82v9.02h-1.82z" class="cls-5" transform="rotate(-37.6 561.38 220.38)"/><path d="M553.22 221.42h1.82v9.02h-1.82z" class="cls-10" transform="rotate(-37.6 554.18 225.94)"/><path d="M560.43 215.87h1.82v9.02h-1.82z" class="cls-10" transform="rotate(-37.6 561.38 220.38)"/><rect width="20.61" height="3.06" x="547.43" y="221.63" class="cls-5" rx="1.53" transform="rotate(-37.6 557.78 223.16)"/><path d="M565.9 216.87a1.45 1.45 0 0 0-.55-.44 1.54 1.54 0 0 1-.45 1.87L551 229a1.52 1.52 0 0 1-1.6.15 1.61 1.61 0 0 0 .17.28 1.53 1.53 0 0 0 2.15.28l13.9-10.71a1.53 1.53 0 0 0 .28-2.13z" class="cls-10"/><path d="M478.73 139.74a6.53 6.53 0 0 1-4.34-1.64l-33.48-29.54a3.29 3.29 0 0 0-4.77.46l-19.91 25.83-2.89-2.22 19.91-25.83a6.93 6.93 0 0 1 10.07-1l33.48 29.54a2.92 2.92 0 0 0 3.7.12l12.67-9.76a2.92 2.92 0 0 0 .83-3.61l-20-39.88a6.92 6.92 0 0 1 3.5-9.49l30.06-12.65 1.44 3.36-30.09 12.65a3.27 3.27 0 0 0-1.66 4.49l20 39.92a6.57 6.57 0 0 1-1.86 8.13l-12.67 9.76a6.53 6.53 0 0 1-3.99 1.36z" class="cls-5"/><path d="M477.25 80.57a3.27 3.27 0 0 1 1.66-4.49L509 63.43l-1.42-3.36-.14.06.92 2.17L478.27 75a3.22 3.22 0 0 0-1.81 1.88 3.29 3.29 0 0 0 .15 2.61l20 39.91a6.57 6.57 0 0 1-1.86 8.13l-12.67 9.76a6.56 6.56 0 0 1-8.34-.28l-33.48-29.53a3.27 3.27 0 0 0-4.77.46l-19.91 25.83-1.94-1.5-.31.4 2.89 2.22L436.14 109a3.29 3.29 0 0 1 4.77-.46l33.48 29.54a6.56 6.56 0 0 0 8.34.28l12.67-9.76a6.57 6.57 0 0 0 1.86-8.13z" class="cls-10"/><path d="M421.34 130.2l-13 15.5a4.63 4.63 0 0 1-4.18-3.52l13.05-15.5z" class="cls-9"/><path d="M405.19 140.34h2.49v6.65h-2.49z" class="cls-2" transform="rotate(-49.91 406.4 143.67)"/><path d="M421.34 130.2l-13 15.5a4.63 4.63 0 0 1-4.18-3.52l13.05-15.5z" class="cls-9"/><path d="M405.19 140.34h2.49v6.65h-2.49z" class="cls-2" transform="rotate(-49.91 406.4 143.67)"/><path d="M417.2 125.57h2.49v7.65h-2.49z" class="cls-2" transform="rotate(-49.91 418.42 129.4)"/><path d="M422.68 130.42a3 3 0 0 0-.36-4.19l-.24-.2-1.93 2.3c-.12.15-1.44 1.82-3 4l2.82 1.7c1.37-1.92 2.57-3.43 2.71-3.61z" class="cls-9"/><path d="M417.08 132.4a54 54 0 0 0-5.23 8.5l-.18.43a1.64 1.64 0 1 0 3 1.31l.19-.44a52 52 0 0 1 5-8.1z" class="cls-2"/><path d="M503.16 67.18l18.32-8.65a4.65 4.65 0 0 0-2.34-5l-18.31 8.66z" class="cls-9"/><path d="M501.88 60.35h2.49V68h-2.49z" class="cls-2" transform="rotate(154.7 503.12 64.18)"/><path d="M518.75 52.88h2.49v6.65h-2.49z" class="cls-2" transform="rotate(154.62 520 56.19)"/><path d="M518.26 62.05a1.64 1.64 0 0 0-1.86-1.38l-.47.07a53.53 53.53 0 0 0-9.54 2.88l.9 3.17a51.76 51.76 0 0 1 9.13-2.8l.47-.07a1.64 1.64 0 0 0 1.37-1.87z" class="cls-2"/><path d="M501.7 65.53h-.05l-2.71 1.28.14.28a3 3 0 0 0 4 1.42c.2-.09 2-.86 4.25-1.74l-.9-3.17c-2.6 1-4.56 1.86-4.73 1.93z" class="cls-9"/><path d="M519.84 131.26h3.65v113.73h-3.65z" class="cls-5" transform="rotate(-37.6 521.7 188.12)"/><path d="M520.06 131.92h1.49v113.73h-1.49z" class="cls-10" transform="rotate(-37.6 520.86 188.79)"/><path d="M506.84 171.42h5.87v2.55h-5.87z" class="cls-5" transform="rotate(-37.6 509.81 172.69)"/><path d="M506.44 170.9h4.58v.87h-4.58z" class="cls-5" transform="rotate(-37.6 508.77 171.33)"/><path d="M508.53 173.61h4.58v.87h-4.58z" class="cls-5" transform="rotate(-37.6 510.86 174.04)"/><path d="M482.86 139.73h5.87v3.65h-5.87z" class="cls-5" transform="rotate(-37.6 485.83 141.56)"/><path d="M482.13 139.34h4.58v.87h-4.58z" class="cls-5" transform="rotate(-37.6 484.46 139.76)"/><path d="M484.88 142.91h4.58v.87h-4.58z" class="cls-5" transform="rotate(-37.6 487.2 143.34)"/><path d="M485.24 138.59a1.4 1.4 0 0 0-2.17 1.67z" class="cls-5"/><path d="M531.26 122.47h3.65V236.2h-3.65z" class="cls-5" transform="rotate(-37.6 533.12 179.34)"/><path d="M531.47 123.1h1.58v113.73h-1.58z" class="cls-10" transform="rotate(-37.6 532.3 179.96)"/><path d="M494.28 130.94h5.87v3.65h-5.87z" class="cls-5" transform="rotate(-37.6 497.25 132.76)"/><path d="M493.54 130.54h4.58v.87h-4.58z" class="cls-5" transform="rotate(-37.6 495.87 130.98)"/><path d="M496.3 134.12h4.58v.87h-4.58z" class="cls-5" transform="rotate(-37.6 498.62 134.56)"/><path d="M496.66 129.8a1.41 1.41 0 0 0-2.18 1.67z" class="cls-5"/><path d="M501.44 133.98h4.58v37.12h-4.58z" class="cls-5" transform="rotate(-37.6 503.78 152.54)"/><path d="M501.44 133.98h4.58v37.12h-4.58z" class="cls-10" transform="rotate(-37.6 503.78 152.54)"/><path d="M485.41 128.57h7.06v10.55h-7.06z" class="cls-2" transform="rotate(-37.6 488.99 133.83)"/><path d="M486.88 132.88h7.06v5.74h-7.06z" class="cls-15" transform="rotate(-37.6 490.46 135.75)"/><path d="M492.72 144.47h4.58v18.11h-4.58z" class="cls-5" transform="rotate(-37.6 495.05 153.53)"/><path d="M493 145.3h1.87v18.11H493z" class="cls-10" transform="rotate(-37.6 493.98 154.35)"/><path d="M518.26 162.62h5.87v2.55h-5.87z" class="cls-5" transform="rotate(-37.6 521.23 163.9)"/><path d="M517.86 162.11h4.58v.87h-4.58z" class="cls-5" transform="rotate(-37.6 520.18 162.55)"/><path d="M519.94 164.82h4.58v.87h-4.58z" class="cls-5" transform="rotate(-37.8 521.22 166.9)"/><path d="M504.14 135.68h4.58v18.11h-4.58z" class="cls-5" transform="rotate(-37.6 506.46 144.73)"/><path d="M504.4 136.44h2.09v18.11h-2.09z" class="cls-10" transform="rotate(-37.6 505.48 145.5)"/><path d="M510.09 167.21h10.78v2.17h-10.78z" class="cls-5" transform="rotate(-37.6 515.52 168.29)"/><path d="M486.11 136.08h10.78v2.17h-10.78z" class="cls-5" transform="rotate(-37.6 491.54 137.16)"/><path d="M580.86 257.54a4.36 4.36 0 0 1-3.47-1.7l-46.24-60a4.36 4.36 0 0 1 .8-6.12 4.28 4.28 0 0 1 2.66-.91 4.36 4.36 0 0 1 3.47 1.7l46.23 60a4.36 4.36 0 0 1-3.45 7z" class="cls-9"/><path d="M582.51 255.34l-46.24-60a4.33 4.33 0 0 1 .58-5.92 4.34 4.34 0 0 0-2.24-.62 4.38 4.38 0 0 0-4.33 3.81 4.33 4.33 0 0 0 .87 3.22l46.24 60a4.39 4.39 0 0 0 6.13.8l.22-.21a4.26 4.26 0 0 1-1.23-1.08z" class="cls-11"/><path d="M541 206.09a4.71 4.71 0 0 1-3.76-1.85l-6.39-8.24a4.73 4.73 0 0 1-.93-3.48 4.76 4.76 0 0 1 4.69-4.13 4.74 4.74 0 0 1 3.76 1.85l6.34 8.23a4.76 4.76 0 0 1-.88 6.63 4.69 4.69 0 0 1-2.83.99z" class="cls-5"/><path d="M533.43 197.46a5.25 5.25 0 0 1 7.29-4.15l-2.35-3.06a4.74 4.74 0 0 0-3.76-1.85 4.76 4.76 0 0 0-4.69 4.13 4.73 4.73 0 0 0 .93 3.48l2.74 3.55a5 5 0 0 1-.16-2.1z" class="cls-10"/><circle cx="511.82" cy="162.55" r="10.41" class="cls-2"/><path fill="#afc6c6" d="M511.82 152.14a10.4 10.4 0 0 0-3.37 20.24l7.89-19.2a10.32 10.32 0 0 0-4.52-1.04z" style="mix-blend-mode:color-burn"/><circle cx="511.82" cy="162.55" r="7.46" class="cls-14"/><path d="M515.22 155.91l-5.65 13.75a7.62 7.62 0 0 0 2.25.35 7.46 7.46 0 0 0 3.4-14.1z" class="cls-19"/><path d="M520.13 63l5.58-6s-.66-9.11-4.87-9.27l-4.21-.17L505 59.14s4.29-.86 5.28 2.3a5.09 5.09 0 0 1-1.19 4.77l.77.29 10.27-3.5z" class="cls-3"/><path d="M513.26 62.94a5.1 5.1 0 0 0-.33-6l-2.58-3.18-5.35 5.38s4.29-.86 5.28 2.3a5.09 5.09 0 0 1-1.19 4.77l.77.29 1.44-.5z" class="cls-4"/><path d="M467 247.5l-15.47-56.8-39.62-1a22.58 22.58 0 0 1-22-23.31l.09-2.81 71 8.92a8.38 8.38 0 0 1 7.19 6.79L480 242.83z" class="cls-5"/><path d="M411.92 189.71l39.62 1L467 247.5l5.35-1.93-10.44-56.28a8.39 8.39 0 0 0-7.2-6.78l-63.56-8a22.58 22.58 0 0 0 20.77 15.2z" class="cls-10"/><path d="M420.36 167.4L390 163.59l-.09 2.81a22.57 22.57 0 0 0 19.56 23.11z" class="cls-9"/><path d="M415.37 177.56l-24.21-3c.18.53.39 1.06.61 1.57a22.66 22.66 0 0 0 1.56 3c.29.46.59.92.92 1.36l.06.08a22.06 22.06 0 0 0 2.09 2.44l.1.11c.36.36.74.71 1.12 1l.17.15a22.42 22.42 0 0 0 2.46 1.83l.24.16c.41.25.83.5 1.25.73l.3.15c.41.21.82.42 1.24.6l.17.08c.43.19.87.36 1.32.52l.38.14c.44.15.89.29 1.34.41l.4.1c.41.11.82.2 1.24.28l.29.06c.34.06.7.1 1.05.15z" class="cls-11"/><path d="M464.28 234.72l-.32 5.54.32 6.75 26.36-1.87-10.25-9.76-3.09-2.54-13.02 1.88z" class="cls-9"/><path d="M464.28 234.72l-.32 5.54.32 6.75 26.36-1.87-10.25-9.76-3.09-2.54-13.02 1.88z" class="cls-11"/><path d="M476.48 209.83l-5.59 1.2a4.93 4.93 0 0 0-4.91-1.7l-2.2.48a5 5 0 0 0-3.71 3.55l-5.07 1.08 9 25.82 16.43-4.88z" class="cls-9"/><path d="M476.48 209.83l-5.59 1.2a4.93 4.93 0 0 0-4.91-1.7l-2.2.48a5 5 0 0 0-3.71 3.55l-5.07 1.08 9 25.82 16.43-4.88z" class="cls-11"/><path d="M460.67 213.23l9.2 29.37-2.63.67-.39-1.41a2.31 2.31 0 0 0-2.89-1.6L455 214.44zm9.69-2.14l5.91 29.85 2.71-.81-.15-2a2.82 2.82 0 0 1 1.56-2.76l-3.91-25.55z" class="cls-9"/><path d="M475.87 239.12h6.22A12.94 12.94 0 0 1 495 252.06v2.84h-32.1v-2.84a12.94 12.94 0 0 1 12.97-12.94z" class="cls-9"/><path d="M471 253.88a12.94 12.94 0 0 1 12.94-12.94h4.76a12.83 12.83 0 0 0-6.59-1.82h-6.22a13 13 0 0 0-12.64 15.78h7.95a2.69 2.69 0 0 1-.2-1.02z" class="cls-11"/><path d="M462.93 254.9h32.1v3.8h-32.1z" class="cls-9"/><path d="M462.93 254.9h32.1v1.9h-32.1z" class="cls-11"/><path d="M461.19 221.22l12.04-6.06m-12.74 2.54l13.44.99m-11.29 9.07l12.03-6.06m-12.73 2.53l13.43 1m-11.28 9.07l12.03-6.06m-12.74 2.53l13.44 1" class="cls-12"/><path d="M461.32 234.52h19.21v4.56h-19.21a1.78 1.78 0 0 1-1.78-1.78v-1a1.78 1.78 0 0 1 1.78-1.78z" class="cls-9" transform="rotate(-17.93 470.03 236.8)"/><path d="M461.32 234.52h19.21v4.56h-19.21a1.78 1.78 0 0 1-1.78-1.78v-1a1.78 1.78 0 0 1 1.78-1.78z" class="cls-11" transform="rotate(-17.93 470.03 236.8)"/><path d="M462.42 236.56h2.66v4.56h-2.66z" class="cls-7" transform="rotate(-17.93 463.73 238.82)"/><path d="M462.94 237.19h1.62v3.3h-1.62z" class="cls-8" transform="rotate(-17.93 463.73 238.82)"/><path d="M412.93 161.55c-.76-9.84-4.39-52.2-11.07-58a14.22 14.22 0 0 0-8.32-3.48 50.53 50.53 0 0 0-5.14 3l-5.4 3.51 6 48.63.95 11.19a36.17 36.17 0 0 0 17.5-1l5.66-1.78s-.11-.77-.18-2.07z" class="cls-5"/><path d="M406.54 114.61c-1.34-5.41-2.9-9.54-4.68-11.08a14.22 14.22 0 0 0-8.32-3.48l1.73 15.95zm5.34 35.06c-1.07-10.59-2.84-25-5.33-35l-8.53 10z" class="cls-10"/><path d="M386 131.49l3 23.72.95 11.19a36.26 36.26 0 0 0 9.75.48L393.56 129a17.07 17.07 0 0 0-9.14-22.84l-.5-.2-1 .64 3.08 24.89z" class="cls-10"/><path d="M397.59 144.27h2.23v17.92h-2.23z" class="cls-5" transform="rotate(25.38 398.64 153.2)"/><path d="M398.38 158.84l6.07-12.8-.89-.42-5.46 11.49.28 1.73z" class="cls-10"/><g class="cls-1"><path d="M360.86 148.67s21.72-42.21 22.09-42.09l1.24.56a15.46 15.46 0 0 1 7.23 21.22l-12.25 23.36z" class="cls-5"/><path d="M371 139.69a9.73 9.73 0 0 1 9.73 9.73" class="cls-27"/><path d="M371 139.69a9.73 9.73 0 0 1 9.73 9.73" class="cls-28"/><path d="M374.61 135.94a9.72 9.72 0 0 1 6.14 12.31" class="cls-27"/><path d="M374.61 135.94a9.72 9.72 0 0 1 6.14 12.31" class="cls-28"/><path d="M383.07 131.63a7.44 7.44 0 0 1 9.5-4.53" class="cls-27"/><path d="M383.07 131.63a7.44 7.44 0 0 1 9.5-4.53" class="cls-28"/></g><circle cx="369.28" cy="153.05" r="9.73" class="cls-5"/><circle cx="369.28" cy="153.05" r="9.73" class="cls-10"/><circle cx="372.85" cy="153.79" r="8.46" class="cls-5"/><circle cx="374.61" cy="153.02" r="8.46" class="cls-5"/><circle cx="374.61" cy="153.02" r="8.46" class="cls-10"/><path d="M380.48 156.49l19.92-13.06-2.08-8.18-23.67 10.58a6.09 6.09 0 0 0-3.31 7.44 6.09 6.09 0 0 0 9.14 3.22z" class="cls-3"/><path d="M381.78 151.64a7 7 0 0 1-10.16-2.81 6.09 6.09 0 0 0 8.86 7.66l19.92-13.06-.87-3.43z" class="cls-4"/><path d="M393.19 138.3L407 128.15a6.15 6.15 0 0 1 4.93-1.08l7.46 1.54a3 3 0 0 1 2.35 3.19l-.76 8.1a3.93 3.93 0 0 1-2.2 3.16l-11.88 5.74a4.2 4.2 0 0 1 1.44-5.53 3.55 3.55 0 0 0 .6-.41l-4.75 1.37a6.77 6.77 0 0 1-6.62-1.66z" class="cls-3"/><path d="M393.19 138.3L407 128.15a6.15 6.15 0 0 1 4.93-1.08l7.46 1.54a3 3 0 0 1 2.35 3.19l-.76 8.1a3.93 3.93 0 0 1-2.2 3.16l-11.88 5.74a4.2 4.2 0 0 1 1.44-5.53 3.55 3.55 0 0 0 .6-.41l-4.75 1.37a6.77 6.77 0 0 1-6.62-1.66z" class="cls-3"/><path d="M419.35 128.61l-1-.2c-.08 2.37-.33 7.25-.95 8.39-.83 1.53-7 2.73-12.34 2.73a6.69 6.69 0 0 1-3.44-.91l-4.85 3.18.79.77a6.77 6.77 0 0 0 6.62 1.66l4.75-1.37a3.55 3.55 0 0 1-.6.41 4.2 4.2 0 0 0-1.44 5.53l11.84-5.74a3.93 3.93 0 0 0 2.2-3.16l.76-8.1a3 3 0 0 0-2.34-3.19z" class="cls-4"/><circle cx="407.45" cy="143.32" r="3.43" class="cls-2"/><circle cx="407.45" cy="143.32" r="1.54" class="cls-9"/><path d="M277.72 239H173.15a4.26 4.26 0 0 1 0-8.51h104.57a53.66 53.66 0 0 0 21.94-4.66 100.44 100.44 0 0 1 43.67-8.58l33.83 1a4.25 4.25 0 1 1-.26 8.5l-33.83-1a91.79 91.79 0 0 0-39.95 7.85 62.1 62.1 0 0 1-25.4 5.4z" class="cls-5"/><path d="M341.71 221.33a100.58 100.58 0 0 0-43.71 8.58 53.5 53.5 0 0 1-21.94 4.66H171.54a4.27 4.27 0 0 0-2.57.88 4.25 4.25 0 0 0 4.18 3.55h104.57a62.1 62.1 0 0 0 25.4-5.4 91.79 91.79 0 0 1 39.95-7.85l33.83 1a4.2 4.2 0 0 0 2.7-.89 4.27 4.27 0 0 0-4.06-3.53z" class="cls-10"/><circle cx="366.77" cy="222.53" r="2.88" class="cls-5"/><circle cx="366.77" cy="222.53" r="1.56" class="cls-9"/><path d="M145.9 12.67c-.71-.3-1.42-.58-2.15-.84a.56.56 0 0 0 .25-.33.55.55 0 0 0-.19-.58.57.57 0 0 0 .46-.41.54.54 0 0 0-.32-.65.56.56 0 0 0 .61-.4.57.57 0 0 0-.4-.69l-.37-.11 5.11-5.07c.07-.25-2.79-1.24-6.38-2.21S136-.19 135.91.06l1.84 7-.94-.25a.55.55 0 0 0-.69.39.55.55 0 0 0 .32.65.56.56 0 0 0-.61.4.57.57 0 0 0 .19.59.56.56 0 0 0-.46.4.6.6 0 0 0 .09.47l-1.37-.21a46.47 46.47 0 0 0-32.17 7.27l-1.17.78c-.39.27-.51.38-.76.56l-1 .74-.77.62-.91.75-.77.68-.86.77-.74.72-.82.82-.71.75-.78.86-.67.78-.74.9-.64.82-.71.94-.6.85-.66 1-.56.87-.62 1c-.2.31-.35.59-.52.88s-.39.73-.58 1.1l-.47.89-.55 1.17-.41.88c-.14.3-.35.84-.52 1.26l-.34.86c-.18.47-.34 1-.51 1.43l-.26.74c-.23.72-.45 1.46-.66 2.2a46.56 46.56 0 0 0 9.71 42.7 44.84 44.84 0 0 0 4.76 4.79c.78.67 1.59 1.31 2.42 1.94a46.71 46.71 0 0 0 15.89 7.8c.59.16 1.19.3 1.79.43l1.36.29a46.62 46.62 0 0 0 27.17-88.67z" class="cls-23"/><path d="M145.9 12.67c-.71-.3-1.42-.58-2.15-.84a.56.56 0 0 0 .25-.33.55.55 0 0 0-.19-.58.57.57 0 0 0 .46-.41.54.54 0 0 0-.32-.65.56.56 0 0 0 .61-.4.57.57 0 0 0-.4-.69l-.37-.11 5.11-5.07c.07-.25-2.79-1.24-6.38-2.21S136-.19 135.91.06l1.84 7-.94-.25a.55.55 0 0 0-.69.39.55.55 0 0 0 .32.65.56.56 0 0 0-.61.4.57.57 0 0 0 .19.59.56.56 0 0 0-.46.4.6.6 0 0 0 .09.47l-1.37-.21a46.47 46.47 0 0 0-32.17 7.27l-1.17.78c-.39.27-.51.38-.76.56l-1 .74-.77.62-.91.75-.77.68-.86.77-.74.72-.82.82-.71.75-.78.86-.67.78-.74.9-.64.82-.71.94-.6.85-.66 1-.56.87-.62 1c-.2.31-.35.59-.52.88s-.39.73-.58 1.1l-.47.89-.55 1.17-.41.88c-.14.3-.35.84-.52 1.26l-.34.86c-.18.47-.34 1-.51 1.43l-.26.74c-.23.72-.45 1.46-.66 2.2a46.56 46.56 0 0 0 9.71 42.7 44.84 44.84 0 0 0 4.76 4.79c.78.67 1.59 1.31 2.42 1.94a46.71 46.71 0 0 0 15.89 7.8c.59.16 1.19.3 1.79.43l1.36.29a46.62 46.62 0 0 0 27.17-88.67z" class="cls-29"/><path d="M67.9 46.28c-.85.3-1.69.61-2.53.95a.65.65 0 0 0-.67-.84.65.65 0 0 0-.71-1 .65.65 0 0 0 .22-.82.67.67 0 0 0-.89-.3l-.41.21.48-8.48c-.13-.27-3.41 1.11-7.31 3.08s-6.95 3.77-6.82 4l7.07 4.64-1 .52a.67.67 0 0 0-.29.89.65.65 0 0 0 .8.31.65.65 0 0 0 .4 1.19.67.67 0 0 0-.08.72.68.68 0 0 0 .44.34l-1.36.89a54.69 54.69 0 0 0-22.43 31.65c-.14.53-.28 1.07-.4 1.6l-.23 1.1c-.08.37-.2.93-.28 1.41l-.19 1.15c-.06.38-.15.91-.21 1.37l-.13 1.19c-.04.39-.11.91-.14 1.36l-.09 1.21-.07 1.35c-.02.45 0 .81 0 1.22v2.58c0 .41 0 .91.05 1.37l.09 1.21c0 .46.08.92.12 1.38s.09.8.14 1.21l.2 1.38.19 1.2.27 1.4c.09.47.16.78.25 1.17s.22 1 .34 1.42l.3 1.14c.11.38.28 1 .43 1.45s.22.73.34 1.1.36 1 .54 1.51l.37 1c.21.56.45 1.1.68 1.65l.35.86c.37.81.75 1.63 1.16 2.43a54.82 54.82 0 0 0 49.94 30.12c1.21 0 2.42-.09 3.63-.2a54.1 54.1 0 0 0 7.82-1.24 55 55 0 0 0 12.19-4.33l1.9-1 1.43-.82a54.77 54.77 0 0 0-45.9-98.9z" class="cls-23"/><path d="M67.9 46.28c-.85.3-1.69.61-2.53.95a.65.65 0 0 0-.67-.84.65.65 0 0 0-.71-1 .65.65 0 0 0 .22-.82.67.67 0 0 0-.89-.3l-.41.21.48-8.48c-.13-.27-3.41 1.11-7.31 3.08s-6.95 3.77-6.82 4l7.07 4.64-1 .52a.67.67 0 0 0-.29.89.65.65 0 0 0 .8.31.65.65 0 0 0 .4 1.19.67.67 0 0 0-.08.72.68.68 0 0 0 .44.34l-1.36.89a54.69 54.69 0 0 0-22.43 31.65c-.14.53-.28 1.07-.4 1.6l-.23 1.1c-.08.37-.2.93-.28 1.41l-.19 1.15c-.06.38-.15.91-.21 1.37l-.13 1.19c-.04.39-.11.91-.14 1.36l-.09 1.21-.07 1.35c-.02.45 0 .81 0 1.22v2.58c0 .41 0 .91.05 1.37l.09 1.21c0 .46.08.92.12 1.38s.09.8.14 1.21l.2 1.38.19 1.2.27 1.4c.09.47.16.78.25 1.17s.22 1 .34 1.42l.3 1.14c.11.38.28 1 .43 1.45s.22.73.34 1.1.36 1 .54 1.51l.37 1c.21.56.45 1.1.68 1.65l.35.86c.37.81.75 1.63 1.16 2.43a54.82 54.82 0 0 0 49.94 30.12c1.21 0 2.42-.09 3.63-.2a54.1 54.1 0 0 0 7.82-1.24 55 55 0 0 0 12.19-4.33l1.9-1 1.43-.82a54.77 54.77 0 0 0-45.9-98.9z" class="cls-29"/><circle cx="127.78" cy="97.86" r="54.78" class="cls-23"/><path d="M98.69 54.6a54.2 54.2 0 0 0-3.76-.57 54.77 54.77 0 0 0 22.54 97.63c1.25.24 2.51.42 3.76.57A54.77 54.77 0 0 0 98.69 54.6z" class="cls-29"/><path d="M137.54 46.99l10.35-11.97-15.54-2.98 5.19 14.95z" class="cls-23"/><path d="M136.67 42.44l-2.39-8.81 3.59 7.5.43-4.84 1.22 5.31 4.93-5.27-3.78 7.03-4-.92zm-.12 1.36q-2.66-.42-5.28-.6c-1.06.35-2.12.73-3.16 1.16a41.85 41.85 0 0 0-4.63 2.23 38.61 38.61 0 0 0-4.38 2.85 35.08 35.08 0 0 1 4.55-2.27 37.53 37.53 0 0 1 4.68-1.61 42.5 42.5 0 0 1 4.75-1c1-.16 2-.28 3.06-.37l.27-.23zm2.38.44a19.4 19.4 0 0 1 1.79 2 24.71 24.71 0 0 1 3.18 5.44 24.13 24.13 0 0 1 1.1 3.25 26.83 26.83 0 0 0-1.88-6.76 30.15 30.15 0 0 0-1.46-3v-.08c.36.23.72.46 1.08.71a33.56 33.56 0 0 1 3.23 2.56 30.25 30.25 0 0 1 3 3.09 29.82 29.82 0 0 1 2.67 3.65 36.1 36.1 0 0 0-2.43-4.1 33.61 33.61 0 0 0-2.74-3.64c-.42-.49-.85-1-1.29-1.43a55.77 55.77 0 0 0-6.25-1.69z" class="cls-29"/><path d="M138.59 44.17l-.49-.11-.3-.05v.05c-.54 0-1.1 0-1.66.09a21.9 21.9 0 0 0-1.83 1.79 25.82 25.82 0 0 0-2 2.46 30.8 30.8 0 0 0-1.9 3 22.84 22.84 0 0 1 2-2.49 18.52 18.52 0 0 1 2-1.95 17 17 0 0 1 2.09-1.47 11.09 11.09 0 0 1 2.08-1z" class="cls-29"/><rect width="10.29" height="1.32" x="132.66" y="43.1" class="cls-14" rx=".66" transform="rotate(10.86 137.75 43.75)"/><rect width="10.29" height="1.32" x="132.66" y="43.1" class="cls-19" rx=".66" transform="rotate(10.86 137.75 43.75)"/><rect width="10.29" height="1.32" x="132.89" y="41.91" class="cls-14" rx=".66" transform="rotate(10.86 137.96 42.56)"/><rect width="10.29" height="1.32" x="133.13" y="40.65" class="cls-14" rx=".66" transform="rotate(10.86 138.2 41.27)"/><rect width="10.29" height="1.32" x="133.13" y="40.65" class="cls-19" rx=".66" transform="rotate(10.86 138.2 41.27)"/><ellipse cx="140.12" cy="33.53" class="cls-23" rx=".54" ry="7.91" transform="rotate(-79 140.41 33.6)"/><ellipse cx="140.12" cy="33.53" class="cls-29" rx=".54" ry="7.91" transform="rotate(-79 140.41 33.6)"/><circle cx="150.59" cy="154.16" r="61.76" class="cls-23"/><path d="M170.83 202.24a61.74 61.74 0 0 0-60.58-94.84 61.74 61.74 0 0 0 49.19 107.87 61.72 61.72 0 0 0 11.39-13.03z" class="cls-29"/><path d="M182.49 105.24l15.91-8.07-14.94-9.74-.97 17.81z" class="cls-23"/><path d="M183.52 100.13l1.27-10.21.54 9.35 2.52-4.87-1 6.06 7.41-3.39-6.95 5.72-3.79-2.66zm-.7 1.37c-1.72-1.06-3.48-2-5.26-2.89a59.71 59.71 0 0 0-3.79-.14 46.94 46.94 0 0 0-5.78.35 45.09 45.09 0 0 0-5.79 1.11 41.24 41.24 0 0 1 5.72-.43 43 43 0 0 1 5.58.32 47.79 47.79 0 0 1 5.39 1c1.13.26 2.26.57 3.36.92l.37-.14zm2.29 1.5a21 21 0 0 1 1 2.86 26.4 26.4 0 0 1 .72 3.41 25.18 25.18 0 0 1 .28 3.63 26.47 26.47 0 0 1-.25 3.83 31.77 31.77 0 0 0 .72-4 28.25 28.25 0 0 0 .19-3.87 30.31 30.31 0 0 0-.25-3.72.36.36 0 0 1 0-.1c.28.39.56.79.82 1.2a38 38 0 0 1 2.28 4.06 35.06 35.06 0 0 1 3 9.45 41.49 41.49 0 0 0-.68-5.33 39.35 39.35 0 0 0-1.31-5 31 31 0 0 0-.73-2 62.51 62.51 0 0 0-5.79-4.42z" class="cls-29"/><path d="M184.79 102.75l-.46-.32-.29-.18a30.3 30.3 0 0 0-1.76-.61 27.68 27.68 0 0 0-2.68 1.07 30 30 0 0 0-3.17 1.71 37.8 37.8 0 0 0-3.25 2.27 27.93 27.93 0 0 1 3.14-1.75 22.7 22.7 0 0 1 3-1.15 19.3 19.3 0 0 1 2.8-.64 12.19 12.19 0 0 1 2.59-.13z" class="cls-29"/><rect width="11.6" height="1.49" x="178.34" y="101.24" class="cls-14" rx=".74" transform="rotate(33.11 184.13 101.97)"/><rect width="11.6" height="1.49" x="178.34" y="101.24" class="cls-19" rx=".74" transform="rotate(33.11 184.13 101.97)"/><rect width="11.6" height="1.49" x="179.09" y="100.1" class="cls-14" rx=".74" transform="rotate(33.11 184.86 100.82)"/><rect width="11.6" height="1.49" x="179.88" y="98.89" class="cls-14" rx=".74" transform="rotate(33.11 185.66 99.61)"/><rect width="11.6" height="1.49" x="179.88" y="98.89" class="cls-19" rx=".74" transform="rotate(33.11 185.66 99.61)"/><ellipse cx="190.93" cy="92.3" class="cls-23" rx=".61" ry="8.92" transform="rotate(-56.89 190.94 92.3)"/><ellipse cx="190.93" cy="92.3" class="cls-29" rx=".61" ry="8.92" transform="rotate(-56.89 190.94 92.3)"/><circle cx="92.01" cy="151.67" r="61.76" class="cls-23"/><path d="M50.61 109.94c-1.44 0-2.87.07-4.29.17A61.76 61.76 0 0 0 92 213.43c1.44 0 2.87-.07 4.29-.17a61.76 61.76 0 0 0-45.68-103.32z" class="cls-29"/><path d="M92.01 93.27l8.91-15.45H83.09l8.92 15.45z" class="cls-23"/><path d="M90.08 88.42l-4.51-9.25 5.56 7.54-.55-5.45 2.47 5.62L97.4 80l-2.7 8.58-4.62-.16zm.16 1.58q-3 .09-6 .46c-1.1.61-2.19 1.25-3.25 2a46.58 46.58 0 0 0-4.65 3.45 44.16 44.16 0 0 0-4.25 4.08 41.66 41.66 0 0 1 4.56-3.48 43.35 43.35 0 0 1 4.84-2.77 50.25 50.25 0 0 1 5-2.16c1.09-.39 2.21-.75 3.31-1.06l.24-.31zm2.76-.07a20.51 20.51 0 0 1 2.41 1.84 26.08 26.08 0 0 1 2.46 2.47 25.07 25.07 0 0 1 2.22 2.89 26.82 26.82 0 0 1 1.89 3.34 30.48 30.48 0 0 0-1.58-3.73 28.65 28.65 0 0 0-2-3.34 32.19 32.19 0 0 0-2.24-3 .6.6 0 0 1-.08-.08l1.35.56a37 37 0 0 1 4.13 2.16 35 35 0 0 1 4 2.77 35.75 35.75 0 0 1 3.73 3.49 40.85 40.85 0 0 0-3.47-4.09 39.57 39.57 0 0 0-3.82-3.43c-.57-.46-1.15-.89-1.74-1.31a62.18 62.18 0 0 0-7.26-.54z" class="cls-29"/><path d="M92.57 89.92h-.9V90c-.6.13-1.21.28-1.82.45a27.42 27.42 0 0 0-1.65 2.37 30.05 30.05 0 0 0-1.72 3.15A33.58 33.58 0 0 0 85 99.62a27.76 27.76 0 0 1 1.67-3.18 22.06 22.06 0 0 1 1.86-2.59 20.82 20.82 0 0 1 2-2.07 12.19 12.19 0 0 1 2.1-1.52z" class="cls-29"/><rect width="11.6" height="1.49" x="85.81" y="88.89" class="cls-14" rx=".74"/><rect width="11.6" height="1.49" x="85.81" y="88.89" class="cls-19" rx=".74"/><rect width="11.6" height="1.49" x="85.81" y="87.53" class="cls-14" rx=".74"/><rect width="11.6" height="1.49" x="85.81" y="86.08" class="cls-14" rx=".74"/><rect width="11.6" height="1.49" x="85.81" y="86.08" class="cls-19" rx=".74"/><ellipse cx="92.01" cy="77.82" class="cls-23" rx="8.92" ry=".61"/><ellipse cx="92.01" cy="77.82" class="cls-29" rx="8.92" ry=".61"/><path d="M44.25 229.7h10.24v20.45H44.25z" class="cls-5"/><path d="M44.25 229.7h10.24v13.11H44.25z" class="cls-10"/><path d="M168.24 229.7h10.24v20.45h-10.24z" class="cls-5"/><path d="M168.24 229.7h10.24v13.11h-10.24z" class="cls-10"/><path d="M186.06 258.7H16.18v-8.5h169.88c14.71 0 26.68-14.69 26.68-32.75v-.94h8.5v.94c0 22.74-15.78 41.25-35.18 41.25z" class="cls-5"/><path d="M219.08 216.51c-.33 22.42-16 40.54-35.17 40.54H16.18v1.65h169.88c19.4 0 35.18-18.51 35.18-41.25v-.94z" class="cls-10"/><path d="M38.77 239h146.82L197 195h-59.69a9.35 9.35 0 0 0-9.31-9.4h-8.43a18.9 18.9 0 0 1-18.74-16.46 20.52 20.52 0 0 0-20.34-17.86h-53z" class="cls-5"/><path d="M27.41 151.28L38.77 239h117.32L42.93 151.28H27.41z" class="cls-10"/><path d="M33.38 197.36h163L197 195h-59.69a.28.28 0 0 0 0-.09H33.06zm-2.07-16h76.32a18.68 18.68 0 0 1-2.54-2.49H31zm3.82 29.5l.32 2.49h156.76l.64-2.49H35.13zm153.59 15.99H37.2l.32 2.5h150.56l.64-2.5zM28.91 162.87l.32 2.49h70.69a20 20 0 0 0-1-2.49z" class="cls-10"/><path d="M140.88 190.7a13.64 13.64 0 0 0-12.88-9.35h-8.43A14.69 14.69 0 0 1 105 168.59 24.82 24.82 0 0 0 80.45 147H26.1v4.25h54.35a20.52 20.52 0 0 1 20.34 17.86 18.9 18.9 0 0 0 18.74 16.46H128a9.35 9.35 0 0 1 9.35 9.35h61.05v-4.22z" class="cls-30"/><path d="M199.51 190.7h-58.63a13.64 13.64 0 0 0-12.88-9.35h-8.43A14.69 14.69 0 0 1 105 168.59 24.82 24.82 0 0 0 80.45 147H25.32a2.13 2.13 0 0 0 0 4.25h55.13a20.52 20.52 0 0 1 20.34 17.86 18.9 18.9 0 0 0 18.74 16.46H128a9.35 9.35 0 0 1 9.35 9.35h61.05v-.09h1.15a2.08 2.08 0 1 0 0-4.16z" class="cls-30"/><circle cx="39.74" cy="165.36" r="7.88" class="cls-7"/><circle cx="39.74" cy="165.36" r="5.57" class="cls-30"/><path d="M43.86 159.34v-16.83a6.62 6.62 0 0 0-6.62-6.61H0a5.28 5.28 0 0 0 5.26 5.18h24.27a1.13 1.13 0 1 1 0 2.26h-24a5.2 5.2 0 0 0 5.07 4.07h18.82a1.13 1.13 0 1 1 0 2.26H11.23a5.81 5.81 0 0 0 5.69 4.67h12a1.14 1.14 0 1 1 0 2.27h-9a5.58 5.58 0 0 0 5.46 4.45h18.48zm-8.28 1.72h8.27v4.14a4.14 4.14 0 0 1-4.14 4.14 4.14 4.14 0 0 1-4.14-4.14v-4.14h.01z" class="cls-14"/><path d="M614.11 149.81l27.63 18.86 25.49 7.13 16.82 24.85m-27.72-28.04l-17.25 7.05m-10.09-42.88l2.29 24.75" class="cls-31"/><path d="M607.81 134.55l10.57 7.01 1.18 11.97" class="cls-31"/><path d="M687.4 264.14h56.36a56.46 56.46 0 1 0-56.36 0z" class="cls-14"/><ellipse cx="712.44" cy="163.45" class="cls-2" rx="13.16" ry="4.69"/><path d="M677.87 213.92a61.13 61.13 0 0 1 34.57-55.07 56.46 56.46 0 0 0-25 105.29h16.8a61 61 0 0 1-26.37-50.22z" class="cls-2"/><circle cx="696.48" cy="183.37" r="4.51" class="cls-9"/><circle cx="696.48" cy="183.37" r="3.19" class="cls-11"/><circle cx="695.08" cy="182.44" r=".67" class="cls-9"/><circle cx="697.51" cy="182.04" r=".67" class="cls-9"/><circle cx="695.45" cy="184.69" r=".67" class="cls-9"/><circle cx="697.87" cy="184.3" r=".67" class="cls-9"/><circle cx="691.08" cy="201.89" r="4.51" class="cls-9"/><circle cx="691.08" cy="201.89" r="3.19" class="cls-11"/><circle cx="689.68" cy="200.96" r=".67" class="cls-9"/><circle cx="692.1" cy="200.56" r=".67" class="cls-9"/><circle cx="690.05" cy="203.21" r=".67" class="cls-9"/><circle cx="692.47" cy="202.82" r=".67" class="cls-9"/><path d="M743.33 204.89l23.14-24.16 11.22-23.97 27.27-12.51m-32.2 22.73l17.97 5.14m-4.89-20.81l1.15-8.91 19.74-27.76m-24.21 10.78l5.78 15.14m-18.31 8.6l4.36 14.74" class="cls-31"/><path d="M711.18 174.05v46.35h2.6v-8.25h1.33v8.25h2.61v-8.25h1.33v8.25h2.61v-8.25h1.33v8.25h2.61v-46.35h-14.42z" class="cls-5"/><path d="M711.18 174.05v46.35h2.6v-8.25h1.33v8.25h2.61v-8.25h.67v-38.1h-7.21z" class="cls-10"/><ellipse cx="715.58" cy="163.45" class="cls-5" rx="21.81" ry="16.97"/><path d="M721 174.51c-12 0-21.81-7.6-21.81-17a13.85 13.85 0 0 1 1.73-6.65c-4.38 3.1-7.14 7.58-7.14 12.56 0 9.38 9.76 17 21.81 17 9 0 16.75-4.26 20.07-10.33a25.47 25.47 0 0 1-14.66 4.42z" class="cls-10"/><circle cx="715.58" cy="141.56" r="25.58" class="cls-14"/><path d="M723.71 162.37a25.58 25.58 0 0 1-16.78-44.89 25.58 25.58 0 1 0 25.43 43.38 25.62 25.62 0 0 1-8.65 1.51z" class="cls-2"/><circle cx="720.26" cy="131.69" r="4.51" class="cls-9"/><circle cx="720.26" cy="131.69" r="3.19" class="cls-11"/><circle cx="719.54" cy="130.18" r=".67" class="cls-9"/><circle cx="721.82" cy="131.08" r=".67" class="cls-9"/><circle cx="718.7" cy="132.31" r=".67" class="cls-9"/><circle cx="720.99" cy="133.21" r=".67" class="cls-9"/><circle cx="700.99" cy="128.92" r="4.51" class="cls-9"/><circle cx="700.99" cy="128.92" r="3.19" class="cls-11"/><circle cx="699.56" cy="128.04" r=".67" class="cls-9"/><circle cx="701.96" cy="127.56" r=".67" class="cls-9"/><circle cx="700.01" cy="130.28" r=".67" class="cls-9"/><circle cx="702.42" cy="129.8" r=".67" class="cls-9"/><path d="M667.5 126.45l39 5.17a5 5 0 0 1 3.91 6.95 5 5 0 0 1-6.43 2.61z" class="cls-5"/><path d="M707.21 139.11L680 128.1l-12.46-1.65L704 141.18a5 5 0 0 0 6-1.79 5 5 0 0 1-2.79-.28z" class="cls-10"/><circle cx="724.17" cy="104.03" r="1.36" class="cls-23"/><path d="M722.46 103.58A11.56 11.56 0 0 1 734 115.14v2.56h-23.1v-2.56a11.56 11.56 0 0 1 11.56-11.56z" class="cls-23" transform="rotate(14.52 722.66 110.67)"/><path d="M722.46 103.58a4.32 4.32 0 0 1 4.32 4.32v9.8h-8.64v-9.8a4.32 4.32 0 0 1 4.32-4.32z" class="cls-29" transform="rotate(14.52 722.66 110.67)"/><path d="M693.18 115.44h39.14v1.4h-39.14z" class="cls-23" transform="rotate(14.52 712.96 116.18)"/></g></g></g></svg>
