<svg xmlns="http://www.w3.org/2000/svg" xmlns:xlink="http://www.w3.org/1999/xlink" viewBox="0 0 1920 364.58"><defs><style>.cls-134{fill:url(#Dégradé_sans_nom_39)}.cls-135{fill:#f6f8f7}.cls-136{fill:#afc6c6}</style><linearGradient id="Dégradé_sans_nom_19" x1="28.87" x2="28.87" y2="123.36" gradientUnits="userSpaceOnUse"><stop offset="0" stop-color="#3e997c"/><stop offset="1" stop-color="#207361"/></linearGradient><linearGradient id="Dégradé_sans_nom_21" x1="14.43" y1="31.06" x2="14.43" y2="129.48" gradientUnits="userSpaceOnUse"><stop offset=".62" stop-color="#3e997c"/><stop offset=".83" stop-color="#207361"/></linearGradient><linearGradient id="Dégradé_sans_nom_12" x1="543.89" y1="202.16" x2="541.25" y2="330.97" gradientUnits="userSpaceOnUse"><stop offset="0" stop-color="#207361"/><stop offset=".54" stop-color="#082637"/><stop offset="1" stop-color="#3e997c"/></linearGradient><linearGradient id="Dégradé_sans_nom_12-2" x1="560.39" y1="202.5" x2="557.74" y2="331.31" xlink:href="#Dégradé_sans_nom_12"/><linearGradient id="Dégradé_sans_nom_12-3" x1="574.36" y1="202.79" x2="571.72" y2="331.59" xlink:href="#Dégradé_sans_nom_12"/><linearGradient id="Dégradé_sans_nom_12-4" x1="514.81" y1="201.56" x2="512.16" y2="330.37" xlink:href="#Dégradé_sans_nom_12"/><linearGradient id="Dégradé_sans_nom_12-5" x1="497.59" y1="201.21" x2="494.94" y2="330.02" xlink:href="#Dégradé_sans_nom_12"/><linearGradient id="Dégradé_sans_nom_12-6" x1="528.47" y1="201.84" x2="525.83" y2="330.65" xlink:href="#Dégradé_sans_nom_12"/><linearGradient id="Dégradé_sans_nom_12-7" x1="479.78" y1="200.85" x2="477.14" y2="329.65" xlink:href="#Dégradé_sans_nom_12"/><linearGradient id="Dégradé_sans_nom_12-8" x1="461.45" y1="200.47" x2="458.8" y2="329.28" xlink:href="#Dégradé_sans_nom_12"/><linearGradient id="Dégradé_sans_nom_12-9" x1="584.76" y1="203" x2="582.12" y2="331.81" xlink:href="#Dégradé_sans_nom_12"/><linearGradient id="Dégradé_sans_nom_12-10" x1="901.29" y1="209.49" x2="898.65" y2="338.3" xlink:href="#Dégradé_sans_nom_12"/><linearGradient id="Dégradé_sans_nom_12-11" x1="919.13" y1="209.86" x2="916.49" y2="338.66" xlink:href="#Dégradé_sans_nom_12"/><linearGradient id="Dégradé_sans_nom_12-12" x1="936.96" y1="210.22" x2="934.32" y2="339.03" xlink:href="#Dégradé_sans_nom_12"/><linearGradient id="Dégradé_sans_nom_12-13" x1="867.9" y1="208.81" x2="865.26" y2="337.61" xlink:href="#Dégradé_sans_nom_12"/><linearGradient id="Dégradé_sans_nom_12-14" x1="850.06" y1="208.44" x2="847.42" y2="337.25" xlink:href="#Dégradé_sans_nom_12"/><linearGradient id="Dégradé_sans_nom_12-15" x1="885.74" y1="209.17" x2="883.1" y2="337.98" xlink:href="#Dégradé_sans_nom_12"/><linearGradient id="Dégradé_sans_nom_12-16" x1="841.92" y1="208.27" x2="839.28" y2="337.08" xlink:href="#Dégradé_sans_nom_12"/><linearGradient id="Dégradé_sans_nom_12-17" x1="832.23" y1="208.07" x2="829.58" y2="336.88" xlink:href="#Dégradé_sans_nom_12"/><linearGradient id="Dégradé_sans_nom_12-18" x1="811.87" y1="207.66" x2="809.23" y2="336.46" xlink:href="#Dégradé_sans_nom_12"/><linearGradient id="Dégradé_sans_nom_12-19" x1="954.8" y1="210.59" x2="952.16" y2="339.4" xlink:href="#Dégradé_sans_nom_12"/><linearGradient id="Dégradé_sans_nom_12-20" x1="990.98" y1="211.33" x2="988.34" y2="340.14" xlink:href="#Dégradé_sans_nom_12"/><linearGradient id="Dégradé_sans_nom_12-21" x1="1008.82" y1="211.7" x2="1006.18" y2="340.5" xlink:href="#Dégradé_sans_nom_12"/><linearGradient id="Dégradé_sans_nom_12-22" x1="1026.66" y1="212.06" x2="1024.01" y2="340.87" xlink:href="#Dégradé_sans_nom_12"/><linearGradient id="Dégradé_sans_nom_12-23" x1="955.31" y1="210.6" x2="952.67" y2="339.41" xlink:href="#Dégradé_sans_nom_12"/><linearGradient id="Dégradé_sans_nom_12-24" x1="937.47" y1="210.23" x2="934.83" y2="339.04" xlink:href="#Dégradé_sans_nom_12"/><linearGradient id="Dégradé_sans_nom_12-25" x1="973.14" y1="210.97" x2="970.5" y2="339.77" xlink:href="#Dégradé_sans_nom_12"/><linearGradient id="Dégradé_sans_nom_12-26" x1="919.63" y1="209.87" x2="916.99" y2="338.67" xlink:href="#Dégradé_sans_nom_12"/><linearGradient id="Dégradé_sans_nom_12-27" x1="901.8" y1="209.5" x2="899.15" y2="338.31" xlink:href="#Dégradé_sans_nom_12"/><linearGradient id="Dégradé_sans_nom_12-28" x1="1044.49" y1="212.43" x2="1041.85" y2="341.24" xlink:href="#Dégradé_sans_nom_12"/><linearGradient id="Dégradé_sans_nom_12-29" x1="680.56" y1="204.96" x2="677.92" y2="333.77" xlink:href="#Dégradé_sans_nom_12"/><linearGradient id="Dégradé_sans_nom_12-30" x1="698.4" y1="205.33" x2="695.76" y2="334.14" xlink:href="#Dégradé_sans_nom_12"/><linearGradient id="Dégradé_sans_nom_12-31" x1="716.23" y1="205.7" x2="713.59" y2="334.5" xlink:href="#Dégradé_sans_nom_12"/><linearGradient id="Dégradé_sans_nom_12-32" x1="644.89" y1="204.23" x2="642.24" y2="333.04" xlink:href="#Dégradé_sans_nom_12"/><linearGradient id="Dégradé_sans_nom_12-33" x1="621.31" y1="203.75" x2="618.67" y2="332.56" xlink:href="#Dégradé_sans_nom_12"/><linearGradient id="Dégradé_sans_nom_12-34" x1="662.72" y1="204.6" x2="660.08" y2="333.4" xlink:href="#Dégradé_sans_nom_12"/><linearGradient id="Dégradé_sans_nom_12-35" x1="612.69" y1="203.57" x2="610.05" y2="332.38" xlink:href="#Dégradé_sans_nom_12"/><linearGradient id="Dégradé_sans_nom_12-36" x1="591.38" y1="203.13" x2="588.73" y2="331.94" xlink:href="#Dégradé_sans_nom_12"/><linearGradient id="Dégradé_sans_nom_12-37" x1="734.07" y1="206.06" x2="731.43" y2="334.87" xlink:href="#Dégradé_sans_nom_12"/><linearGradient id="Dégradé_sans_nom_12-38" x1="1090.09" y1="213.36" x2="1087.45" y2="342.17" xlink:href="#Dégradé_sans_nom_12"/><linearGradient id="Dégradé_sans_nom_12-39" x1="1108.9" y1="213.75" x2="1106.26" y2="342.56" xlink:href="#Dégradé_sans_nom_12"/><linearGradient id="Dégradé_sans_nom_12-40" x1="1109.93" y1="213.77" x2="1107.29" y2="342.58" xlink:href="#Dégradé_sans_nom_12"/><linearGradient id="Dégradé_sans_nom_12-41" x1="1135.46" y1="214.29" x2="1132.82" y2="343.1" xlink:href="#Dégradé_sans_nom_12"/><linearGradient id="Dégradé_sans_nom_12-42" x1="1054.3" y1="212.63" x2="1051.66" y2="341.44" xlink:href="#Dégradé_sans_nom_12"/><linearGradient id="Dégradé_sans_nom_12-43" x1="1041.77" y1="212.37" x2="1039.13" y2="341.18" xlink:href="#Dégradé_sans_nom_12"/><linearGradient id="Dégradé_sans_nom_12-44" x1="1072.48" y1="213" x2="1069.83" y2="341.81" xlink:href="#Dégradé_sans_nom_12"/><linearGradient id="Dégradé_sans_nom_12-45" x1="1027.9" y1="212.09" x2="1025.26" y2="340.9" xlink:href="#Dégradé_sans_nom_12"/><linearGradient id="Dégradé_sans_nom_12-46" x1="1010.06" y1="211.72" x2="1007.42" y2="340.53" xlink:href="#Dégradé_sans_nom_12"/><linearGradient id="Dégradé_sans_nom_12-47" x1="1153.14" y1="214.66" x2="1150.49" y2="343.46" xlink:href="#Dégradé_sans_nom_12"/><linearGradient id="Dégradé_sans_nom_12-48" x1="1316.48" y1="218.01" x2="1313.84" y2="346.82" xlink:href="#Dégradé_sans_nom_12"/><linearGradient id="Dégradé_sans_nom_12-49" x1="1334.32" y1="218.37" x2="1331.68" y2="347.18" xlink:href="#Dégradé_sans_nom_12"/><linearGradient id="Dégradé_sans_nom_12-50" x1="1352.16" y1="218.74" x2="1349.51" y2="347.55" xlink:href="#Dégradé_sans_nom_12"/><linearGradient id="Dégradé_sans_nom_12-51" x1="1280.81" y1="217.28" x2="1278.17" y2="346.08" xlink:href="#Dégradé_sans_nom_12"/><linearGradient id="Dégradé_sans_nom_12-52" x1="1262.97" y1="216.91" x2="1260.33" y2="345.72" xlink:href="#Dégradé_sans_nom_12"/><linearGradient id="Dégradé_sans_nom_12-53" x1="1298.65" y1="217.64" x2="1296" y2="346.45" xlink:href="#Dégradé_sans_nom_12"/><linearGradient id="Dégradé_sans_nom_12-54" x1="1245.13" y1="216.54" x2="1242.49" y2="345.35" xlink:href="#Dégradé_sans_nom_12"/><linearGradient id="Dégradé_sans_nom_12-55" x1="1227.3" y1="216.18" x2="1224.66" y2="344.99" xlink:href="#Dégradé_sans_nom_12"/><linearGradient id="Dégradé_sans_nom_12-56" x1="1369.99" y1="219.11" x2="1367.35" y2="347.91" xlink:href="#Dégradé_sans_nom_12"/><linearGradient id="Dégradé_sans_nom_12-57" x1="1363.3" y1="218.97" x2="1360.66" y2="347.78" xlink:href="#Dégradé_sans_nom_12"/><linearGradient id="Dégradé_sans_nom_12-58" x1="1280.01" y1="217.26" x2="1277.37" y2="346.07" xlink:href="#Dégradé_sans_nom_12"/><linearGradient id="Dégradé_sans_nom_12-59" x1="1297.85" y1="217.63" x2="1295.21" y2="346.43" xlink:href="#Dégradé_sans_nom_12"/><linearGradient id="Dégradé_sans_nom_12-60" x1="1315.69" y1="217.99" x2="1313.04" y2="346.8" xlink:href="#Dégradé_sans_nom_12"/><linearGradient id="Dégradé_sans_nom_12-61" x1="1244.34" y1="216.53" x2="1241.7" y2="345.34" xlink:href="#Dégradé_sans_nom_12"/><linearGradient id="Dégradé_sans_nom_12-62" x1="1226.5" y1="216.16" x2="1223.86" y2="344.97" xlink:href="#Dégradé_sans_nom_12"/><linearGradient id="Dégradé_sans_nom_12-63" x1="1262.17" y1="216.89" x2="1259.53" y2="345.7" xlink:href="#Dégradé_sans_nom_12"/><linearGradient id="Dégradé_sans_nom_12-64" x1="1208.66" y1="215.8" x2="1206.02" y2="344.6" xlink:href="#Dégradé_sans_nom_12"/><linearGradient id="Dégradé_sans_nom_12-65" x1="1190.83" y1="215.43" x2="1188.18" y2="344.24" xlink:href="#Dégradé_sans_nom_12"/><linearGradient id="Dégradé_sans_nom_12-66" x1="1174" y1="215.09" x2="1171.35" y2="343.89" xlink:href="#Dégradé_sans_nom_12"/><linearGradient id="Dégradé_sans_nom_12-67" x1="1128" y1="214.14" x2="1125.36" y2="342.95" xlink:href="#Dégradé_sans_nom_12"/><linearGradient id="Dégradé_sans_nom_12-68" x1="1140.98" y1="214.41" x2="1138.34" y2="343.22" xlink:href="#Dégradé_sans_nom_12"/><linearGradient id="Dégradé_sans_nom_12-69" x1="1157.7" y1="214.75" x2="1155.06" y2="343.56" xlink:href="#Dégradé_sans_nom_12"/><linearGradient id="Dégradé_sans_nom_12-70" x1="1333.52" y1="218.36" x2="1330.88" y2="347.16" xlink:href="#Dégradé_sans_nom_12"/><linearGradient id="Dégradé_sans_nom_12-71" x1="1395.95" y1="219.64" x2="1393.31" y2="348.45" xlink:href="#Dégradé_sans_nom_12"/><linearGradient id="Dégradé_sans_nom_12-72" x1="1507" y1="221.92" x2="1504.36" y2="350.72" xlink:href="#Dégradé_sans_nom_12"/><linearGradient id="Dégradé_sans_nom_12-73" x1="1519.13" y1="222.17" x2="1516.49" y2="350.97" xlink:href="#Dégradé_sans_nom_12"/><linearGradient id="Dégradé_sans_nom_12-74" x1="1531.26" y1="222.41" x2="1528.61" y2="351.22" xlink:href="#Dégradé_sans_nom_12"/><linearGradient id="Dégradé_sans_nom_12-75" x1="1482.75" y1="221.42" x2="1480.11" y2="350.23" xlink:href="#Dégradé_sans_nom_12"/><linearGradient id="Dégradé_sans_nom_12-76" x1="1470.63" y1="221.17" x2="1467.98" y2="349.98" xlink:href="#Dégradé_sans_nom_12"/><linearGradient id="Dégradé_sans_nom_12-77" x1="1494.88" y1="221.67" x2="1492.24" y2="350.47" xlink:href="#Dégradé_sans_nom_12"/><linearGradient id="Dégradé_sans_nom_12-78" x1="1458.5" y1="220.92" x2="1455.86" y2="349.73" xlink:href="#Dégradé_sans_nom_12"/><linearGradient id="Dégradé_sans_nom_12-79" x1="1446.37" y1="220.67" x2="1443.73" y2="349.48" xlink:href="#Dégradé_sans_nom_12"/><linearGradient id="Dégradé_sans_nom_12-80" x1="1482.21" y1="221.41" x2="1479.57" y2="350.21" xlink:href="#Dégradé_sans_nom_12"/><linearGradient id="Dégradé_sans_nom_12-81" x1="1494.34" y1="221.66" x2="1491.69" y2="350.46" xlink:href="#Dégradé_sans_nom_12"/><linearGradient id="Dégradé_sans_nom_12-82" x1="1506.46" y1="221.91" x2="1503.82" y2="350.71" xlink:href="#Dégradé_sans_nom_12"/><linearGradient id="Dégradé_sans_nom_12-83" x1="1457.96" y1="220.91" x2="1455.31" y2="349.72" xlink:href="#Dégradé_sans_nom_12"/><linearGradient id="Dégradé_sans_nom_12-84" x1="1445.83" y1="220.66" x2="1443.19" y2="349.47" xlink:href="#Dégradé_sans_nom_12"/><linearGradient id="Dégradé_sans_nom_12-85" x1="1470.08" y1="221.16" x2="1467.44" y2="349.97" xlink:href="#Dégradé_sans_nom_12"/><linearGradient id="Dégradé_sans_nom_12-86" x1="1433.7" y1="220.41" x2="1431.06" y2="349.22" xlink:href="#Dégradé_sans_nom_12"/><linearGradient id="Dégradé_sans_nom_12-87" x1="1421.58" y1="220.16" x2="1418.94" y2="348.97" xlink:href="#Dégradé_sans_nom_12"/><linearGradient id="Dégradé_sans_nom_12-88" x1="1410.14" y1="219.93" x2="1407.49" y2="348.74" xlink:href="#Dégradé_sans_nom_12"/><linearGradient id="Dégradé_sans_nom_12-89" x1="1387.69" y1="219.47" x2="1385.05" y2="348.28" xlink:href="#Dégradé_sans_nom_12"/><linearGradient id="Dégradé_sans_nom_12-90" x1="1399.06" y1="219.7" x2="1396.41" y2="348.51" xlink:href="#Dégradé_sans_nom_12"/><linearGradient id="Dégradé_sans_nom_12-91" x1="1518.59" y1="222.15" x2="1515.95" y2="350.96" xlink:href="#Dégradé_sans_nom_12"/><linearGradient id="Dégradé_sans_nom_12-92" x1="350.93" y1="198.2" x2="348.29" y2="327.01" xlink:href="#Dégradé_sans_nom_12"/><linearGradient id="Dégradé_sans_nom_12-93" x1="461.98" y1="200.48" x2="459.34" y2="329.29" xlink:href="#Dégradé_sans_nom_12"/><linearGradient id="Dégradé_sans_nom_12-94" x1="474.1" y1="200.73" x2="471.46" y2="329.54" xlink:href="#Dégradé_sans_nom_12"/><linearGradient id="Dégradé_sans_nom_12-95" x1="486.23" y1="200.98" x2="483.59" y2="329.78" xlink:href="#Dégradé_sans_nom_12"/><linearGradient id="Dégradé_sans_nom_12-96" x1="437.73" y1="199.98" x2="435.08" y2="328.79" xlink:href="#Dégradé_sans_nom_12"/><linearGradient id="Dégradé_sans_nom_12-97" x1="425.6" y1="199.73" x2="422.96" y2="328.54" xlink:href="#Dégradé_sans_nom_12"/><linearGradient id="Dégradé_sans_nom_12-98" x1="449.85" y1="200.23" x2="447.21" y2="329.04" xlink:href="#Dégradé_sans_nom_12"/><linearGradient id="Dégradé_sans_nom_12-99" x1="413.47" y1="199.48" x2="410.83" y2="328.29" xlink:href="#Dégradé_sans_nom_12"/><linearGradient id="Dégradé_sans_nom_12-100" x1="401.35" y1="199.24" x2="398.7" y2="328.04" xlink:href="#Dégradé_sans_nom_12"/><linearGradient id="Dégradé_sans_nom_12-101" x1="437.18" y1="199.97" x2="434.54" y2="328.78" xlink:href="#Dégradé_sans_nom_12"/><linearGradient id="Dégradé_sans_nom_12-102" x1="449.31" y1="200.22" x2="446.67" y2="329.03" xlink:href="#Dégradé_sans_nom_12"/><linearGradient id="Dégradé_sans_nom_12-103" x1="461.44" y1="200.47" x2="458.79" y2="329.28" xlink:href="#Dégradé_sans_nom_12"/><linearGradient id="Dégradé_sans_nom_12-104" x1="412.93" y1="199.47" x2="410.29" y2="328.28" xlink:href="#Dégradé_sans_nom_12"/><linearGradient id="Dégradé_sans_nom_12-105" x1="400.81" y1="199.23" x2="398.16" y2="328.03" xlink:href="#Dégradé_sans_nom_12"/><linearGradient id="Dégradé_sans_nom_12-106" x1="425.06" y1="199.72" x2="422.42" y2="328.53" xlink:href="#Dégradé_sans_nom_12"/><linearGradient id="Dégradé_sans_nom_12-107" x1="388.68" y1="198.98" x2="386.04" y2="327.78" xlink:href="#Dégradé_sans_nom_12"/><linearGradient id="Dégradé_sans_nom_12-108" x1="376.55" y1="198.73" x2="373.91" y2="327.53" xlink:href="#Dégradé_sans_nom_12"/><linearGradient id="Dégradé_sans_nom_12-109" x1="365.11" y1="198.49" x2="362.47" y2="327.3" xlink:href="#Dégradé_sans_nom_12"/><linearGradient id="Dégradé_sans_nom_12-110" x1="342.66" y1="198.03" x2="340.02" y2="326.84" xlink:href="#Dégradé_sans_nom_12"/><linearGradient id="Dégradé_sans_nom_12-111" x1="354.03" y1="198.27" x2="351.39" y2="327.07" xlink:href="#Dégradé_sans_nom_12"/><linearGradient id="Dégradé_sans_nom_12-112" x1="473.56" y1="200.72" x2="470.92" y2="329.52" xlink:href="#Dégradé_sans_nom_12"/><linearGradient id="Dégradé_sans_nom_12-113" x1="775.73" y1="206.92" x2="773.09" y2="335.72" xlink:href="#Dégradé_sans_nom_12"/><linearGradient id="Dégradé_sans_nom_12-114" x1="793.57" y1="207.28" x2="790.93" y2="336.09" xlink:href="#Dégradé_sans_nom_12"/><linearGradient id="Dégradé_sans_nom_12-115" x1="740.06" y1="206.18" x2="737.42" y2="334.99" xlink:href="#Dégradé_sans_nom_12"/><linearGradient id="Dégradé_sans_nom_12-116" x1="722.22" y1="205.82" x2="719.58" y2="334.63" xlink:href="#Dégradé_sans_nom_12"/><linearGradient id="Dégradé_sans_nom_12-117" x1="757.9" y1="206.55" x2="755.25" y2="335.36" xlink:href="#Dégradé_sans_nom_12"/><linearGradient id="Dégradé_sans_nom_12-118" x1="704.39" y1="205.45" x2="701.74" y2="334.26" xlink:href="#Dégradé_sans_nom_12"/><linearGradient id="Dégradé_sans_nom_12-119" x1="686.55" y1="205.09" x2="683.91" y2="333.89" xlink:href="#Dégradé_sans_nom_12"/><linearGradient id="Dégradé_sans_nom_12-120" x1="831.53" y1="208.06" x2="828.89" y2="336.87" xlink:href="#Dégradé_sans_nom_12"/><linearGradient id="Dégradé_sans_nom_12-121" x1="1468.64" y1="221.13" x2="1466" y2="349.94" xlink:href="#Dégradé_sans_nom_12"/><linearGradient id="Dégradé_sans_nom_12-122" x1="1486.48" y1="221.5" x2="1483.84" y2="350.3" xlink:href="#Dégradé_sans_nom_12"/><linearGradient id="Dégradé_sans_nom_12-123" x1="1504.42" y1="221.86" x2="1501.78" y2="350.67" xlink:href="#Dégradé_sans_nom_12"/><linearGradient id="Dégradé_sans_nom_12-124" x1="1432.97" y1="220.4" x2="1430.33" y2="349.2" xlink:href="#Dégradé_sans_nom_12"/><linearGradient id="Dégradé_sans_nom_12-125" x1="1415.13" y1="220.03" x2="1412.49" y2="348.84" xlink:href="#Dégradé_sans_nom_12"/><linearGradient id="Dégradé_sans_nom_12-126" x1="1450.81" y1="220.76" x2="1448.17" y2="349.57" xlink:href="#Dégradé_sans_nom_12"/><linearGradient id="Dégradé_sans_nom_12-127" x1="1397.3" y1="219.67" x2="1394.65" y2="348.47" xlink:href="#Dégradé_sans_nom_12"/><linearGradient id="Dégradé_sans_nom_12-128" x1="1379.46" y1="219.3" x2="1376.82" y2="348.11" xlink:href="#Dégradé_sans_nom_12"/><linearGradient id="Dégradé_sans_nom_12-129" x1="1522.16" y1="222.23" x2="1519.51" y2="351.03" xlink:href="#Dégradé_sans_nom_12"/><linearGradient id="Dégradé_sans_nom_12-130" x1="564.26" y1="202.58" x2="561.62" y2="331.39" xlink:href="#Dégradé_sans_nom_12"/><linearGradient id="Dégradé_sans_nom_39" x1="932.73" y1="238.58" x2="934.05" y2="336.34" gradientUnits="userSpaceOnUse"><stop offset="0" stop-color="#082637"/><stop offset=".2" stop-color="#092a38"/><stop offset=".39" stop-color="#0d353a"/><stop offset=".57" stop-color="#13473e"/><stop offset=".61" stop-color="#154c3f"/><stop offset=".75" stop-color="#236653"/><stop offset="1" stop-color="#3e997c"/></linearGradient><symbol id="grand_sapin" data-name="grand sapin" viewBox="0 0 57.74 123.42"><path fill="url(#Dégradé_sans_nom_19)" d="M28.87 0L0 123.36h57.74L28.87 0z"/><path d="M28.42 123.36s-28.58.13-28.42 0S28.87 0 28.87 0z" fill="url(#Dégradé_sans_nom_21)"/><path d="M5.72 98.94l-.22.94L28.44 114v9.35h.9v-3.21l24.86-11.92-.21-.88-24.68 12.17V105.1l19.55-19.68-.26-1.1-19.31 20-.06-30.82 12.09-20.31-.32-1.38-11.77 20.55V56.41l-.05-25.25.09.06 5.2-7.34-.3-1.3-5 7.71s.08-17.77 0-23.69c0-1.64-.25-6.53-.25-6.53s-.22 4.89-.25 6.53c-.13 6.09 0 24.38 0 24.38L23 25.18l-.21.88 5.8 5.63V55.4l-9.46-13.79-.26 1.13 9.66 13.69-.05 31.91L13 67.78l-.27 1.15 15.75 20.38v24z" fill="#082637"/></symbol></defs><g id="Calque_2" data-name="Calque 2"><g id="sapin"><path fill="url(#Dégradé_sans_nom_12)" d="M540.88 269.12l-28.99 79.58h57.99l-29-79.58z"/><path fill="url(#Dégradé_sans_nom_12-2)" d="M557.44 285.22l-25.05 60.91h50.1l-25.05-60.91z"/><path fill="url(#Dégradé_sans_nom_12-3)" d="M571.42 293.29l-23.34 52.84h46.68l-23.34-52.84z"/><path fill="url(#Dégradé_sans_nom_12-4)" d="M511.91 257.79l-30.15 85.04h60.3l-30.15-85.04z"/><path fill="url(#Dégradé_sans_nom_12-5)" d="M495.2 247.03l-27.06 70.43h54.12l-27.06-70.43z"/><path fill="url(#Dégradé_sans_nom_12-6)" d="M526.03 265.81l-23.75 54.77h47.5l-23.75-54.77z"/><path fill="url(#Dégradé_sans_nom_12-7)" d="M476.9 261.6l-28.99 79.59h57.99l-29-79.59z"/><path fill="url(#Dégradé_sans_nom_12-8)" d="M458.57 273.25l-26.38 67.25h52.77l-26.39-67.25z"/><path fill="url(#Dégradé_sans_nom_12-9)" d="M581.64 300.26l-23.8 55h47.6l-23.8-55z"/><path fill="url(#Dégradé_sans_nom_12-10)" d="M898.59 261.71l-29 79.59h57.99l-28.99-79.59z"/><path fill="url(#Dégradé_sans_nom_12-11)" d="M916.43 280.38l-25.05 60.92h50.1l-25.05-60.92z"/><path fill="url(#Dégradé_sans_nom_12-12)" d="M934.28 288.46l-23.35 52.84h46.69l-23.34-52.84z"/><path fill="url(#Dégradé_sans_nom_12-13)" d="M865.47 242.09l-30.14 85.05h60.29l-30.15-85.05z"/><path fill="url(#Dégradé_sans_nom_12-14)" d="M847.63 256.71l-27.06 70.43h54.12l-27.06-70.43z"/><path fill="url(#Dégradé_sans_nom_12-15)" d="M883.32 272.37l-23.75 54.77h47.5l-23.75-54.77z"/><path fill="url(#Dégradé_sans_nom_12-16)" d="M839.11 290.83l-23.75 54.77h47.5l-23.75-54.77z"/><path fill="url(#Dégradé_sans_nom_12-17)" d="M829.78 247.55l-28.99 79.59h57.99l-29-79.59z"/><path fill="url(#Dégradé_sans_nom_12-18)" d="M809.37 262.46l-26.39 67.25h52.77l-26.38-67.25z"/><path fill="url(#Dégradé_sans_nom_12-19)" d="M952.12 286.3l-23.8 55h47.6l-23.8-55z"/><path fill="url(#Dégradé_sans_nom_12-20)" d="M988.32 261.71l-29 79.59h57.99l-28.99-79.59z"/><path fill="url(#Dégradé_sans_nom_12-21)" d="M1006.16 280.38l-25.05 60.92h50.1l-25.05-60.92z"/><path fill="url(#Dégradé_sans_nom_12-22)" d="M1024.01 288.46l-23.35 52.84h46.69l-23.34-52.84z"/><path fill="url(#Dégradé_sans_nom_12-23)" d="M952.63 256.26l-30.15 85.04h60.29l-30.14-85.04z"/><path fill="url(#Dégradé_sans_nom_12-24)" d="M934.78 270.87l-27.06 70.43h54.12l-27.06-70.43z"/><path fill="url(#Dégradé_sans_nom_12-25)" d="M970.47 286.53l-23.75 54.77h47.5l-23.75-54.77z"/><path fill="url(#Dégradé_sans_nom_12-26)" d="M916.94 261.71l-29 79.59h57.99l-28.99-79.59z"/><path fill="url(#Dégradé_sans_nom_12-27)" d="M899.09 274.05l-26.38 67.25h52.77l-26.39-67.25z"/><path fill="url(#Dégradé_sans_nom_12-28)" d="M1041.85 286.3l-23.8 55h47.6l-23.8-55z"/><path fill="url(#Dégradé_sans_nom_12-29)" d="M677.76 261.71l-28.99 79.59h57.99l-29-79.59z"/><path fill="url(#Dégradé_sans_nom_12-30)" d="M695.61 280.38l-25.05 60.92h50.1l-25.05-60.92z"/><path fill="url(#Dégradé_sans_nom_12-31)" d="M713.45 288.46l-23.34 52.84h46.69l-23.35-52.84z"/><path fill="url(#Dégradé_sans_nom_12-32)" d="M642.08 256.26l-30.15 85.04h60.29l-30.14-85.04z"/><path fill="url(#Dégradé_sans_nom_12-33)" d="M618.49 270.87l-27.06 70.43h54.12l-27.06-70.43z"/><path fill="url(#Dégradé_sans_nom_12-34)" d="M659.92 286.53l-23.75 54.77h47.5l-23.75-54.77z"/><path fill="url(#Dégradé_sans_nom_12-35)" d="M609.85 262.5l-28.99 79.58h57.99l-29-79.58z"/><path fill="url(#Dégradé_sans_nom_12-36)" d="M588.54 274.05l-26.39 67.25h52.78l-26.39-67.25z"/><path fill="url(#Dégradé_sans_nom_12-37)" d="M731.3 286.3l-23.8 55h47.6l-23.8-55z"/><path fill="url(#Dégradé_sans_nom_12-38)" d="M1087.37 266.29l-28.99 79.59h57.99l-29-79.59z"/><path fill="url(#Dégradé_sans_nom_12-39)" d="M1106.22 283.34l-25.05 60.91h50.1l-25.05-60.91z"/><path fill="url(#Dégradé_sans_nom_12-40)" d="M1107.69 262.24l-25.05 60.91h50.1l-25.05-60.91z"/><path fill="url(#Dégradé_sans_nom_12-41)" d="M1132.81 290.33l-23.34 52.84h46.69l-23.35-52.84z"/><path fill="url(#Dégradé_sans_nom_12-42)" d="M1051.78 250.51l-30.15 85.04h60.3l-30.15-85.04z"/><path fill="url(#Dégradé_sans_nom_12-43)" d="M1039.62 246.68l-27.06 70.42h54.12l-27.06-70.42z"/><path fill="url(#Dégradé_sans_nom_12-44)" d="M1070.01 278.7l-23.76 54.77h47.51l-23.75-54.77z"/><path fill="url(#Dégradé_sans_nom_12-45)" d="M1025.75 237.51l-29 79.59h57.99l-28.99-79.59z"/><path fill="url(#Dégradé_sans_nom_12-46)" d="M1007.9 249.85l-26.39 67.25h52.78l-26.39-67.25z"/><path fill="url(#Dégradé_sans_nom_12-47)" d="M1150.66 280.43l-23.8 55h47.6l-23.8-55z"/><path fill="url(#Dégradé_sans_nom_12-48)" d="M1314.45 237.51l-28.99 79.59h57.98l-28.99-79.59z"/><path fill="url(#Dégradé_sans_nom_12-49)" d="M1332.29 256.19l-25.05 60.91h50.1l-25.05-60.91z"/><path fill="url(#Dégradé_sans_nom_12-50)" d="M1350.14 264.26l-23.34 52.84h46.68l-23.34-52.84z"/><path fill="url(#Dégradé_sans_nom_12-51)" d="M1278.76 232.06l-30.15 85.04h60.3l-30.15-85.04z"/><path fill="url(#Dégradé_sans_nom_12-52)" d="M1260.92 246.68l-27.06 70.42h54.12l-27.06-70.42z"/><path fill="url(#Dégradé_sans_nom_12-53)" d="M1296.61 262.34l-23.75 54.76h47.5l-23.75-54.76z"/><path fill="url(#Dégradé_sans_nom_12-54)" d="M1243.07 237.51l-28.99 79.59h57.99l-29-79.59z"/><path fill="url(#Dégradé_sans_nom_12-55)" d="M1225.23 249.85l-26.39 67.25h52.78l-26.39-67.25z"/><path fill="url(#Dégradé_sans_nom_12-56)" d="M1367.98 262.1l-23.8 55h47.6l-23.8-55z"/><path fill="url(#Dégradé_sans_nom_12-57)" d="M1360.85 283.35l-23.8 55.01h47.6l-23.8-55.01z"/><path fill="url(#Dégradé_sans_nom_12-58)" d="M1277.47 261.71l-29 79.59h57.99l-28.99-79.59z"/><path fill="url(#Dégradé_sans_nom_12-59)" d="M1295.31 280.38l-25.05 60.92h50.1l-25.05-60.92z"/><path fill="url(#Dégradé_sans_nom_12-60)" d="M1313.16 288.46l-23.35 52.84h46.69l-23.34-52.84z"/><path fill="url(#Dégradé_sans_nom_12-61)" d="M1241.78 256.26l-30.15 85.04h60.3l-30.15-85.04z"/><path fill="url(#Dégradé_sans_nom_12-62)" d="M1223.93 270.87l-27.05 70.43h54.11l-27.06-70.43z"/><path fill="url(#Dégradé_sans_nom_12-63)" d="M1259.62 286.53l-23.75 54.77h47.5l-23.75-54.77z"/><path fill="url(#Dégradé_sans_nom_12-64)" d="M1206.09 261.71l-28.99 79.59h57.98l-28.99-79.59z"/><path fill="url(#Dégradé_sans_nom_12-65)" d="M1188.24 274.05l-26.38 67.25h52.77l-26.39-67.25z"/><path fill="url(#Dégradé_sans_nom_12-66)" d="M1171.41 274.05l-26.39 67.25h52.78l-26.39-67.25z"/><path fill="url(#Dégradé_sans_nom_12-67)" d="M1125.67 260.49l-26.39 67.25h52.78l-26.39-67.25z"/><path fill="url(#Dégradé_sans_nom_12-68)" d="M1138.54 266.13l-26.39 67.25h52.78l-26.39-67.25z"/><path fill="url(#Dégradé_sans_nom_12-69)" d="M1155.63 248.26l-26.39 67.25h52.78l-26.39-67.25z"/><path fill="url(#Dégradé_sans_nom_12-70)" d="M1331 286.3l-23.8 55h47.6l-23.8-55z"/><path fill="url(#Dégradé_sans_nom_12-71)" d="M1394.03 276.28l-16.18 37.39h32.36l-16.18-37.39z"/><path fill="url(#Dégradé_sans_nom_12-72)" d="M1505.38 247.1l-19.71 54.11h39.42l-19.71-54.11z"/><path fill="url(#Dégradé_sans_nom_12-73)" d="M1517.51 259.8l-17.03 41.41h34.06l-17.03-41.41z"/><path fill="url(#Dégradé_sans_nom_12-74)" d="M1529.64 265.29l-15.87 35.92h31.74l-15.87-35.92z"/><path fill="url(#Dégradé_sans_nom_12-75)" d="M1481.12 243.39l-20.5 57.82h40.99l-20.49-57.82z"/><path fill="url(#Dégradé_sans_nom_12-76)" d="M1468.98 253.33l-18.39 47.88h36.79l-18.4-47.88z"/><path fill="url(#Dégradé_sans_nom_12-77)" d="M1493.25 263.98l-16.15 37.23h32.29l-16.14-37.23z"/><path fill="url(#Dégradé_sans_nom_12-78)" d="M1456.85 247.1l-19.71 54.11h39.42l-19.71-54.11z"/><path fill="url(#Dégradé_sans_nom_12-79)" d="M1444.72 255.49l-17.94 45.72h35.88l-17.94-45.72z"/><path fill="url(#Dégradé_sans_nom_12-80)" d="M1480.23 263.56l-19.71 54.1h39.43l-19.72-54.1z"/><path fill="url(#Dégradé_sans_nom_12-81)" d="M1492.37 276.25l-17.03 41.41h34.06l-17.03-41.41z"/><path fill="url(#Dégradé_sans_nom_12-82)" d="M1504.5 281.74l-15.87 35.92h31.74l-15.87-35.92z"/><path fill="url(#Dégradé_sans_nom_12-83)" d="M1455.97 259.85l-20.49 57.81h40.99l-20.5-57.81z"/><path fill="url(#Dégradé_sans_nom_12-84)" d="M1443.84 269.78l-18.4 47.88h36.8l-18.4-47.88z"/><path fill="url(#Dégradé_sans_nom_12-85)" d="M1468.1 280.43l-16.14 37.23h32.29l-16.15-37.23z"/><path fill="url(#Dégradé_sans_nom_12-86)" d="M1431.71 263.56l-19.71 54.1h39.42l-19.71-54.1z"/><path fill="url(#Dégradé_sans_nom_12-87)" d="M1419.58 271.94l-17.94 45.72h35.88l-17.94-45.72z"/><path fill="url(#Dégradé_sans_nom_12-88)" d="M1408.13 271.94l-17.94 45.72h35.88l-17.94-45.72z"/><path fill="url(#Dégradé_sans_nom_12-89)" d="M1385.79 266.56l-17.94 45.72h35.88l-17.94-45.72z"/><path fill="url(#Dégradé_sans_nom_12-90)" d="M1397.41 254.41l-17.94 45.72h35.88l-17.94-45.72z"/><path fill="url(#Dégradé_sans_nom_12-91)" d="M1516.63 280.27l-16.18 37.39h32.36l-16.18-37.39z"/><path fill="url(#Dégradé_sans_nom_12-92)" d="M348.21 293.45l-16.18 37.4h32.36l-16.18-37.4z"/><path fill="url(#Dégradé_sans_nom_12-93)" d="M459.56 264.28l-19.71 54.1h39.42l-19.71-54.1z"/><path fill="url(#Dégradé_sans_nom_12-94)" d="M471.69 276.97l-17.03 41.41h34.06l-17.03-41.41z"/><path fill="url(#Dégradé_sans_nom_12-95)" d="M483.82 282.46l-15.87 35.92h31.74l-15.87-35.92z"/><path fill="url(#Dégradé_sans_nom_12-96)" d="M435.3 260.57l-20.5 57.81h40.99l-20.49-57.81z"/><path fill="url(#Dégradé_sans_nom_12-97)" d="M423.17 270.5l-18.4 47.88h36.79l-18.39-47.88z"/><path fill="url(#Dégradé_sans_nom_12-98)" d="M447.43 281.15l-16.15 37.23h32.29l-16.14-37.23z"/><path fill="url(#Dégradé_sans_nom_12-99)" d="M411.03 264.28l-19.71 54.1h39.43l-19.72-54.1z"/><path fill="url(#Dégradé_sans_nom_12-100)" d="M398.9 272.66l-17.94 45.72h35.88l-17.94-45.72z"/><path fill="url(#Dégradé_sans_nom_12-101)" d="M434.42 280.73l-19.71 54.1h39.42l-19.71-54.1z"/><path fill="url(#Dégradé_sans_nom_12-102)" d="M446.55 293.42l-17.03 41.41h34.06l-17.03-41.41z"/><path fill="url(#Dégradé_sans_nom_12-103)" d="M458.68 298.91l-15.87 35.92h31.74l-15.87-35.92z"/><path fill="url(#Dégradé_sans_nom_12-104)" d="M410.15 277.02l-20.49 57.81h40.99l-20.5-57.81z"/><path fill="url(#Dégradé_sans_nom_12-105)" d="M398.02 286.95l-18.39 47.88h36.79l-18.4-47.88z"/><path fill="url(#Dégradé_sans_nom_12-106)" d="M422.29 297.6l-16.15 37.23h32.29l-16.14-37.23z"/><path fill="url(#Dégradé_sans_nom_12-107)" d="M385.89 280.73l-19.71 54.1h39.42l-19.71-54.1z"/><path fill="url(#Dégradé_sans_nom_12-108)" d="M373.76 289.11l-17.94 45.72h35.88l-17.94-45.72z"/><path fill="url(#Dégradé_sans_nom_12-109)" d="M362.31 289.11l-17.94 45.72h35.88l-17.94-45.72z"/><path fill="url(#Dégradé_sans_nom_12-110)" d="M339.97 283.73l-17.94 45.72h35.88l-17.94-45.72z"/><path fill="url(#Dégradé_sans_nom_12-111)" d="M351.59 271.58l-17.94 45.72h35.88l-17.94-45.72z"/><path fill="url(#Dégradé_sans_nom_12-112)" d="M470.81 297.44l-16.18 37.39h32.36l-16.18-37.39z"/><path fill="url(#Dégradé_sans_nom_12-113)" d="M772.98 261.71l-29 79.59h57.99l-28.99-79.59z"/><path fill="url(#Dégradé_sans_nom_12-114)" d="M790.82 280.38l-25.05 60.92h50.1l-25.05-60.92z"/><path fill="url(#Dégradé_sans_nom_12-115)" d="M737.29 256.26l-30.15 85.04h60.3l-30.15-85.04z"/><path fill="url(#Dégradé_sans_nom_12-116)" d="M719.44 270.87l-27.06 70.43h54.12l-27.06-70.43z"/><path fill="url(#Dégradé_sans_nom_12-117)" d="M755.13 286.53l-23.75 54.77h47.5l-23.75-54.77z"/><path fill="url(#Dégradé_sans_nom_12-118)" d="M701.6 261.71l-28.99 79.59h57.98l-28.99-79.59z"/><path fill="url(#Dégradé_sans_nom_12-119)" d="M683.75 274.05l-26.38 67.25h52.77l-26.39-67.25z"/><path fill="url(#Dégradé_sans_nom_12-120)" d="M829.09 272.13l-23.81 55.01h47.61l-23.8-55.01z"/><path fill="url(#Dégradé_sans_nom_12-121)" d="M1466.18 261.71l-29 79.59h57.99l-28.99-79.59z"/><path fill="url(#Dégradé_sans_nom_12-122)" d="M1484.02 280.38l-25.05 60.92h50.1l-25.05-60.92z"/><path fill="url(#Dégradé_sans_nom_12-123)" d="M1501.87 293.48l-23.34 52.84h46.68l-23.34-52.84z"/><path fill="url(#Dégradé_sans_nom_12-124)" d="M1430.49 256.26l-30.15 85.04h60.3l-30.15-85.04z"/><path fill="url(#Dégradé_sans_nom_12-125)" d="M1412.65 270.87l-27.06 70.43h54.11l-27.05-70.43z"/><path fill="url(#Dégradé_sans_nom_12-126)" d="M1448.34 286.53l-23.75 54.77h47.5l-23.75-54.77z"/><path fill="url(#Dégradé_sans_nom_12-127)" d="M1394.8 261.71l-28.99 79.59h57.99l-29-79.59z"/><path fill="url(#Dégradé_sans_nom_12-128)" d="M1376.96 274.05l-26.39 67.25h52.78l-26.39-67.25z"/><path fill="url(#Dégradé_sans_nom_12-129)" d="M1519.71 286.3l-23.8 55h47.6l-23.8-55z"/><path fill="url(#Dégradé_sans_nom_12-130)" d="M561.62 264.04l-26.39 67.25h52.78l-26.39-67.25z"/><path class="cls-134" d="M540.88 269.12l-28.99 79.58h57.99l-29-79.58z"/><path class="cls-134" d="M557.44 285.22l-25.05 60.91h50.1l-25.05-60.91z"/><path class="cls-134" d="M571.42 293.29l-23.34 52.84h46.68l-23.34-52.84zM511.91 257.79l-30.15 85.04h60.3l-30.15-85.04z"/><path class="cls-134" d="M495.2 247.03l-27.06 70.43h54.12l-27.06-70.43z"/><path class="cls-134" d="M526.03 265.81l-23.75 54.77h47.5l-23.75-54.77zM476.9 261.6l-28.99 79.59h57.99l-29-79.59z"/><path class="cls-134" d="M458.57 273.25l-26.38 67.25h52.77l-26.39-67.25zM581.64 300.26l-23.8 55h47.6l-23.8-55zM898.59 261.71l-29 79.59h57.99l-28.99-79.59z"/><path class="cls-134" d="M916.43 280.38l-25.05 60.92h50.1l-25.05-60.92z"/><path class="cls-134" d="M934.28 288.46l-23.35 52.84h46.69l-23.34-52.84zM865.47 242.09l-30.14 85.05h60.29l-30.15-85.05z"/><path class="cls-134" d="M847.63 256.71l-27.06 70.43h54.12l-27.06-70.43z"/><path class="cls-134" d="M883.32 272.37l-23.75 54.77h47.5l-23.75-54.77zM839.11 290.83l-23.75 54.77h47.5l-23.75-54.77z"/><path class="cls-134" d="M829.78 247.55l-28.99 79.59h57.99l-29-79.59z"/><path class="cls-134" d="M809.37 262.46l-26.39 67.25h52.77l-26.38-67.25zM952.12 286.3l-23.8 55h47.6l-23.8-55z"/><path class="cls-134" d="M988.32 261.71l-29 79.59h57.99l-28.99-79.59z"/><path class="cls-134" d="M1006.16 280.38l-25.05 60.92h50.1l-25.05-60.92z"/><path class="cls-134" d="M1024.01 288.46l-23.35 52.84h46.69l-23.34-52.84zM952.63 256.26l-30.15 85.04h60.29l-30.14-85.04z"/><path class="cls-134" d="M934.78 270.87l-27.06 70.43h54.12l-27.06-70.43z"/><path class="cls-134" d="M970.47 286.53l-23.75 54.77h47.5l-23.75-54.77zM916.94 261.71l-29 79.59h57.99l-28.99-79.59z"/><path class="cls-134" d="M899.09 274.05l-26.38 67.25h52.77l-26.39-67.25zM1041.85 286.3l-23.8 55h47.6l-23.8-55zM677.76 261.71l-28.99 79.59h57.99l-29-79.59z"/><path class="cls-134" d="M695.61 280.38l-25.05 60.92h50.1l-25.05-60.92z"/><path class="cls-134" d="M713.45 288.46l-23.34 52.84h46.69l-23.35-52.84zM642.08 256.26l-30.15 85.04h60.29l-30.14-85.04z"/><path class="cls-134" d="M618.49 270.87l-27.06 70.43h54.12l-27.06-70.43z"/><path class="cls-134" d="M659.92 286.53l-23.75 54.77h47.5l-23.75-54.77z"/><path class="cls-134" d="M609.85 262.5l-28.99 79.58h57.99l-29-79.58z"/><path class="cls-134" d="M588.54 274.05l-26.39 67.25h52.78l-26.39-67.25zM731.3 286.3l-23.8 55h47.6l-23.8-55zM1087.37 266.29l-28.99 79.59h57.99l-29-79.59z"/><path class="cls-134" d="M1106.22 283.34l-25.05 60.91h50.1l-25.05-60.91z"/><path class="cls-134" d="M1107.69 262.24l-25.05 60.91h50.1l-25.05-60.91z"/><path class="cls-134" d="M1132.81 290.33l-23.34 52.84h46.69l-23.35-52.84zM1051.78 250.51l-30.15 85.04h60.3l-30.15-85.04z"/><path class="cls-134" d="M1039.62 246.68l-27.06 70.42h54.12l-27.06-70.42z"/><path class="cls-134" d="M1070.01 278.7l-23.76 54.77h47.51l-23.75-54.77z"/><path class="cls-134" d="M1025.75 237.51l-29 79.59h57.99l-28.99-79.59z"/><path class="cls-134" d="M1007.9 249.85l-26.39 67.25h52.78l-26.39-67.25zM1150.66 280.43l-23.8 55h47.6l-23.8-55zM1314.45 237.51l-28.99 79.59h57.98l-28.99-79.59z"/><path class="cls-134" d="M1332.29 256.19l-25.05 60.91h50.1l-25.05-60.91z"/><path class="cls-134" d="M1350.14 264.26l-23.34 52.84h46.68l-23.34-52.84zM1278.76 232.06l-30.15 85.04h60.3l-30.15-85.04z"/><path class="cls-134" d="M1260.92 246.68l-27.06 70.42h54.12l-27.06-70.42z"/><path class="cls-134" d="M1296.61 262.34l-23.75 54.76h47.5l-23.75-54.76zM1243.07 237.51l-28.99 79.59h57.99l-29-79.59z"/><path class="cls-134" d="M1225.23 249.85l-26.39 67.25h52.78l-26.39-67.25zM1367.98 262.1l-23.8 55h47.6l-23.8-55z"/><path class="cls-134" d="M1360.85 283.35l-23.8 55.01h47.6l-23.8-55.01zM1277.47 261.71l-29 79.59h57.99l-28.99-79.59z"/><path class="cls-134" d="M1295.31 280.38l-25.05 60.92h50.1l-25.05-60.92z"/><path class="cls-134" d="M1313.16 288.46l-23.35 52.84h46.69l-23.34-52.84zM1241.78 256.26l-30.15 85.04h60.3l-30.15-85.04z"/><path class="cls-134" d="M1223.93 270.87l-27.05 70.43h54.11l-27.06-70.43z"/><path class="cls-134" d="M1259.62 286.53l-23.75 54.77h47.5l-23.75-54.77zM1206.09 261.71l-28.99 79.59h57.98l-28.99-79.59z"/><path class="cls-134" d="M1188.24 274.05l-26.38 67.25h52.77l-26.39-67.25z"/><path class="cls-134" d="M1171.41 274.05l-26.39 67.25h52.78l-26.39-67.25z"/><path class="cls-134" d="M1125.67 260.49l-26.39 67.25h52.78l-26.39-67.25z"/><path class="cls-134" d="M1138.54 266.13l-26.39 67.25h52.78l-26.39-67.25z"/><path class="cls-134" d="M1155.63 248.26l-26.39 67.25h52.78l-26.39-67.25zM1331 286.3l-23.8 55h47.6l-23.8-55zM1394.03 276.28l-16.18 37.39h32.36l-16.18-37.39zM1505.38 247.1l-19.71 54.11h39.42l-19.71-54.11z"/><path class="cls-134" d="M1517.51 259.8l-17.03 41.41h34.06l-17.03-41.41z"/><path class="cls-134" d="M1529.64 265.29l-15.87 35.92h31.74l-15.87-35.92zM1481.12 243.39l-20.5 57.82h40.99l-20.49-57.82z"/><path class="cls-134" d="M1468.98 253.33l-18.39 47.88h36.79l-18.4-47.88z"/><path class="cls-134" d="M1493.25 263.98l-16.15 37.23h32.29l-16.14-37.23zM1456.85 247.1l-19.71 54.11h39.42l-19.71-54.11z"/><path class="cls-134" d="M1444.72 255.49l-17.94 45.72h35.88l-17.94-45.72zM1480.23 263.56l-19.71 54.1h39.43l-19.72-54.1z"/><path class="cls-134" d="M1492.37 276.25l-17.03 41.41h34.06l-17.03-41.41z"/><path class="cls-134" d="M1504.5 281.74l-15.87 35.92h31.74l-15.87-35.92zM1455.97 259.85l-20.49 57.81h40.99l-20.5-57.81z"/><path class="cls-134" d="M1443.84 269.78l-18.4 47.88h36.8l-18.4-47.88z"/><path class="cls-134" d="M1468.1 280.43l-16.14 37.23h32.29l-16.15-37.23zM1431.71 263.56l-19.71 54.1h39.42l-19.71-54.1z"/><path class="cls-134" d="M1419.58 271.94l-17.94 45.72h35.88l-17.94-45.72z"/><path class="cls-134" d="M1408.13 271.94l-17.94 45.72h35.88l-17.94-45.72z"/><path class="cls-134" d="M1385.79 266.56l-17.94 45.72h35.88l-17.94-45.72z"/><path class="cls-134" d="M1397.41 254.41l-17.94 45.72h35.88l-17.94-45.72zM1516.63 280.27l-16.18 37.39h32.36l-16.18-37.39zM348.21 293.45l-16.18 37.4h32.36l-16.18-37.4zM459.56 264.28l-19.71 54.1h39.42l-19.71-54.1z"/><path class="cls-134" d="M471.69 276.97l-17.03 41.41h34.06l-17.03-41.41z"/><path class="cls-134" d="M483.82 282.46l-15.87 35.92h31.74l-15.87-35.92zM435.3 260.57l-20.5 57.81h40.99l-20.49-57.81z"/><path class="cls-134" d="M423.17 270.5l-18.4 47.88h36.79l-18.39-47.88z"/><path class="cls-134" d="M447.43 281.15l-16.15 37.23h32.29l-16.14-37.23zM411.03 264.28l-19.71 54.1h39.43l-19.72-54.1z"/><path class="cls-134" d="M398.9 272.66l-17.94 45.72h35.88l-17.94-45.72zM434.42 280.73l-19.71 54.1h39.42l-19.71-54.1z"/><path class="cls-134" d="M446.55 293.42l-17.03 41.41h34.06l-17.03-41.41z"/><path class="cls-134" d="M458.68 298.91l-15.87 35.92h31.74l-15.87-35.92zM410.15 277.02l-20.49 57.81h40.99l-20.5-57.81z"/><path class="cls-134" d="M398.02 286.95l-18.39 47.88h36.79l-18.4-47.88z"/><path class="cls-134" d="M422.29 297.6l-16.15 37.23h32.29l-16.14-37.23zM385.89 280.73l-19.71 54.1h39.42l-19.71-54.1z"/><path class="cls-134" d="M373.76 289.11l-17.94 45.72h35.88l-17.94-45.72z"/><path class="cls-134" d="M362.31 289.11l-17.94 45.72h35.88l-17.94-45.72z"/><path class="cls-134" d="M339.97 283.73l-17.94 45.72h35.88l-17.94-45.72z"/><path class="cls-134" d="M351.59 271.58l-17.94 45.72h35.88l-17.94-45.72zM470.81 297.44l-16.18 37.39h32.36l-16.18-37.39zM772.98 261.71l-29 79.59h57.99l-28.99-79.59z"/><path class="cls-134" d="M790.82 280.38l-25.05 60.92h50.1l-25.05-60.92z"/><path class="cls-134" d="M737.29 256.26l-30.15 85.04h60.3l-30.15-85.04z"/><path class="cls-134" d="M719.44 270.87l-27.06 70.43h54.12l-27.06-70.43z"/><path class="cls-134" d="M755.13 286.53l-23.75 54.77h47.5l-23.75-54.77zM701.6 261.71l-28.99 79.59h57.98l-28.99-79.59z"/><path class="cls-134" d="M683.75 274.05l-26.38 67.25h52.77l-26.39-67.25zM829.09 272.13l-23.81 55.01h47.61l-23.8-55.01zM1466.18 261.71l-29 79.59h57.99l-28.99-79.59z"/><path class="cls-134" d="M1484.02 280.38l-25.05 60.92h50.1l-25.05-60.92z"/><path class="cls-134" d="M1501.87 293.48l-23.34 52.84h46.68l-23.34-52.84zM1430.49 256.26l-30.15 85.04h60.3l-30.15-85.04z"/><path class="cls-134" d="M1412.65 270.87l-27.06 70.43h54.11l-27.05-70.43z"/><path class="cls-134" d="M1448.34 286.53l-23.75 54.77h47.5l-23.75-54.77zM1394.8 261.71l-28.99 79.59h57.99l-29-79.59z"/><path class="cls-134" d="M1376.96 274.05l-26.39 67.25h52.78l-26.39-67.25zM1519.71 286.3l-23.8 55h47.6l-23.8-55zM561.62 264.04l-26.39 67.25h52.78l-26.39-67.25z"/><path class="cls-135" d="M1279.51 364.58c-19.76-24.68-198.3-44-415.65-44s-395.86 19.32-415.64 44z"/><path class="cls-135" d="M944.94 364.58c-19.76-24.68-198.3-44-415.65-44s-395.89 19.31-415.64 44zM1901.26 364.58c-19.75-43.21-198.3-77-415.65-77s-395.89 33.83-415.64 77z"/><path class="cls-135" d="M1784.6 287.54c-181.42 0-330.45 33.83-346.94 77H1920v-77zM135.4 287.54c181.42 0 330.45 33.83 346.94 77H0v-77z"/><rect class="cls-136" x="555.14" y="323.67" width="159.55" height="3.56" rx="1.51"/><rect class="cls-136" x="934.14" y="323.67" width="159.55" height="3.56" rx="1.51"/><use width="57.74" height="123.42" transform="matrix(1.23 0 0 1.61 1010.53 128.93)" xlink:href="#grand_sapin"/><use width="57.74" height="123.42" transform="matrix(2.09 0 0 2.65 1110.37 0)" xlink:href="#grand_sapin"/><use width="57.74" height="123.42" transform="matrix(1.74 0 0 2.1 618.49 67.57)" xlink:href="#grand_sapin"/><use width="57.74" height="123.42" transform="matrix(1.66 0 0 2.11 1066.78 67.1)" xlink:href="#grand_sapin"/><use width="57.74" height="123.42" transform="matrix(1.16 0 0 1.4 1248.12 154.77)" xlink:href="#grand_sapin"/><use width="57.74" height="123.42" transform="matrix(1.12 0 0 1.27 1303.25 167.36)" xlink:href="#grand_sapin"/><use width="57.74" height="123.42" transform="matrix(1.37 0 0 1.66 675.97 122.67)" xlink:href="#grand_sapin"/><use width="57.74" height="123.42" transform="matrix(1.44 0 0 1.83 1179.15 97.44)" xlink:href="#grand_sapin"/></g></g></svg>